<svg width="298" height="259" viewBox="0 0 298 259" fill="none" xmlns="http://www.w3.org/2000/svg">
<rect x="88.15" y="11.15" width="149.7" height="29.7" fill="#FF8E1D"/>
<rect x="88.15" y="11.15" width="149.7" height="29.7" stroke="black" stroke-width="0.3"/>
<rect x="88.15" y="41.15" width="149.7" height="29.7" fill="#FF8E1D"/>
<rect x="88.15" y="41.15" width="149.7" height="29.7" stroke="black" stroke-width="0.3"/>
<path d="M163.339 52.0831C163.128 52.0831 162.947 52.0085 162.796 51.8594C162.647 51.7081 162.572 51.527 162.572 51.3161C162.572 51.1072 162.647 50.9283 162.796 50.7791C162.947 50.63 163.128 50.5554 163.339 50.5554C163.544 50.5554 163.723 50.63 163.876 50.7791C164.029 50.9283 164.106 51.1072 164.106 51.3161C164.106 51.4567 164.07 51.5856 163.998 51.7028C163.927 51.8178 163.835 51.9105 163.719 51.9808C163.604 52.049 163.478 52.0831 163.339 52.0831ZM163.339 56.0831C163.128 56.0831 162.947 56.0085 162.796 55.8594C162.647 55.7081 162.572 55.527 162.572 55.3161C162.572 55.1072 162.647 54.9283 162.796 54.7791C162.947 54.63 163.128 54.5554 163.339 54.5554C163.544 54.5554 163.723 54.63 163.876 54.7791C164.029 54.9283 164.106 55.1072 164.106 55.3161C164.106 55.4567 164.07 55.5856 163.998 55.7028C163.927 55.8178 163.835 55.9105 163.719 55.9808C163.604 56.049 163.478 56.0831 163.339 56.0831ZM163.339 60.0831C163.128 60.0831 162.947 60.0085 162.796 59.8594C162.647 59.7081 162.572 59.527 162.572 59.3161C162.572 59.1072 162.647 58.9283 162.796 58.7791C162.947 58.63 163.128 58.5554 163.339 58.5554C163.544 58.5554 163.723 58.63 163.876 58.7791C164.029 58.9283 164.106 59.1072 164.106 59.3161C164.106 59.4567 164.07 59.5856 163.998 59.7028C163.927 59.8178 163.835 59.9105 163.719 59.9808C163.604 60.049 163.478 60.0831 163.339 60.0831Z" fill="black"/>
<rect x="88.15" y="71.15" width="149.7" height="29.7" fill="#FF8E1D"/>
<rect x="88.15" y="71.15" width="149.7" height="29.7" stroke="black" stroke-width="0.3"/>
<path d="M160.378 82.4545V89H158.994V83.7681H158.956L157.457 84.7077V83.4805L159.077 82.4545H160.378ZM164.5 89.1438C163.951 89.1417 163.478 89.0064 163.081 88.7379C162.687 88.4695 162.383 88.0806 162.17 87.5714C161.959 87.0621 161.855 86.4496 161.857 85.7337C161.857 85.0199 161.963 84.4116 162.174 83.9087C162.387 83.4059 162.69 83.0234 163.084 82.7614C163.481 82.4972 163.953 82.3651 164.5 82.3651C165.048 82.3651 165.519 82.4972 165.913 82.7614C166.309 83.0256 166.614 83.4091 166.827 83.9119C167.04 84.4126 167.146 85.0199 167.143 85.7337C167.143 86.4517 167.037 87.0653 166.824 87.5746C166.613 88.0838 166.31 88.4727 165.916 88.7411C165.522 89.0096 165.05 89.1438 164.5 89.1438ZM164.5 87.9964C164.875 87.9964 165.175 87.8079 165.398 87.4308C165.622 87.0536 165.733 86.4879 165.731 85.7337C165.731 85.2372 165.68 84.8239 165.577 84.4936C165.477 84.1634 165.334 83.9151 165.149 83.7489C164.966 83.5827 164.75 83.4996 164.5 83.4996C164.127 83.4996 163.829 83.6861 163.605 84.0589C163.382 84.4318 163.269 84.9901 163.267 85.7337C163.267 86.2365 163.317 86.6562 163.417 86.9929C163.519 87.3274 163.663 87.5788 163.848 87.7472C164.034 87.9134 164.251 87.9964 164.5 87.9964Z" fill="black"/>
<rect x="88.15" y="101.15" width="149.7" height="29.7" fill="#FF8E1D"/>
<rect x="88.15" y="101.15" width="149.7" height="29.7" stroke="black" stroke-width="0.3"/>
<path d="M163.339 112.083C163.128 112.083 162.947 112.009 162.796 111.859C162.647 111.708 162.572 111.527 162.572 111.316C162.572 111.107 162.647 110.928 162.796 110.779C162.947 110.63 163.128 110.555 163.339 110.555C163.544 110.555 163.723 110.63 163.876 110.779C164.029 110.928 164.106 111.107 164.106 111.316C164.106 111.457 164.07 111.586 163.998 111.703C163.927 111.818 163.835 111.911 163.719 111.981C163.604 112.049 163.478 112.083 163.339 112.083ZM163.339 116.083C163.128 116.083 162.947 116.009 162.796 115.859C162.647 115.708 162.572 115.527 162.572 115.316C162.572 115.107 162.647 114.928 162.796 114.779C162.947 114.63 163.128 114.555 163.339 114.555C163.544 114.555 163.723 114.63 163.876 114.779C164.029 114.928 164.106 115.107 164.106 115.316C164.106 115.457 164.07 115.586 163.998 115.703C163.927 115.818 163.835 115.911 163.719 115.981C163.604 116.049 163.478 116.083 163.339 116.083ZM163.339 120.083C163.128 120.083 162.947 120.009 162.796 119.859C162.647 119.708 162.572 119.527 162.572 119.316C162.572 119.107 162.647 118.928 162.796 118.779C162.947 118.63 163.128 118.555 163.339 118.555C163.544 118.555 163.723 118.63 163.876 118.779C164.029 118.928 164.106 119.107 164.106 119.316C164.106 119.457 164.07 119.586 163.998 119.703C163.927 119.818 163.835 119.911 163.719 119.981C163.604 120.049 163.478 120.083 163.339 120.083Z" fill="black"/>
<rect x="88.15" y="131.15" width="149.7" height="29.7" fill="#FF8E1D"/>
<rect x="88.15" y="131.15" width="149.7" height="29.7" stroke="black" stroke-width="0.3"/>
<path d="M157.531 149V148.003L159.86 145.846C160.059 145.654 160.225 145.481 160.359 145.328C160.495 145.174 160.599 145.024 160.669 144.877C160.739 144.728 160.775 144.567 160.775 144.395C160.775 144.203 160.731 144.038 160.643 143.899C160.556 143.759 160.437 143.651 160.286 143.576C160.134 143.5 159.963 143.461 159.771 143.461C159.571 143.461 159.396 143.502 159.247 143.583C159.098 143.664 158.983 143.78 158.902 143.931C158.821 144.082 158.78 144.262 158.78 144.471H157.467C157.467 144.043 157.564 143.671 157.757 143.356C157.951 143.04 158.223 142.797 158.572 142.624C158.922 142.451 159.325 142.365 159.781 142.365C160.249 142.365 160.657 142.448 161.005 142.614C161.354 142.778 161.626 143.006 161.82 143.298C162.013 143.59 162.11 143.925 162.11 144.302C162.11 144.549 162.061 144.793 161.963 145.034C161.868 145.275 161.696 145.542 161.449 145.836C161.202 146.128 160.853 146.478 160.404 146.887L159.448 147.824V147.869H162.197V149H157.531ZM165.766 149.144C165.216 149.142 164.743 149.006 164.347 148.738C163.953 148.469 163.649 148.081 163.436 147.571C163.225 147.062 163.121 146.45 163.123 145.734C163.123 145.02 163.228 144.412 163.439 143.909C163.652 143.406 163.956 143.023 164.35 142.761C164.746 142.497 165.218 142.365 165.766 142.365C166.313 142.365 166.784 142.497 167.179 142.761C167.575 143.026 167.88 143.409 168.093 143.912C168.306 144.413 168.411 145.02 168.409 145.734C168.409 146.452 168.302 147.065 168.089 147.575C167.878 148.084 167.576 148.473 167.182 148.741C166.788 149.01 166.316 149.144 165.766 149.144ZM165.766 147.996C166.141 147.996 166.44 147.808 166.664 147.431C166.888 147.054 166.998 146.488 166.996 145.734C166.996 145.237 166.945 144.824 166.843 144.494C166.743 144.163 166.6 143.915 166.415 143.749C166.231 143.583 166.015 143.5 165.766 143.5C165.393 143.5 165.095 143.686 164.871 144.059C164.647 144.432 164.534 144.99 164.532 145.734C164.532 146.237 164.582 146.656 164.682 146.993C164.785 147.327 164.929 147.579 165.114 147.747C165.299 147.913 165.517 147.996 165.766 147.996Z" fill="black"/>
<rect x="88.15" y="161.15" width="149.7" height="29.7" fill="#FF8E1D"/>
<rect x="88.15" y="161.15" width="149.7" height="29.7" stroke="black" stroke-width="0.3"/>
<path d="M163.339 175.083C163.128 175.083 162.947 175.009 162.796 174.859C162.647 174.708 162.572 174.527 162.572 174.316C162.572 174.107 162.647 173.928 162.796 173.779C162.947 173.63 163.128 173.555 163.339 173.555C163.544 173.555 163.723 173.63 163.876 173.779C164.029 173.928 164.106 174.107 164.106 174.316C164.106 174.457 164.07 174.586 163.998 174.703C163.927 174.818 163.835 174.911 163.719 174.981C163.604 175.049 163.478 175.083 163.339 175.083ZM163.339 179.083C163.128 179.083 162.947 179.009 162.796 178.859C162.647 178.708 162.572 178.527 162.572 178.316C162.572 178.107 162.647 177.928 162.796 177.779C162.947 177.63 163.128 177.555 163.339 177.555C163.544 177.555 163.723 177.63 163.876 177.779C164.029 177.928 164.106 178.107 164.106 178.316C164.106 178.457 164.07 178.586 163.998 178.703C163.927 178.818 163.835 178.911 163.719 178.981C163.604 179.049 163.478 179.083 163.339 179.083ZM163.339 183.083C163.128 183.083 162.947 183.009 162.796 182.859C162.647 182.708 162.572 182.527 162.572 182.316C162.572 182.107 162.647 181.928 162.796 181.779C162.947 181.63 163.128 181.555 163.339 181.555C163.544 181.555 163.723 181.63 163.876 181.779C164.029 181.928 164.106 182.107 164.106 182.316C164.106 182.457 164.07 182.586 163.998 182.703C163.927 182.818 163.835 182.911 163.719 182.981C163.604 183.049 163.478 183.083 163.339 183.083Z" fill="black"/>
<rect x="88.15" y="191.15" width="149.7" height="29.7" fill="#FF8E1D"/>
<rect x="88.15" y="191.15" width="149.7" height="29.7" stroke="black" stroke-width="0.3"/>
<path d="M32.603 239.313H35.888V244.713H32.603V239.313ZM34.781 240.249H33.719V243.786H34.781V240.249ZM38.381 238.458H39.524V246.792H38.381V238.458ZM35.285 241.491H37.157V242.454H35.285V241.491ZM36.689 238.593H37.805V246.423H36.689V238.593ZM40.6483 244.857H48.1993V245.829H40.6483V244.857ZM43.8163 243.021H45.0043V245.091H43.8163V243.021ZM41.4403 239.079H47.3713V243.174H41.4403V239.079ZM46.1923 240.024H42.6193V242.22H46.1923V240.024ZM54.6606 238.449H55.8666V246.81H54.6606V238.449ZM49.3776 243.894H50.1156C50.6076 243.894 51.0726 243.888 51.5106 243.876C51.9486 243.858 52.3776 243.831 52.7976 243.795C53.2176 243.753 53.6466 243.693 54.0846 243.615L54.2106 244.578C53.5386 244.698 52.8756 244.779 52.2216 244.821C51.5736 244.857 50.8716 244.875 50.1156 244.875H49.3776V243.894ZM49.3596 239.16H53.2926V242.391H50.5926V244.263H49.3776V241.446H52.0776V240.123H49.3596V239.16ZM62.3679 239.385H63.4119V239.637C63.4119 239.925 63.3639 240.204 63.2679 240.474C63.1779 240.744 63.0399 240.996 62.8539 241.23C62.6679 241.458 62.4399 241.665 62.1699 241.851C61.9059 242.031 61.5999 242.184 61.2519 242.31C60.9039 242.436 60.5169 242.526 60.0909 242.58L59.6499 241.653C60.0219 241.605 60.3519 241.533 60.6399 241.437C60.9339 241.335 61.1889 241.218 61.4049 241.086C61.6209 240.948 61.8009 240.801 61.9449 240.645C62.0889 240.489 62.1939 240.324 62.2599 240.15C62.3319 239.976 62.3679 239.805 62.3679 239.637V239.385ZM62.7189 239.385H63.7539V239.637C63.7539 239.805 63.7869 239.976 63.8529 240.15C63.9249 240.324 64.0329 240.489 64.1769 240.645C64.3209 240.801 64.5009 240.948 64.7169 241.086C64.9389 241.218 65.1939 241.335 65.4819 241.437C65.7699 241.533 66.0999 241.605 66.4719 241.653L66.0309 242.58C65.6049 242.526 65.2179 242.436 64.8699 242.31C64.5219 242.184 64.2129 242.031 63.9429 241.851C63.6789 241.665 63.4539 241.458 63.2679 241.23C63.0879 240.996 62.9499 240.744 62.8539 240.474C62.7639 240.204 62.7189 239.925 62.7189 239.637V239.385ZM62.4309 243.75H63.6279V246.801H62.4309V243.75ZM59.2899 243.057H66.8319V244.02H59.2899V243.057ZM59.9559 238.89H66.1389V239.835H59.9559V238.89ZM67.5692 244.848H75.1202V245.82H67.5692V244.848ZM70.7012 242.994H71.8982V245.109H70.7012V242.994ZM70.6652 238.926H71.7092V239.529C71.7092 239.883 71.6582 240.225 71.5562 240.555C71.4602 240.885 71.3132 241.197 71.1152 241.491C70.9232 241.785 70.6862 242.052 70.4042 242.292C70.1222 242.526 69.7982 242.727 69.4322 242.895C69.0722 243.063 68.6732 243.186 68.2352 243.264L67.7402 242.265C68.1242 242.205 68.4692 242.109 68.7752 241.977C69.0812 241.845 69.3512 241.689 69.5852 241.509C69.8252 241.323 70.0232 241.122 70.1792 240.906C70.3412 240.684 70.4612 240.456 70.5392 240.222C70.6232 239.988 70.6652 239.757 70.6652 239.529V238.926ZM70.8902 238.926H71.9432V239.529C71.9432 239.763 71.9822 239.997 72.0602 240.231C72.1442 240.465 72.2642 240.69 72.4202 240.906C72.5822 241.122 72.7802 241.323 73.0142 241.509C73.2482 241.689 73.5182 241.845 73.8242 241.977C74.1362 242.109 74.4812 242.205 74.8592 242.265L74.3642 243.264C73.9262 243.18 73.5272 243.057 73.1672 242.895C72.8072 242.727 72.4862 242.526 72.2042 242.292C71.9222 242.058 71.6822 241.797 71.4842 241.509C71.2922 241.215 71.1452 240.903 71.0432 240.573C70.9412 240.237 70.8902 239.889 70.8902 239.529V238.926Z" fill="black"/>
<path d="M22.0969 24.1438C21.5472 24.1417 21.0742 24.0064 20.6779 23.7379C20.2837 23.4695 19.9801 23.0806 19.767 22.5714C19.5561 22.0621 19.4517 21.4496 19.4538 20.7337C19.4538 20.0199 19.5593 19.4116 19.7702 18.9087C19.9833 18.4059 20.2869 18.0234 20.6811 17.7614C21.0774 17.4972 21.5494 17.3651 22.0969 17.3651C22.6445 17.3651 23.1154 17.4972 23.5096 17.7614C23.9059 18.0256 24.2106 18.4091 24.4237 18.9119C24.6367 19.4126 24.7422 20.0199 24.7401 20.7337C24.7401 21.4517 24.6335 22.0653 24.4205 22.5746C24.2095 23.0838 23.907 23.4727 23.5128 23.7411C23.1186 24.0096 22.6467 24.1438 22.0969 24.1438ZM22.0969 22.9964C22.4719 22.9964 22.7713 22.8079 22.995 22.4308C23.2188 22.0536 23.3295 21.4879 23.3274 20.7337C23.3274 20.2372 23.2763 19.8239 23.174 19.4936C23.0739 19.1634 22.9311 18.9151 22.7457 18.7489C22.5625 18.5827 22.3462 18.4996 22.0969 18.4996C21.7241 18.4996 21.4258 18.6861 21.2021 19.0589C20.9783 19.4318 20.8654 19.9901 20.8633 20.7337C20.8633 21.2365 20.9134 21.6562 21.0135 21.9929C21.1158 22.3274 21.2596 22.5788 21.445 22.7472C21.6303 22.9134 21.8477 22.9964 22.0969 22.9964ZM29.7442 23.0923L25.925 19.2795L26.7623 18.4325L30.5848 22.255L29.7442 23.0923ZM26.7623 23.0923L25.925 22.255L29.7442 18.4325L30.5848 19.2795L26.7623 23.0923ZM34.4104 24.1438C33.8607 24.1417 33.3877 24.0064 32.9914 23.7379C32.5972 23.4695 32.2936 23.0806 32.0805 22.5714C31.8696 22.0621 31.7652 21.4496 31.7673 20.7337C31.7673 20.0199 31.8728 19.4116 32.0837 18.9087C32.2968 18.4059 32.6004 18.0234 32.9946 17.7614C33.3909 17.4972 33.8628 17.3651 34.4104 17.3651C34.958 17.3651 35.4289 17.4972 35.8231 17.7614C36.2194 18.0256 36.5241 18.4091 36.7371 18.9119C36.9502 19.4126 37.0557 20.0199 37.0535 20.7337C37.0535 21.4517 36.947 22.0653 36.7339 22.5746C36.523 23.0838 36.2204 23.4727 35.8263 23.7411C35.4321 24.0096 34.9601 24.1438 34.4104 24.1438ZM34.4104 22.9964C34.7854 22.9964 35.0848 22.8079 35.3085 22.4308C35.5322 22.0536 35.643 21.4879 35.6409 20.7337C35.6409 20.2372 35.5898 19.8239 35.4875 19.4936C35.3873 19.1634 35.2446 18.9151 35.0592 18.7489C34.876 18.5827 34.6597 18.4996 34.4104 18.4996C34.0376 18.4996 33.7393 18.6861 33.5155 19.0589C33.2918 19.4318 33.1789 19.9901 33.1768 20.7337C33.1768 21.2365 33.2268 21.6562 33.327 21.9929C33.4292 22.3274 33.5731 22.5788 33.7584 22.7472C33.9438 22.9134 34.1611 22.9964 34.4104 22.9964ZM40.6067 24.1438C40.057 24.1417 39.584 24.0064 39.1877 23.7379C38.7935 23.4695 38.4899 23.0806 38.2768 22.5714C38.0659 22.0621 37.9615 21.4496 37.9636 20.7337C37.9636 20.0199 38.0691 19.4116 38.28 18.9087C38.4931 18.4059 38.7967 18.0234 39.1909 17.7614C39.5872 17.4972 40.0591 17.3651 40.6067 17.3651C41.1543 17.3651 41.6252 17.4972 42.0194 17.7614C42.4157 18.0256 42.7203 18.4091 42.9334 18.9119C43.1465 19.4126 43.252 20.0199 43.2498 20.7337C43.2498 21.4517 43.1433 22.0653 42.9302 22.5746C42.7193 23.0838 42.4167 23.4727 42.0226 23.7411C41.6284 24.0096 41.1564 24.1438 40.6067 24.1438ZM40.6067 22.9964C40.9817 22.9964 41.2811 22.8079 41.5048 22.4308C41.7285 22.0536 41.8393 21.4879 41.8372 20.7337C41.8372 20.2372 41.786 19.8239 41.6838 19.4936C41.5836 19.1634 41.4409 18.9151 41.2555 18.7489C41.0723 18.5827 40.856 18.4996 40.6067 18.4996C40.2338 18.4996 39.9355 18.6861 39.7118 19.0589C39.4881 19.4318 39.3752 19.9901 39.373 20.7337C39.373 21.2365 39.4231 21.6562 39.5233 21.9929C39.6255 22.3274 39.7694 22.5788 39.9547 22.7472C40.1401 22.9134 40.3574 22.9964 40.6067 22.9964ZM46.803 24.1438C46.2533 24.1417 45.7803 24.0064 45.384 23.7379C44.9898 23.4695 44.6862 23.0806 44.4731 22.5714C44.2622 22.0621 44.1578 21.4496 44.1599 20.7337C44.1599 20.0199 44.2654 19.4116 44.4763 18.9087C44.6894 18.4059 44.993 18.0234 45.3872 17.7614C45.7835 17.4972 46.2554 17.3651 46.803 17.3651C47.3506 17.3651 47.8215 17.4972 48.2156 17.7614C48.6119 18.0256 48.9166 18.4091 49.1297 18.9119C49.3428 19.4126 49.4482 20.0199 49.4461 20.7337C49.4461 21.4517 49.3396 22.0653 49.1265 22.5746C48.9156 23.0838 48.613 23.4727 48.2188 23.7411C47.8247 24.0096 47.3527 24.1438 46.803 24.1438ZM46.803 22.9964C47.178 22.9964 47.4774 22.8079 47.7011 22.4308C47.9248 22.0536 48.0356 21.4879 48.0335 20.7337C48.0335 20.2372 47.9823 19.8239 47.8801 19.4936C47.7799 19.1634 47.6372 18.9151 47.4518 18.7489C47.2686 18.5827 47.0523 18.4996 46.803 18.4996C46.4301 18.4996 46.1318 18.6861 45.9081 19.0589C45.6844 19.4318 45.5715 19.9901 45.5693 20.7337C45.5693 21.2365 45.6194 21.6562 45.7195 21.9929C45.8218 22.3274 45.9656 22.5788 46.151 22.7472C46.3364 22.9134 46.5537 22.9964 46.803 22.9964ZM52.9993 24.1438C52.4496 24.1417 51.9766 24.0064 51.5803 23.7379C51.1861 23.4695 50.8825 23.0806 50.6694 22.5714C50.4585 22.0621 50.354 21.4496 50.3562 20.7337C50.3562 20.0199 50.4616 19.4116 50.6726 18.9087C50.8857 18.4059 51.1893 18.0234 51.5835 17.7614C51.9798 17.4972 52.4517 17.3651 52.9993 17.3651C53.5469 17.3651 54.0178 17.4972 54.4119 17.7614C54.8082 18.0256 55.1129 18.4091 55.326 18.9119C55.5391 19.4126 55.6445 20.0199 55.6424 20.7337C55.6424 21.4517 55.5359 22.0653 55.3228 22.5746C55.1119 23.0838 54.8093 23.4727 54.4151 23.7411C54.021 24.0096 53.549 24.1438 52.9993 24.1438ZM52.9993 22.9964C53.3743 22.9964 53.6737 22.8079 53.8974 22.4308C54.1211 22.0536 54.2319 21.4879 54.2298 20.7337C54.2298 20.2372 54.1786 19.8239 54.0763 19.4936C53.9762 19.1634 53.8335 18.9151 53.6481 18.7489C53.4648 18.5827 53.2486 18.4996 52.9993 18.4996C52.6264 18.4996 52.3281 18.6861 52.1044 19.0589C51.8807 19.4318 51.7678 19.9901 51.7656 20.7337C51.7656 21.2365 51.8157 21.6562 51.9158 21.9929C52.0181 22.3274 52.1619 22.5788 52.3473 22.7472C52.5327 22.9134 52.75 22.9964 52.9993 22.9964ZM59.1956 24.1438C58.6459 24.1417 58.1729 24.0064 57.7765 23.7379C57.3824 23.4695 57.0787 23.0806 56.8657 22.5714C56.6547 22.0621 56.5503 21.4496 56.5525 20.7337C56.5525 20.0199 56.6579 19.4116 56.8689 18.9087C57.0819 18.4059 57.3856 18.0234 57.7797 17.7614C58.176 17.4972 58.648 17.3651 59.1956 17.3651C59.7432 17.3651 60.214 17.4972 60.6082 17.7614C61.0045 18.0256 61.3092 18.4091 61.5223 18.9119C61.7354 19.4126 61.8408 20.0199 61.8387 20.7337C61.8387 21.4517 61.7322 22.0653 61.5191 22.5746C61.3082 23.0838 61.0056 23.4727 60.6114 23.7411C60.2172 24.0096 59.7453 24.1438 59.1956 24.1438ZM59.1956 22.9964C59.5706 22.9964 59.8699 22.8079 60.0937 22.4308C60.3174 22.0536 60.4282 21.4879 60.426 20.7337C60.426 20.2372 60.3749 19.8239 60.2726 19.4936C60.1725 19.1634 60.0297 18.9151 59.8444 18.7489C59.6611 18.5827 59.4449 18.4996 59.1956 18.4996C58.8227 18.4996 58.5244 18.6861 58.3007 19.0589C58.077 19.4318 57.964 19.9901 57.9619 20.7337C57.9619 21.2365 58.012 21.6562 58.1121 21.9929C58.2144 22.3274 58.3582 22.5788 58.5436 22.7472C58.729 22.9134 58.9463 22.9964 59.1956 22.9964ZM65.3919 24.1438C64.8422 24.1417 64.3691 24.0064 63.9728 23.7379C63.5787 23.4695 63.275 23.0806 63.062 22.5714C62.851 22.0621 62.7466 21.4496 62.7488 20.7337C62.7488 20.0199 62.8542 19.4116 63.0652 18.9087C63.2782 18.4059 63.5819 18.0234 63.976 17.7614C64.3723 17.4972 64.8443 17.3651 65.3919 17.3651C65.9395 17.3651 66.4103 17.4972 66.8045 17.7614C67.2008 18.0256 67.5055 18.4091 67.7186 18.9119C67.9316 19.4126 68.0371 20.0199 68.035 20.7337C68.035 21.4517 67.9284 22.0653 67.7154 22.5746C67.5044 23.0838 67.2019 23.4727 66.8077 23.7411C66.4135 24.0096 65.9416 24.1438 65.3919 24.1438ZM65.3919 22.9964C65.7669 22.9964 66.0662 22.8079 66.29 22.4308C66.5137 22.0536 66.6245 21.4879 66.6223 20.7337C66.6223 20.2372 66.5712 19.8239 66.4689 19.4936C66.3688 19.1634 66.226 18.9151 66.0407 18.7489C65.8574 18.5827 65.6412 18.4996 65.3919 18.4996C65.019 18.4996 64.7207 18.6861 64.497 19.0589C64.2733 19.4318 64.1603 19.9901 64.1582 20.7337C64.1582 21.2365 64.2083 21.6562 64.3084 21.9929C64.4107 22.3274 64.5545 22.5788 64.7399 22.7472C64.9252 22.9134 65.1426 22.9964 65.3919 22.9964ZM71.5882 24.1438C71.0384 24.1417 70.5654 24.0064 70.1691 23.7379C69.7749 23.4695 69.4713 23.0806 69.2583 22.5714C69.0473 22.0621 68.9429 21.4496 68.945 20.7337C68.945 20.0199 69.0505 19.4116 69.2615 18.9087C69.4745 18.4059 69.7781 18.0234 70.1723 17.7614C70.5686 17.4972 71.0406 17.3651 71.5882 17.3651C72.1357 17.3651 72.6066 17.4972 73.0008 17.7614C73.3971 18.0256 73.7018 18.4091 73.9149 18.9119C74.1279 19.4126 74.2334 20.0199 74.2313 20.7337C74.2313 21.4517 74.1247 22.0653 73.9117 22.5746C73.7007 23.0838 73.3982 23.4727 73.004 23.7411C72.6098 24.0096 72.1379 24.1438 71.5882 24.1438ZM71.5882 22.9964C71.9632 22.9964 72.2625 22.8079 72.4862 22.4308C72.71 22.0536 72.8208 21.4879 72.8186 20.7337C72.8186 20.2372 72.7675 19.8239 72.6652 19.4936C72.5651 19.1634 72.4223 18.9151 72.2369 18.7489C72.0537 18.5827 71.8374 18.4996 71.5882 18.4996C71.2153 18.4996 70.917 18.6861 70.6933 19.0589C70.4695 19.4318 70.3566 19.9901 70.3545 20.7337C70.3545 21.2365 70.4046 21.6562 70.5047 21.9929C70.607 22.3274 70.7508 22.5788 70.9362 22.7472C71.1215 22.9134 71.3389 22.9964 71.5882 22.9964ZM77.7844 24.1438C77.2347 24.1417 76.7617 24.0064 76.3654 23.7379C75.9712 23.4695 75.6676 23.0806 75.4545 22.5714C75.2436 22.0621 75.1392 21.4496 75.1413 20.7337C75.1413 20.0199 75.2468 19.4116 75.4577 18.9087C75.6708 18.4059 75.9744 18.0234 76.3686 17.7614C76.7649 17.4972 77.2369 17.3651 77.7844 17.3651C78.332 17.3651 78.8029 17.4972 79.1971 17.7614C79.5934 18.0256 79.8981 18.4091 80.1112 18.9119C80.3242 19.4126 80.4297 20.0199 80.4276 20.7337C80.4276 21.4517 80.321 22.0653 80.108 22.5746C79.897 23.0838 79.5945 23.4727 79.2003 23.7411C78.8061 24.0096 78.3342 24.1438 77.7844 24.1438ZM77.7844 22.9964C78.1594 22.9964 78.4588 22.8079 78.6825 22.4308C78.9063 22.0536 79.017 21.4879 79.0149 20.7337C79.0149 20.2372 78.9638 19.8239 78.8615 19.4936C78.7614 19.1634 78.6186 18.9151 78.4332 18.7489C78.25 18.5827 78.0337 18.4996 77.7844 18.4996C77.4116 18.4996 77.1133 18.6861 76.8896 19.0589C76.6658 19.4318 76.5529 19.9901 76.5508 20.7337C76.5508 21.2365 76.6009 21.6562 76.701 21.9929C76.8033 22.3274 76.9471 22.5788 77.1325 22.7472C77.3178 22.9134 77.5352 22.9964 77.7844 22.9964Z" fill="black"/>
<path d="M23.0969 89.1438C22.5472 89.1417 22.0742 89.0064 21.6779 88.7379C21.2837 88.4695 20.9801 88.0806 20.767 87.5714C20.5561 87.0621 20.4517 86.4496 20.4538 85.7337C20.4538 85.0199 20.5593 84.4116 20.7702 83.9087C20.9833 83.4059 21.2869 83.0234 21.6811 82.7614C22.0774 82.4972 22.5494 82.3651 23.0969 82.3651C23.6445 82.3651 24.1154 82.4972 24.5096 82.7614C24.9059 83.0256 25.2106 83.4091 25.4237 83.9119C25.6367 84.4126 25.7422 85.0199 25.7401 85.7337C25.7401 86.4517 25.6335 87.0653 25.4205 87.5746C25.2095 88.0838 24.907 88.4727 24.5128 88.7411C24.1186 89.0096 23.6467 89.1438 23.0969 89.1438ZM23.0969 87.9964C23.4719 87.9964 23.7713 87.8079 23.995 87.4308C24.2188 87.0536 24.3295 86.4879 24.3274 85.7337C24.3274 85.2372 24.2763 84.8239 24.174 84.4936C24.0739 84.1634 23.9311 83.9151 23.7457 83.7489C23.5625 83.5827 23.3462 83.4996 23.0969 83.4996C22.7241 83.4996 22.4258 83.6861 22.2021 84.0589C21.9783 84.4318 21.8654 84.9901 21.8633 85.7337C21.8633 86.2365 21.9134 86.6562 22.0135 86.9929C22.1158 87.3274 22.2596 87.5788 22.445 87.7472C22.6303 87.9134 22.8477 87.9964 23.0969 87.9964ZM30.7442 88.0923L26.925 84.2795L27.7623 83.4325L31.5848 87.255L30.7442 88.0923ZM27.7623 88.0923L26.925 87.255L30.7442 83.4325L31.5848 84.2795L27.7623 88.0923ZM35.4104 89.1438C34.8607 89.1417 34.3877 89.0064 33.9914 88.7379C33.5972 88.4695 33.2936 88.0806 33.0805 87.5714C32.8696 87.0621 32.7652 86.4496 32.7673 85.7337C32.7673 85.0199 32.8728 84.4116 33.0837 83.9087C33.2968 83.4059 33.6004 83.0234 33.9946 82.7614C34.3909 82.4972 34.8628 82.3651 35.4104 82.3651C35.958 82.3651 36.4289 82.4972 36.8231 82.7614C37.2194 83.0256 37.5241 83.4091 37.7371 83.9119C37.9502 84.4126 38.0557 85.0199 38.0535 85.7337C38.0535 86.4517 37.947 87.0653 37.7339 87.5746C37.523 88.0838 37.2204 88.4727 36.8263 88.7411C36.4321 89.0096 35.9601 89.1438 35.4104 89.1438ZM35.4104 87.9964C35.7854 87.9964 36.0848 87.8079 36.3085 87.4308C36.5322 87.0536 36.643 86.4879 36.6409 85.7337C36.6409 85.2372 36.5898 84.8239 36.4875 84.4936C36.3873 84.1634 36.2446 83.9151 36.0592 83.7489C35.876 83.5827 35.6597 83.4996 35.4104 83.4996C35.0376 83.4996 34.7393 83.6861 34.5155 84.0589C34.2918 84.4318 34.1789 84.9901 34.1768 85.7337C34.1768 86.2365 34.2268 86.6562 34.327 86.9929C34.4292 87.3274 34.5731 87.5788 34.7584 87.7472C34.9438 87.9134 35.1611 87.9964 35.4104 87.9964ZM41.6067 89.1438C41.057 89.1417 40.584 89.0064 40.1877 88.7379C39.7935 88.4695 39.4899 88.0806 39.2768 87.5714C39.0659 87.0621 38.9615 86.4496 38.9636 85.7337C38.9636 85.0199 39.0691 84.4116 39.28 83.9087C39.4931 83.4059 39.7967 83.0234 40.1909 82.7614C40.5872 82.4972 41.0591 82.3651 41.6067 82.3651C42.1543 82.3651 42.6252 82.4972 43.0194 82.7614C43.4157 83.0256 43.7203 83.4091 43.9334 83.9119C44.1465 84.4126 44.252 85.0199 44.2498 85.7337C44.2498 86.4517 44.1433 87.0653 43.9302 87.5746C43.7193 88.0838 43.4167 88.4727 43.0226 88.7411C42.6284 89.0096 42.1564 89.1438 41.6067 89.1438ZM41.6067 87.9964C41.9817 87.9964 42.2811 87.8079 42.5048 87.4308C42.7285 87.0536 42.8393 86.4879 42.8372 85.7337C42.8372 85.2372 42.786 84.8239 42.6838 84.4936C42.5836 84.1634 42.4409 83.9151 42.2555 83.7489C42.0723 83.5827 41.856 83.4996 41.6067 83.4996C41.2338 83.4996 40.9355 83.6861 40.7118 84.0589C40.4881 84.4318 40.3752 84.9901 40.373 85.7337C40.373 86.2365 40.4231 86.6562 40.5233 86.9929C40.6255 87.3274 40.7694 87.5788 40.9547 87.7472C41.1401 87.9134 41.3574 87.9964 41.6067 87.9964ZM47.803 89.1438C47.2533 89.1417 46.7803 89.0064 46.384 88.7379C45.9898 88.4695 45.6862 88.0806 45.4731 87.5714C45.2622 87.0621 45.1578 86.4496 45.1599 85.7337C45.1599 85.0199 45.2654 84.4116 45.4763 83.9087C45.6894 83.4059 45.993 83.0234 46.3872 82.7614C46.7835 82.4972 47.2554 82.3651 47.803 82.3651C48.3506 82.3651 48.8215 82.4972 49.2156 82.7614C49.6119 83.0256 49.9166 83.4091 50.1297 83.9119C50.3428 84.4126 50.4482 85.0199 50.4461 85.7337C50.4461 86.4517 50.3396 87.0653 50.1265 87.5746C49.9156 88.0838 49.613 88.4727 49.2188 88.7411C48.8247 89.0096 48.3527 89.1438 47.803 89.1438ZM47.803 87.9964C48.178 87.9964 48.4774 87.8079 48.7011 87.4308C48.9248 87.0536 49.0356 86.4879 49.0335 85.7337C49.0335 85.2372 48.9823 84.8239 48.8801 84.4936C48.7799 84.1634 48.6372 83.9151 48.4518 83.7489C48.2686 83.5827 48.0523 83.4996 47.803 83.4996C47.4301 83.4996 47.1318 83.6861 46.9081 84.0589C46.6844 84.4318 46.5715 84.9901 46.5693 85.7337C46.5693 86.2365 46.6194 86.6562 46.7195 86.9929C46.8218 87.3274 46.9656 87.5788 47.151 87.7472C47.3364 87.9134 47.5537 87.9964 47.803 87.9964ZM53.9993 89.1438C53.4496 89.1417 52.9766 89.0064 52.5803 88.7379C52.1861 88.4695 51.8825 88.0806 51.6694 87.5714C51.4585 87.0621 51.354 86.4496 51.3562 85.7337C51.3562 85.0199 51.4616 84.4116 51.6726 83.9087C51.8857 83.4059 52.1893 83.0234 52.5835 82.7614C52.9798 82.4972 53.4517 82.3651 53.9993 82.3651C54.5469 82.3651 55.0178 82.4972 55.4119 82.7614C55.8082 83.0256 56.1129 83.4091 56.326 83.9119C56.5391 84.4126 56.6445 85.0199 56.6424 85.7337C56.6424 86.4517 56.5359 87.0653 56.3228 87.5746C56.1119 88.0838 55.8093 88.4727 55.4151 88.7411C55.021 89.0096 54.549 89.1438 53.9993 89.1438ZM53.9993 87.9964C54.3743 87.9964 54.6737 87.8079 54.8974 87.4308C55.1211 87.0536 55.2319 86.4879 55.2298 85.7337C55.2298 85.2372 55.1786 84.8239 55.0763 84.4936C54.9762 84.1634 54.8335 83.9151 54.6481 83.7489C54.4648 83.5827 54.2486 83.4996 53.9993 83.4996C53.6264 83.4996 53.3281 83.6861 53.1044 84.0589C52.8807 84.4318 52.7678 84.9901 52.7656 85.7337C52.7656 86.2365 52.8157 86.6562 52.9158 86.9929C53.0181 87.3274 53.1619 87.5788 53.3473 87.7472C53.5327 87.9134 53.75 87.9964 53.9993 87.9964ZM60.1956 89.1438C59.6459 89.1417 59.1729 89.0064 58.7765 88.7379C58.3824 88.4695 58.0787 88.0806 57.8657 87.5714C57.6547 87.0621 57.5503 86.4496 57.5525 85.7337C57.5525 85.0199 57.6579 84.4116 57.8689 83.9087C58.0819 83.4059 58.3856 83.0234 58.7797 82.7614C59.176 82.4972 59.648 82.3651 60.1956 82.3651C60.7432 82.3651 61.214 82.4972 61.6082 82.7614C62.0045 83.0256 62.3092 83.4091 62.5223 83.9119C62.7354 84.4126 62.8408 85.0199 62.8387 85.7337C62.8387 86.4517 62.7322 87.0653 62.5191 87.5746C62.3082 88.0838 62.0056 88.4727 61.6114 88.7411C61.2172 89.0096 60.7453 89.1438 60.1956 89.1438ZM60.1956 87.9964C60.5706 87.9964 60.8699 87.8079 61.0937 87.4308C61.3174 87.0536 61.4282 86.4879 61.426 85.7337C61.426 85.2372 61.3749 84.8239 61.2726 84.4936C61.1725 84.1634 61.0297 83.9151 60.8444 83.7489C60.6611 83.5827 60.4449 83.4996 60.1956 83.4996C59.8227 83.4996 59.5244 83.6861 59.3007 84.0589C59.077 84.4318 58.964 84.9901 58.9619 85.7337C58.9619 86.2365 59.012 86.6562 59.1121 86.9929C59.2144 87.3274 59.3582 87.5788 59.5436 87.7472C59.729 87.9134 59.9463 87.9964 60.1956 87.9964ZM66.3919 89.1438C65.8422 89.1417 65.3691 89.0064 64.9728 88.7379C64.5787 88.4695 64.275 88.0806 64.062 87.5714C63.851 87.0621 63.7466 86.4496 63.7488 85.7337C63.7488 85.0199 63.8542 84.4116 64.0652 83.9087C64.2782 83.4059 64.5819 83.0234 64.976 82.7614C65.3723 82.4972 65.8443 82.3651 66.3919 82.3651C66.9395 82.3651 67.4103 82.4972 67.8045 82.7614C68.2008 83.0256 68.5055 83.4091 68.7186 83.9119C68.9316 84.4126 69.0371 85.0199 69.035 85.7337C69.035 86.4517 68.9284 87.0653 68.7154 87.5746C68.5044 88.0838 68.2019 88.4727 67.8077 88.7411C67.4135 89.0096 66.9416 89.1438 66.3919 89.1438ZM66.3919 87.9964C66.7669 87.9964 67.0662 87.8079 67.29 87.4308C67.5137 87.0536 67.6245 86.4879 67.6223 85.7337C67.6223 85.2372 67.5712 84.8239 67.4689 84.4936C67.3688 84.1634 67.226 83.9151 67.0407 83.7489C66.8574 83.5827 66.6412 83.4996 66.3919 83.4996C66.019 83.4996 65.7207 83.6861 65.497 84.0589C65.2733 84.4318 65.1603 84.9901 65.1582 85.7337C65.1582 86.2365 65.2083 86.6562 65.3084 86.9929C65.4107 87.3274 65.5545 87.5788 65.7399 87.7472C65.9252 87.9134 66.1426 87.9964 66.3919 87.9964ZM70.0601 89V82.4545H74.3939V83.5955H71.444V85.1552H74.1063V86.2962H71.444V89H70.0601ZM75.2864 89V88.0028L77.6163 85.8455C77.8145 85.6538 77.9806 85.4812 78.1149 85.3278C78.2512 85.1744 78.3546 85.0241 78.4249 84.8771C78.4952 84.728 78.5304 84.5671 78.5304 84.3945C78.5304 84.2028 78.4867 84.0376 78.3993 83.8991C78.312 83.7585 78.1926 83.6509 78.0414 83.5763C77.8901 83.4996 77.7186 83.4613 77.5268 83.4613C77.3265 83.4613 77.1518 83.5018 77.0027 83.5827C76.8535 83.6637 76.7385 83.7798 76.6575 83.9311C76.5765 84.0824 76.536 84.2624 76.536 84.4712H75.2225C75.2225 84.043 75.3194 83.6712 75.5133 83.3558C75.7072 83.0405 75.9789 82.7965 76.3283 82.6239C76.6777 82.4513 77.0804 82.3651 77.5364 82.3651C78.0051 82.3651 78.4132 82.4482 78.7605 82.6143C79.1099 82.7784 79.3816 83.0064 79.5755 83.2983C79.7694 83.5902 79.8663 83.9247 79.8663 84.3018C79.8663 84.549 79.8173 84.793 79.7193 85.0337C79.6234 85.2745 79.4519 85.5419 79.2047 85.8359C78.9576 86.1278 78.6092 86.4783 78.1596 86.8874L77.204 87.8239V87.8686H79.9526V89H75.2864Z" fill="black"/>
<path d="M24.0969 149.144C23.5472 149.142 23.0742 149.006 22.6779 148.738C22.2837 148.469 21.9801 148.081 21.767 147.571C21.5561 147.062 21.4517 146.45 21.4538 145.734C21.4538 145.02 21.5593 144.412 21.7702 143.909C21.9833 143.406 22.2869 143.023 22.6811 142.761C23.0774 142.497 23.5494 142.365 24.0969 142.365C24.6445 142.365 25.1154 142.497 25.5096 142.761C25.9059 143.026 26.2106 143.409 26.4237 143.912C26.6367 144.413 26.7422 145.02 26.7401 145.734C26.7401 146.452 26.6335 147.065 26.4205 147.575C26.2095 148.084 25.907 148.473 25.5128 148.741C25.1186 149.01 24.6467 149.144 24.0969 149.144ZM24.0969 147.996C24.4719 147.996 24.7713 147.808 24.995 147.431C25.2188 147.054 25.3295 146.488 25.3274 145.734C25.3274 145.237 25.2763 144.824 25.174 144.494C25.0739 144.163 24.9311 143.915 24.7457 143.749C24.5625 143.583 24.3462 143.5 24.0969 143.5C23.7241 143.5 23.4258 143.686 23.2021 144.059C22.9783 144.432 22.8654 144.99 22.8633 145.734C22.8633 146.237 22.9134 146.656 23.0135 146.993C23.1158 147.327 23.2596 147.579 23.445 147.747C23.6303 147.913 23.8477 147.996 24.0969 147.996ZM31.7442 148.092L27.925 144.279L28.7623 143.433L32.5848 147.255L31.7442 148.092ZM28.7623 148.092L27.925 147.255L31.7442 143.433L32.5848 144.279L28.7623 148.092ZM36.4104 149.144C35.8607 149.142 35.3877 149.006 34.9914 148.738C34.5972 148.469 34.2936 148.081 34.0805 147.571C33.8696 147.062 33.7652 146.45 33.7673 145.734C33.7673 145.02 33.8728 144.412 34.0837 143.909C34.2968 143.406 34.6004 143.023 34.9946 142.761C35.3909 142.497 35.8628 142.365 36.4104 142.365C36.958 142.365 37.4289 142.497 37.8231 142.761C38.2194 143.026 38.5241 143.409 38.7371 143.912C38.9502 144.413 39.0557 145.02 39.0535 145.734C39.0535 146.452 38.947 147.065 38.7339 147.575C38.523 148.084 38.2204 148.473 37.8263 148.741C37.4321 149.01 36.9601 149.144 36.4104 149.144ZM36.4104 147.996C36.7854 147.996 37.0848 147.808 37.3085 147.431C37.5322 147.054 37.643 146.488 37.6409 145.734C37.6409 145.237 37.5898 144.824 37.4875 144.494C37.3873 144.163 37.2446 143.915 37.0592 143.749C36.876 143.583 36.6597 143.5 36.4104 143.5C36.0376 143.5 35.7393 143.686 35.5155 144.059C35.2918 144.432 35.1789 144.99 35.1768 145.734C35.1768 146.237 35.2268 146.656 35.327 146.993C35.4292 147.327 35.5731 147.579 35.7584 147.747C35.9438 147.913 36.1611 147.996 36.4104 147.996ZM42.6067 149.144C42.057 149.142 41.584 149.006 41.1877 148.738C40.7935 148.469 40.4899 148.081 40.2768 147.571C40.0659 147.062 39.9615 146.45 39.9636 145.734C39.9636 145.02 40.0691 144.412 40.28 143.909C40.4931 143.406 40.7967 143.023 41.1909 142.761C41.5872 142.497 42.0591 142.365 42.6067 142.365C43.1543 142.365 43.6252 142.497 44.0194 142.761C44.4157 143.026 44.7203 143.409 44.9334 143.912C45.1465 144.413 45.252 145.02 45.2498 145.734C45.2498 146.452 45.1433 147.065 44.9302 147.575C44.7193 148.084 44.4167 148.473 44.0226 148.741C43.6284 149.01 43.1564 149.144 42.6067 149.144ZM42.6067 147.996C42.9817 147.996 43.2811 147.808 43.5048 147.431C43.7285 147.054 43.8393 146.488 43.8372 145.734C43.8372 145.237 43.786 144.824 43.6838 144.494C43.5836 144.163 43.4409 143.915 43.2555 143.749C43.0723 143.583 42.856 143.5 42.6067 143.5C42.2338 143.5 41.9355 143.686 41.7118 144.059C41.4881 144.432 41.3752 144.99 41.373 145.734C41.373 146.237 41.4231 146.656 41.5233 146.993C41.6255 147.327 41.7694 147.579 41.9547 147.747C42.1401 147.913 42.3574 147.996 42.6067 147.996ZM48.803 149.144C48.2533 149.142 47.7803 149.006 47.384 148.738C46.9898 148.469 46.6862 148.081 46.4731 147.571C46.2622 147.062 46.1578 146.45 46.1599 145.734C46.1599 145.02 46.2654 144.412 46.4763 143.909C46.6894 143.406 46.993 143.023 47.3872 142.761C47.7835 142.497 48.2554 142.365 48.803 142.365C49.3506 142.365 49.8215 142.497 50.2156 142.761C50.6119 143.026 50.9166 143.409 51.1297 143.912C51.3428 144.413 51.4482 145.02 51.4461 145.734C51.4461 146.452 51.3396 147.065 51.1265 147.575C50.9156 148.084 50.613 148.473 50.2188 148.741C49.8247 149.01 49.3527 149.144 48.803 149.144ZM48.803 147.996C49.178 147.996 49.4774 147.808 49.7011 147.431C49.9248 147.054 50.0356 146.488 50.0335 145.734C50.0335 145.237 49.9823 144.824 49.8801 144.494C49.7799 144.163 49.6372 143.915 49.4518 143.749C49.2686 143.583 49.0523 143.5 48.803 143.5C48.4301 143.5 48.1318 143.686 47.9081 144.059C47.6844 144.432 47.5715 144.99 47.5693 145.734C47.5693 146.237 47.6194 146.656 47.7195 146.993C47.8218 147.327 47.9656 147.579 48.151 147.747C48.3364 147.913 48.5537 147.996 48.803 147.996ZM54.9993 149.144C54.4496 149.142 53.9766 149.006 53.5803 148.738C53.1861 148.469 52.8825 148.081 52.6694 147.571C52.4585 147.062 52.354 146.45 52.3562 145.734C52.3562 145.02 52.4616 144.412 52.6726 143.909C52.8857 143.406 53.1893 143.023 53.5835 142.761C53.9798 142.497 54.4517 142.365 54.9993 142.365C55.5469 142.365 56.0178 142.497 56.4119 142.761C56.8082 143.026 57.1129 143.409 57.326 143.912C57.5391 144.413 57.6445 145.02 57.6424 145.734C57.6424 146.452 57.5359 147.065 57.3228 147.575C57.1119 148.084 56.8093 148.473 56.4151 148.741C56.021 149.01 55.549 149.144 54.9993 149.144ZM54.9993 147.996C55.3743 147.996 55.6737 147.808 55.8974 147.431C56.1211 147.054 56.2319 146.488 56.2298 145.734C56.2298 145.237 56.1786 144.824 56.0763 144.494C55.9762 144.163 55.8335 143.915 55.6481 143.749C55.4648 143.583 55.2486 143.5 54.9993 143.5C54.6264 143.5 54.3281 143.686 54.1044 144.059C53.8807 144.432 53.7678 144.99 53.7656 145.734C53.7656 146.237 53.8157 146.656 53.9158 146.993C54.0181 147.327 54.1619 147.579 54.3473 147.747C54.5327 147.913 54.75 147.996 54.9993 147.996ZM61.4768 142.455V149H60.093V143.768H60.0546L58.5557 144.708V143.48L60.176 142.455H61.4768ZM65.4519 149.089C64.9746 149.089 64.5495 149.007 64.1767 148.843C63.8059 148.677 63.513 148.449 63.2978 148.159C63.0847 147.868 62.975 147.531 62.9686 147.15H64.362C64.3706 147.309 64.4228 147.45 64.5186 147.571C64.6167 147.691 64.7466 147.783 64.9086 147.849C65.0705 147.915 65.2527 147.949 65.4551 147.949C65.666 147.949 65.8525 147.911 66.0144 147.837C66.1763 147.762 66.3031 147.659 66.3947 147.527C66.4863 147.395 66.5321 147.242 66.5321 147.07C66.5321 146.895 66.4831 146.74 66.3851 146.606C66.2892 146.47 66.1507 146.363 65.9696 146.287C65.7907 146.21 65.5776 146.172 65.3304 146.172H64.72V145.155H65.3304C65.5392 145.155 65.7235 145.119 65.8833 145.047C66.0453 144.974 66.171 144.874 66.2605 144.746C66.35 144.616 66.3947 144.465 66.3947 144.292C66.3947 144.128 66.3553 143.984 66.2765 143.861C66.1998 143.735 66.0911 143.637 65.9505 143.567C65.812 143.496 65.65 143.461 65.4647 143.461C65.2772 143.461 65.1056 143.495 64.9501 143.564C64.7946 143.63 64.6699 143.724 64.5762 143.848C64.4824 143.972 64.4324 144.116 64.426 144.283H63.0996C63.106 143.906 63.2136 143.573 63.4224 143.286C63.6312 142.998 63.9125 142.773 64.2662 142.611C64.622 142.447 65.0236 142.365 65.4711 142.365C65.9228 142.365 66.318 142.447 66.6568 142.611C66.9956 142.775 67.2587 142.997 67.4462 143.276C67.6358 143.553 67.7296 143.864 67.7275 144.209C67.7296 144.576 67.6156 144.881 67.3855 145.126C67.1575 145.371 66.8603 145.527 66.4938 145.593V145.644C66.9753 145.706 67.3418 145.873 67.5932 146.146C67.8468 146.417 67.9725 146.755 67.9703 147.162C67.9725 147.535 67.8649 147.866 67.6476 148.156C67.4324 148.446 67.1351 148.674 66.7559 148.84C66.3766 149.006 65.9419 149.089 65.4519 149.089ZM71.3845 149.089C70.9072 149.089 70.4822 149.007 70.1093 148.843C69.7385 148.677 69.4456 148.449 69.2304 148.159C69.0173 147.868 68.9076 147.531 68.9012 147.15H70.2947C70.3032 147.309 70.3554 147.45 70.4513 147.571C70.5493 147.691 70.6792 147.783 70.8412 147.849C71.0031 147.915 71.1853 147.949 71.3877 147.949C71.5986 147.949 71.7851 147.911 71.947 147.837C72.1089 147.762 72.2357 147.659 72.3273 147.527C72.4189 147.395 72.4648 147.242 72.4648 147.07C72.4648 146.895 72.4157 146.74 72.3177 146.606C72.2219 146.47 72.0834 146.363 71.9023 146.287C71.7233 146.21 71.5102 146.172 71.2631 146.172H70.6526V145.155H71.2631C71.4719 145.155 71.6562 145.119 71.816 145.047C71.9779 144.974 72.1036 144.874 72.1931 144.746C72.2826 144.616 72.3273 144.465 72.3273 144.292C72.3273 144.128 72.2879 143.984 72.2091 143.861C72.1324 143.735 72.0237 143.637 71.8831 143.567C71.7446 143.496 71.5827 143.461 71.3973 143.461C71.2098 143.461 71.0383 143.495 70.8827 143.564C70.7272 143.63 70.6025 143.724 70.5088 143.848C70.415 143.972 70.365 144.116 70.3586 144.283H69.0322C69.0386 143.906 69.1462 143.573 69.355 143.286C69.5638 142.998 69.8451 142.773 70.1988 142.611C70.5546 142.447 70.9562 142.365 71.4037 142.365C71.8554 142.365 72.2506 142.447 72.5894 142.611C72.9282 142.775 73.1913 142.997 73.3788 143.276C73.5684 143.553 73.6622 143.864 73.6601 144.209C73.6622 144.576 73.5482 144.881 73.3181 145.126C73.0901 145.371 72.7929 145.527 72.4264 145.593V145.644C72.9079 145.706 73.2744 145.873 73.5258 146.146C73.7794 146.417 73.9051 146.755 73.903 147.162C73.9051 147.535 73.7975 147.866 73.5802 148.156C73.365 148.446 73.0677 148.674 72.6885 148.84C72.3092 149.006 71.8746 149.089 71.3845 149.089ZM74.8977 149V148.003L77.2276 145.846C77.4258 145.654 77.592 145.481 77.7262 145.328C77.8626 145.174 77.9659 145.024 78.0362 144.877C78.1065 144.728 78.1417 144.567 78.1417 144.395C78.1417 144.203 78.098 144.038 78.0107 143.899C77.9233 143.759 77.804 143.651 77.6527 143.576C77.5014 143.5 77.3299 143.461 77.1381 143.461C76.9379 143.461 76.7631 143.502 76.614 143.583C76.4648 143.664 76.3498 143.78 76.2688 143.931C76.1879 144.082 76.1474 144.262 76.1474 144.471H74.8338C74.8338 144.043 74.9308 143.671 75.1246 143.356C75.3185 143.04 75.5902 142.797 75.9396 142.624C76.2891 142.451 76.6918 142.365 77.1477 142.365C77.6165 142.365 78.0245 142.448 78.3718 142.614C78.7212 142.778 78.9929 143.006 79.1868 143.298C79.3807 143.59 79.4776 143.925 79.4776 144.302C79.4776 144.549 79.4286 144.793 79.3306 145.034C79.2347 145.275 79.0632 145.542 78.8161 145.836C78.5689 146.128 78.2205 146.478 77.771 146.887L76.8153 147.824V147.869H79.5639V149H74.8977Z" fill="black"/>
<path d="M30.0969 209.144C29.5472 209.142 29.0742 209.006 28.6779 208.738C28.2837 208.469 27.9801 208.081 27.767 207.571C27.5561 207.062 27.4517 206.45 27.4538 205.734C27.4538 205.02 27.5593 204.412 27.7702 203.909C27.9833 203.406 28.2869 203.023 28.6811 202.761C29.0774 202.497 29.5494 202.365 30.0969 202.365C30.6445 202.365 31.1154 202.497 31.5096 202.761C31.9059 203.026 32.2106 203.409 32.4237 203.912C32.6367 204.413 32.7422 205.02 32.7401 205.734C32.7401 206.452 32.6335 207.065 32.4205 207.575C32.2095 208.084 31.907 208.473 31.5128 208.741C31.1186 209.01 30.6467 209.144 30.0969 209.144ZM30.0969 207.996C30.4719 207.996 30.7713 207.808 30.995 207.431C31.2188 207.054 31.3295 206.488 31.3274 205.734C31.3274 205.237 31.2763 204.824 31.174 204.494C31.0739 204.163 30.9311 203.915 30.7457 203.749C30.5625 203.583 30.3462 203.5 30.0969 203.5C29.7241 203.5 29.4258 203.686 29.2021 204.059C28.9783 204.432 28.8654 204.99 28.8633 205.734C28.8633 206.237 28.9134 206.656 29.0135 206.993C29.1158 207.327 29.2596 207.579 29.445 207.747C29.6303 207.913 29.8477 207.996 30.0969 207.996ZM34.8774 204.091L35.7787 205.807L36.7023 204.091H38.099L36.6768 206.545L38.1373 209H36.7471L35.7787 207.303L34.8263 209H33.42L34.8774 206.545L33.4711 204.091H34.8774ZM38.9331 209V202.455H43.267V203.596H40.317V205.155H42.9793V206.296H40.317V209H38.9331ZM44.1978 209V202.455H48.5316V203.596H45.5817V205.155H48.244V206.296H45.5817V209H44.1978ZM49.4624 209V202.455H53.7963V203.596H50.8463V205.155H53.5086V206.296H50.8463V209H49.4624ZM54.7271 209V202.455H59.0609V203.596H56.111V205.155H58.7733V206.296H56.111V209H54.7271ZM59.9917 209V202.455H64.3256V203.596H61.3756V205.155H64.0379V206.296H61.3756V209H59.9917ZM65.2564 209V202.455H69.5902V203.596H66.6403V205.155H69.3026V206.296H66.6403V209H65.2564ZM70.521 209V202.455H74.8548V203.596H71.9049V205.155H74.5672V206.296H71.9049V209H70.521ZM75.7857 209V202.455H80.1195V203.596H77.1696V205.155H79.8319V206.296H77.1696V209H75.7857Z" fill="black"/>
<path d="M243.603 84.313H246.888V89.713H243.603V84.313ZM245.781 85.249H244.719V88.786H245.781V85.249ZM249.381 83.458H250.524V91.792H249.381V83.458ZM246.285 86.491H248.157V87.454H246.285V86.491ZM247.689 83.593H248.805V91.423H247.689V83.593ZM251.648 89.857H259.199V90.829H251.648V89.857ZM254.816 88.021H256.004V90.091H254.816V88.021ZM252.44 84.079H258.371V88.174H252.44V84.079ZM257.192 85.024H253.619V87.22H257.192V85.024ZM265.661 83.449H266.867V91.81H265.661V83.449ZM260.378 88.894H261.116C261.608 88.894 262.073 88.888 262.511 88.876C262.949 88.858 263.378 88.831 263.798 88.795C264.218 88.753 264.647 88.693 265.085 88.615L265.211 89.578C264.539 89.698 263.876 89.779 263.222 89.821C262.574 89.857 261.872 89.875 261.116 89.875H260.378V88.894ZM260.36 84.16H264.293V87.391H261.593V89.263H260.378V86.446H263.078V85.123H260.36V84.16ZM273.647 84.745H275.024V85.69H273.647V84.745ZM271.757 83.782H272.666V84.304C272.666 84.802 272.603 85.282 272.477 85.744C272.357 86.206 272.162 86.62 271.892 86.986C271.628 87.346 271.277 87.631 270.839 87.841L270.173 86.95C270.557 86.77 270.863 86.542 271.091 86.266C271.325 85.984 271.493 85.675 271.595 85.339C271.703 84.997 271.757 84.652 271.757 84.304V83.782ZM272.009 83.782H272.909V84.322C272.909 84.658 272.957 84.982 273.053 85.294C273.149 85.6 273.302 85.876 273.512 86.122C273.722 86.368 273.998 86.563 274.34 86.707L273.746 87.616C273.314 87.43 272.972 87.172 272.72 86.842C272.468 86.512 272.285 86.131 272.171 85.699C272.063 85.267 272.009 84.808 272.009 84.322V83.782ZM276.248 83.467H277.391V87.805H276.248V83.467ZM274.592 83.584H275.708V87.76H274.592V83.584ZM271.721 88.102H277.391V90.334H272.927V91.342H271.739V89.47H276.212V89.029H271.721V88.102ZM271.739 90.811H277.661V91.747H271.739V90.811Z" fill="black"/>
<path d="M149.603 236.313H152.888V241.713H149.603V236.313ZM151.781 237.249H150.719V240.786H151.781V237.249ZM155.381 235.458H156.524V243.792H155.381V235.458ZM152.285 238.491H154.157V239.454H152.285V238.491ZM153.689 235.593H154.805V243.423H153.689V235.593ZM157.648 241.857H165.199V242.829H157.648V241.857ZM160.816 240.021H162.004V242.091H160.816V240.021ZM158.44 236.079H164.371V240.174H158.44V236.079ZM163.192 237.024H159.619V239.22H163.192V237.024ZM171.661 235.449H172.867V243.81H171.661V235.449ZM166.378 240.894H167.116C167.608 240.894 168.073 240.888 168.511 240.876C168.949 240.858 169.378 240.831 169.798 240.795C170.218 240.753 170.647 240.693 171.085 240.615L171.211 241.578C170.539 241.698 169.876 241.779 169.222 241.821C168.574 241.857 167.872 241.875 167.116 241.875H166.378V240.894ZM166.36 236.16H170.293V239.391H167.593V241.263H166.378V238.446H169.078V237.123H166.36V236.16Z" fill="black"/>
</svg>
