<svg width="314" height="323" viewBox="0 0 314 323" fill="none" xmlns="http://www.w3.org/2000/svg">
<rect x="132.15" y="21.15" width="149.7" height="29.7" stroke="black" stroke-width="0.3"/>
<rect x="132.15" y="51.15" width="149.7" height="29.7" stroke="black" stroke-width="0.3"/>
<path d="M207.339 62.0831C207.128 62.0831 206.947 62.0085 206.796 61.8594C206.647 61.7081 206.572 61.527 206.572 61.3161C206.572 61.1072 206.647 60.9283 206.796 60.7791C206.947 60.63 207.128 60.5554 207.339 60.5554C207.544 60.5554 207.723 60.63 207.876 60.7791C208.029 60.9283 208.106 61.1072 208.106 61.3161C208.106 61.4567 208.07 61.5856 207.998 61.7028C207.927 61.8178 207.835 61.9105 207.719 61.9808C207.604 62.049 207.478 62.0831 207.339 62.0831ZM207.339 66.0831C207.128 66.0831 206.947 66.0085 206.796 65.8594C206.647 65.7081 206.572 65.527 206.572 65.3161C206.572 65.1072 206.647 64.9283 206.796 64.7791C206.947 64.63 207.128 64.5554 207.339 64.5554C207.544 64.5554 207.723 64.63 207.876 64.7791C208.029 64.9283 208.106 65.1072 208.106 65.3161C208.106 65.4567 208.07 65.5856 207.998 65.7028C207.927 65.8178 207.835 65.9105 207.719 65.9808C207.604 66.049 207.478 66.0831 207.339 66.0831ZM207.339 70.0831C207.128 70.0831 206.947 70.0085 206.796 69.8594C206.647 69.7081 206.572 69.527 206.572 69.3161C206.572 69.1072 206.647 68.9283 206.796 68.7791C206.947 68.63 207.128 68.5554 207.339 68.5554C207.544 68.5554 207.723 68.63 207.876 68.7791C208.029 68.9283 208.106 69.1072 208.106 69.3161C208.106 69.4567 208.07 69.5856 207.998 69.7028C207.927 69.8178 207.835 69.9105 207.719 69.9808C207.604 70.049 207.478 70.0831 207.339 70.0831Z" fill="black"/>
<rect x="132.15" y="81.15" width="149.7" height="29.7" fill="#FF8E1D"/>
<rect x="132.15" y="81.15" width="149.7" height="29.7" stroke="black" stroke-width="0.3"/>
<path d="M187.691 96.9098V94.0909H189.053V99H187.746V98.1083H187.695C187.584 98.396 187.4 98.6271 187.142 98.8018C186.886 98.9766 186.574 99.0639 186.205 99.0639C185.877 99.0639 185.588 98.9893 185.339 98.8402C185.09 98.6911 184.895 98.479 184.754 98.2042C184.616 97.9293 184.545 97.6001 184.543 97.2166V94.0909H185.905V96.9737C185.907 97.2635 185.985 97.4925 186.138 97.6609C186.292 97.8292 186.497 97.9134 186.755 97.9134C186.919 97.9134 187.072 97.8761 187.215 97.8015C187.358 97.7248 187.473 97.6119 187.56 97.4627C187.65 97.3136 187.694 97.1293 187.691 96.9098ZM191.503 96.1619V99H190.142V94.0909H191.44V94.957H191.497C191.606 94.6715 191.788 94.4457 192.044 94.2795C192.299 94.1112 192.609 94.027 192.974 94.027C193.315 94.027 193.612 94.1016 193.865 94.2507C194.119 94.3999 194.316 94.6129 194.457 94.8899C194.597 95.1648 194.668 95.4929 194.668 95.8743V99H193.306V96.1172C193.308 95.8168 193.231 95.5824 193.076 95.4141C192.92 95.2436 192.706 95.1584 192.434 95.1584C192.25 95.1584 192.088 95.1978 191.948 95.2766C191.809 95.3555 191.701 95.4705 191.622 95.6218C191.545 95.771 191.506 95.951 191.503 96.1619ZM197.55 99.0799C197.177 99.0799 196.839 98.984 196.536 98.7923C196.236 98.5984 195.997 98.3139 195.82 97.9389C195.646 97.5618 195.558 97.0994 195.558 96.5518C195.558 95.9893 195.649 95.5217 195.83 95.1488C196.011 94.7738 196.252 94.4936 196.552 94.3082C196.855 94.1207 197.186 94.027 197.546 94.027C197.821 94.027 198.05 94.0739 198.233 94.1676C198.419 94.2592 198.568 94.3743 198.681 94.5128C198.796 94.6491 198.883 94.7834 198.943 94.9155H198.985V92.4545H200.343V99H199.001V98.2138H198.943C198.879 98.3501 198.789 98.4854 198.671 98.6197C198.556 98.7518 198.406 98.8615 198.221 98.9489C198.037 99.0362 197.814 99.0799 197.55 99.0799ZM197.981 97.9964C198.2 97.9964 198.386 97.9368 198.537 97.8175C198.691 97.696 198.808 97.5266 198.889 97.3093C198.972 97.092 199.013 96.8374 199.013 96.5455C199.013 96.2536 198.973 96 198.892 95.7848C198.811 95.5696 198.694 95.4034 198.54 95.2862C198.387 95.169 198.2 95.1104 197.981 95.1104C197.757 95.1104 197.569 95.1712 197.415 95.2926C197.262 95.4141 197.146 95.5824 197.067 95.7976C196.988 96.0128 196.949 96.2621 196.949 96.5455C196.949 96.831 196.988 97.0835 197.067 97.3029C197.148 97.5202 197.264 97.6907 197.415 97.8143C197.569 97.9357 197.757 97.9964 197.981 97.9964ZM203.699 99.0959C203.195 99.0959 202.76 98.9936 202.396 98.7891C202.033 98.5824 201.754 98.2905 201.558 97.9134C201.362 97.5341 201.264 97.0856 201.264 96.5678C201.264 96.0629 201.362 95.6197 201.558 95.2383C201.754 94.8569 202.03 94.5597 202.386 94.3466C202.744 94.1335 203.164 94.027 203.645 94.027C203.969 94.027 204.271 94.0792 204.55 94.1836C204.831 94.2859 205.076 94.4403 205.285 94.647C205.496 94.8537 205.66 95.1136 205.777 95.4268C205.894 95.7379 205.953 96.1023 205.953 96.5199V96.8938H201.807V96.0501H204.671C204.671 95.854 204.628 95.6804 204.543 95.5291C204.458 95.3778 204.34 95.2596 204.188 95.1744C204.039 95.087 203.866 95.0433 203.668 95.0433C203.461 95.0433 203.278 95.0913 203.118 95.1871C202.96 95.2809 202.837 95.4077 202.747 95.5675C202.658 95.7251 202.612 95.9009 202.61 96.0948V96.897C202.61 97.1399 202.654 97.3498 202.744 97.5266C202.835 97.7035 202.964 97.8398 203.131 97.9357C203.297 98.0316 203.494 98.0795 203.722 98.0795C203.873 98.0795 204.012 98.0582 204.137 98.0156C204.263 97.973 204.371 97.9091 204.46 97.8239C204.55 97.7386 204.618 97.6342 204.665 97.5107L205.924 97.5938C205.86 97.8963 205.729 98.1605 205.531 98.3864C205.335 98.6101 205.081 98.7848 204.77 98.9105C204.461 99.0341 204.104 99.0959 203.699 99.0959ZM209.481 94.0909V95.1136H206.451V94.0909H209.481ZM207.145 99V93.7362C207.145 93.3803 207.214 93.0852 207.353 92.8509C207.493 92.6165 207.685 92.4407 207.928 92.3235C208.171 92.2063 208.447 92.1477 208.756 92.1477C208.964 92.1477 209.155 92.1637 209.328 92.1957C209.502 92.2276 209.632 92.2564 209.718 92.282L209.475 93.3047C209.421 93.2876 209.355 93.2717 209.277 93.2567C209.2 93.2418 209.121 93.2344 209.04 93.2344C208.84 93.2344 208.7 93.2812 208.621 93.375C208.543 93.4666 208.503 93.5955 208.503 93.7617V99H207.145ZM210.313 99V94.0909H211.674V99H210.313ZM210.997 93.4581C210.794 93.4581 210.621 93.391 210.476 93.2567C210.333 93.1204 210.262 92.9574 210.262 92.7678C210.262 92.5803 210.333 92.4194 210.476 92.2852C210.621 92.1488 210.794 92.0806 210.997 92.0806C211.199 92.0806 211.372 92.1488 211.515 92.2852C211.659 92.4194 211.732 92.5803 211.732 92.7678C211.732 92.9574 211.659 93.1204 211.515 93.2567C211.372 93.391 211.199 93.4581 210.997 93.4581ZM214.127 96.1619V99H212.765V94.0909H214.063V94.957H214.12C214.229 94.6715 214.411 94.4457 214.667 94.2795C214.922 94.1112 215.232 94.027 215.597 94.027C215.938 94.027 216.235 94.1016 216.488 94.2507C216.742 94.3999 216.939 94.6129 217.08 94.8899C217.22 95.1648 217.291 95.4929 217.291 95.8743V99H215.929V96.1172C215.931 95.8168 215.854 95.5824 215.699 95.4141C215.543 95.2436 215.329 95.1584 215.057 95.1584C214.873 95.1584 214.711 95.1978 214.571 95.2766C214.432 95.3555 214.324 95.4705 214.245 95.6218C214.168 95.771 214.129 95.951 214.127 96.1619ZM220.601 99.0959C220.096 99.0959 219.661 98.9936 219.297 98.7891C218.935 98.5824 218.656 98.2905 218.46 97.9134C218.263 97.5341 218.165 97.0856 218.165 96.5678C218.165 96.0629 218.263 95.6197 218.46 95.2383C218.656 94.8569 218.931 94.5597 219.287 94.3466C219.645 94.1335 220.065 94.027 220.547 94.027C220.87 94.027 221.172 94.0792 221.451 94.1836C221.732 94.2859 221.977 94.4403 222.186 94.647C222.397 94.8537 222.561 95.1136 222.678 95.4268C222.795 95.7379 222.854 96.1023 222.854 96.5199V96.8938H218.709V96.0501H221.572C221.572 95.854 221.53 95.6804 221.445 95.5291C221.359 95.3778 221.241 95.2596 221.09 95.1744C220.941 95.087 220.767 95.0433 220.569 95.0433C220.362 95.0433 220.179 95.0913 220.019 95.1871C219.862 95.2809 219.738 95.4077 219.648 95.5675C219.559 95.7251 219.513 95.9009 219.511 96.0948V96.897C219.511 97.1399 219.556 97.3498 219.645 97.5266C219.737 97.7035 219.866 97.8398 220.032 97.9357C220.198 98.0316 220.395 98.0795 220.623 98.0795C220.775 98.0795 220.913 98.0582 221.039 98.0156C221.164 97.973 221.272 97.9091 221.362 97.8239C221.451 97.7386 221.519 97.6342 221.566 97.5107L222.825 97.5938C222.761 97.8963 222.63 98.1605 222.432 98.3864C222.236 98.6101 221.983 98.7848 221.672 98.9105C221.363 99.0341 221.006 99.0959 220.601 99.0959ZM225.551 99.0799C225.179 99.0799 224.841 98.984 224.538 98.7923C224.238 98.5984 223.999 98.3139 223.822 97.9389C223.648 97.5618 223.56 97.0994 223.56 96.5518C223.56 95.9893 223.651 95.5217 223.832 95.1488C224.013 94.7738 224.254 94.4936 224.554 94.3082C224.857 94.1207 225.188 94.027 225.548 94.027C225.823 94.027 226.052 94.0739 226.235 94.1676C226.421 94.2592 226.57 94.3743 226.683 94.5128C226.798 94.6491 226.885 94.7834 226.945 94.9155H226.987V92.4545H228.345V99H227.002V98.2138H226.945C226.881 98.3501 226.79 98.4854 226.673 98.6197C226.558 98.7518 226.408 98.8615 226.223 98.9489C226.039 99.0362 225.816 99.0799 225.551 99.0799ZM225.983 97.9964C226.202 97.9964 226.388 97.9368 226.539 97.8175C226.692 97.696 226.81 97.5266 226.891 97.3093C226.974 97.092 227.015 96.8374 227.015 96.5455C227.015 96.2536 226.975 96 226.894 95.7848C226.813 95.5696 226.696 95.4034 226.542 95.2862C226.389 95.169 226.202 95.1104 225.983 95.1104C225.759 95.1104 225.571 95.1712 225.417 95.2926C225.264 95.4141 225.148 95.5824 225.069 95.7976C224.99 96.0128 224.951 96.2621 224.951 96.5455C224.951 96.831 224.99 97.0835 225.069 97.3029C225.15 97.5202 225.266 97.6907 225.417 97.8143C225.571 97.9357 225.759 97.9964 225.983 97.9964Z" fill="black"/>
<rect x="132.15" y="111.15" width="149.7" height="29.7" stroke="black" stroke-width="0.3"/>
<path d="M207.339 122.083C207.128 122.083 206.947 122.009 206.796 121.859C206.647 121.708 206.572 121.527 206.572 121.316C206.572 121.107 206.647 120.928 206.796 120.779C206.947 120.63 207.128 120.555 207.339 120.555C207.544 120.555 207.723 120.63 207.876 120.779C208.029 120.928 208.106 121.107 208.106 121.316C208.106 121.457 208.07 121.586 207.998 121.703C207.927 121.818 207.835 121.911 207.719 121.981C207.604 122.049 207.478 122.083 207.339 122.083ZM207.339 126.083C207.128 126.083 206.947 126.009 206.796 125.859C206.647 125.708 206.572 125.527 206.572 125.316C206.572 125.107 206.647 124.928 206.796 124.779C206.947 124.63 207.128 124.555 207.339 124.555C207.544 124.555 207.723 124.63 207.876 124.779C208.029 124.928 208.106 125.107 208.106 125.316C208.106 125.457 208.07 125.586 207.998 125.703C207.927 125.818 207.835 125.911 207.719 125.981C207.604 126.049 207.478 126.083 207.339 126.083ZM207.339 130.083C207.128 130.083 206.947 130.009 206.796 129.859C206.647 129.708 206.572 129.527 206.572 129.316C206.572 129.107 206.647 128.928 206.796 128.779C206.947 128.63 207.128 128.555 207.339 128.555C207.544 128.555 207.723 128.63 207.876 128.779C208.029 128.928 208.106 129.107 208.106 129.316C208.106 129.457 208.07 129.586 207.998 129.703C207.927 129.818 207.835 129.911 207.719 129.981C207.604 130.049 207.478 130.083 207.339 130.083Z" fill="black"/>
<rect x="132.15" y="141.15" width="149.7" height="29.7" fill="white"/>
<rect x="132.15" y="141.15" width="149.7" height="29.7" stroke="black" stroke-width="0.3"/>
<rect x="132.15" y="171.15" width="149.7" height="29.7" stroke="black" stroke-width="0.3"/>
<rect x="132.15" y="201.15" width="149.7" height="29.7" stroke="black" stroke-width="0.3"/>
<rect x="132.15" y="231.15" width="149.7" height="29.7" stroke="black" stroke-width="0.3"/>
<rect x="132.15" y="261.15" width="149.7" height="29.7" stroke="black" stroke-width="0.3"/>
<path d="M66.0969 34.1438C65.5472 34.1417 65.0742 34.0064 64.6779 33.7379C64.2837 33.4695 63.9801 33.0806 63.767 32.5714C63.5561 32.0621 63.4517 31.4496 63.4538 30.7337C63.4538 30.0199 63.5593 29.4116 63.7702 28.9087C63.9833 28.4059 64.2869 28.0234 64.6811 27.7614C65.0774 27.4972 65.5494 27.3651 66.0969 27.3651C66.6445 27.3651 67.1154 27.4972 67.5096 27.7614C67.9059 28.0256 68.2106 28.4091 68.4237 28.9119C68.6367 29.4126 68.7422 30.0199 68.7401 30.7337C68.7401 31.4517 68.6335 32.0653 68.4205 32.5746C68.2095 33.0838 67.907 33.4727 67.5128 33.7411C67.1186 34.0096 66.6467 34.1438 66.0969 34.1438ZM66.0969 32.9964C66.4719 32.9964 66.7713 32.8079 66.995 32.4308C67.2188 32.0536 67.3295 31.4879 67.3274 30.7337C67.3274 30.2372 67.2763 29.8239 67.174 29.4936C67.0739 29.1634 66.9311 28.9151 66.7457 28.7489C66.5625 28.5827 66.3462 28.4996 66.0969 28.4996C65.7241 28.4996 65.4258 28.6861 65.2021 29.0589C64.9783 29.4318 64.8654 29.9901 64.8633 30.7337C64.8633 31.2365 64.9134 31.6562 65.0135 31.9929C65.1158 32.3274 65.2596 32.5788 65.445 32.7472C65.6303 32.9134 65.8477 32.9964 66.0969 32.9964ZM73.7442 33.0923L69.925 29.2795L70.7623 28.4325L74.5848 32.255L73.7442 33.0923ZM70.7623 33.0923L69.925 32.255L73.7442 28.4325L74.5848 29.2795L70.7623 33.0923ZM78.4104 34.1438C77.8607 34.1417 77.3877 34.0064 76.9914 33.7379C76.5972 33.4695 76.2936 33.0806 76.0805 32.5714C75.8696 32.0621 75.7652 31.4496 75.7673 30.7337C75.7673 30.0199 75.8728 29.4116 76.0837 28.9087C76.2968 28.4059 76.6004 28.0234 76.9946 27.7614C77.3909 27.4972 77.8628 27.3651 78.4104 27.3651C78.958 27.3651 79.4289 27.4972 79.8231 27.7614C80.2194 28.0256 80.5241 28.4091 80.7371 28.9119C80.9502 29.4126 81.0557 30.0199 81.0535 30.7337C81.0535 31.4517 80.947 32.0653 80.7339 32.5746C80.523 33.0838 80.2204 33.4727 79.8263 33.7411C79.4321 34.0096 78.9601 34.1438 78.4104 34.1438ZM78.4104 32.9964C78.7854 32.9964 79.0848 32.8079 79.3085 32.4308C79.5322 32.0536 79.643 31.4879 79.6409 30.7337C79.6409 30.2372 79.5898 29.8239 79.4875 29.4936C79.3873 29.1634 79.2446 28.9151 79.0592 28.7489C78.876 28.5827 78.6597 28.4996 78.4104 28.4996C78.0376 28.4996 77.7393 28.6861 77.5155 29.0589C77.2918 29.4318 77.1789 29.9901 77.1768 30.7337C77.1768 31.2365 77.2268 31.6562 77.327 31.9929C77.4292 32.3274 77.5731 32.5788 77.7584 32.7472C77.9438 32.9134 78.1611 32.9964 78.4104 32.9964ZM84.6067 34.1438C84.057 34.1417 83.584 34.0064 83.1877 33.7379C82.7935 33.4695 82.4899 33.0806 82.2768 32.5714C82.0659 32.0621 81.9615 31.4496 81.9636 30.7337C81.9636 30.0199 82.0691 29.4116 82.28 28.9087C82.4931 28.4059 82.7967 28.0234 83.1909 27.7614C83.5872 27.4972 84.0591 27.3651 84.6067 27.3651C85.1543 27.3651 85.6252 27.4972 86.0194 27.7614C86.4157 28.0256 86.7203 28.4091 86.9334 28.9119C87.1465 29.4126 87.252 30.0199 87.2498 30.7337C87.2498 31.4517 87.1433 32.0653 86.9302 32.5746C86.7193 33.0838 86.4167 33.4727 86.0226 33.7411C85.6284 34.0096 85.1564 34.1438 84.6067 34.1438ZM84.6067 32.9964C84.9817 32.9964 85.2811 32.8079 85.5048 32.4308C85.7285 32.0536 85.8393 31.4879 85.8372 30.7337C85.8372 30.2372 85.786 29.8239 85.6838 29.4936C85.5836 29.1634 85.4409 28.9151 85.2555 28.7489C85.0723 28.5827 84.856 28.4996 84.6067 28.4996C84.2338 28.4996 83.9355 28.6861 83.7118 29.0589C83.4881 29.4318 83.3752 29.9901 83.373 30.7337C83.373 31.2365 83.4231 31.6562 83.5233 31.9929C83.6255 32.3274 83.7694 32.5788 83.9547 32.7472C84.1401 32.9134 84.3574 32.9964 84.6067 32.9964ZM90.803 34.1438C90.2533 34.1417 89.7803 34.0064 89.384 33.7379C88.9898 33.4695 88.6862 33.0806 88.4731 32.5714C88.2622 32.0621 88.1578 31.4496 88.1599 30.7337C88.1599 30.0199 88.2654 29.4116 88.4763 28.9087C88.6894 28.4059 88.993 28.0234 89.3872 27.7614C89.7835 27.4972 90.2554 27.3651 90.803 27.3651C91.3506 27.3651 91.8215 27.4972 92.2156 27.7614C92.6119 28.0256 92.9166 28.4091 93.1297 28.9119C93.3428 29.4126 93.4482 30.0199 93.4461 30.7337C93.4461 31.4517 93.3396 32.0653 93.1265 32.5746C92.9156 33.0838 92.613 33.4727 92.2188 33.7411C91.8247 34.0096 91.3527 34.1438 90.803 34.1438ZM90.803 32.9964C91.178 32.9964 91.4774 32.8079 91.7011 32.4308C91.9248 32.0536 92.0356 31.4879 92.0335 30.7337C92.0335 30.2372 91.9823 29.8239 91.8801 29.4936C91.7799 29.1634 91.6372 28.9151 91.4518 28.7489C91.2686 28.5827 91.0523 28.4996 90.803 28.4996C90.4301 28.4996 90.1318 28.6861 89.9081 29.0589C89.6844 29.4318 89.5715 29.9901 89.5693 30.7337C89.5693 31.2365 89.6194 31.6562 89.7195 31.9929C89.8218 32.3274 89.9656 32.5788 90.151 32.7472C90.3364 32.9134 90.5537 32.9964 90.803 32.9964ZM96.9993 34.1438C96.4496 34.1417 95.9766 34.0064 95.5803 33.7379C95.1861 33.4695 94.8825 33.0806 94.6694 32.5714C94.4585 32.0621 94.354 31.4496 94.3562 30.7337C94.3562 30.0199 94.4616 29.4116 94.6726 28.9087C94.8857 28.4059 95.1893 28.0234 95.5835 27.7614C95.9798 27.4972 96.4517 27.3651 96.9993 27.3651C97.5469 27.3651 98.0178 27.4972 98.4119 27.7614C98.8082 28.0256 99.1129 28.4091 99.326 28.9119C99.5391 29.4126 99.6445 30.0199 99.6424 30.7337C99.6424 31.4517 99.5359 32.0653 99.3228 32.5746C99.1119 33.0838 98.8093 33.4727 98.4151 33.7411C98.021 34.0096 97.549 34.1438 96.9993 34.1438ZM96.9993 32.9964C97.3743 32.9964 97.6737 32.8079 97.8974 32.4308C98.1211 32.0536 98.2319 31.4879 98.2298 30.7337C98.2298 30.2372 98.1786 29.8239 98.0763 29.4936C97.9762 29.1634 97.8335 28.9151 97.6481 28.7489C97.4648 28.5827 97.2486 28.4996 96.9993 28.4996C96.6264 28.4996 96.3281 28.6861 96.1044 29.0589C95.8807 29.4318 95.7678 29.9901 95.7656 30.7337C95.7656 31.2365 95.8157 31.6562 95.9158 31.9929C96.0181 32.3274 96.1619 32.5788 96.3473 32.7472C96.5327 32.9134 96.75 32.9964 96.9993 32.9964ZM103.196 34.1438C102.646 34.1417 102.173 34.0064 101.777 33.7379C101.382 33.4695 101.079 33.0806 100.866 32.5714C100.655 32.0621 100.55 31.4496 100.552 30.7337C100.552 30.0199 100.658 29.4116 100.869 28.9087C101.082 28.4059 101.386 28.0234 101.78 27.7614C102.176 27.4972 102.648 27.3651 103.196 27.3651C103.743 27.3651 104.214 27.4972 104.608 27.7614C105.005 28.0256 105.309 28.4091 105.522 28.9119C105.735 29.4126 105.841 30.0199 105.839 30.7337C105.839 31.4517 105.732 32.0653 105.519 32.5746C105.308 33.0838 105.006 33.4727 104.611 33.7411C104.217 34.0096 103.745 34.1438 103.196 34.1438ZM103.196 32.9964C103.571 32.9964 103.87 32.8079 104.094 32.4308C104.317 32.0536 104.428 31.4879 104.426 30.7337C104.426 30.2372 104.375 29.8239 104.273 29.4936C104.172 29.1634 104.03 28.9151 103.844 28.7489C103.661 28.5827 103.445 28.4996 103.196 28.4996C102.823 28.4996 102.524 28.6861 102.301 29.0589C102.077 29.4318 101.964 29.9901 101.962 30.7337C101.962 31.2365 102.012 31.6562 102.112 31.9929C102.214 32.3274 102.358 32.5788 102.544 32.7472C102.729 32.9134 102.946 32.9964 103.196 32.9964ZM109.392 34.1438C108.842 34.1417 108.369 34.0064 107.973 33.7379C107.579 33.4695 107.275 33.0806 107.062 32.5714C106.851 32.0621 106.747 31.4496 106.749 30.7337C106.749 30.0199 106.854 29.4116 107.065 28.9087C107.278 28.4059 107.582 28.0234 107.976 27.7614C108.372 27.4972 108.844 27.3651 109.392 27.3651C109.939 27.3651 110.41 27.4972 110.805 27.7614C111.201 28.0256 111.506 28.4091 111.719 28.9119C111.932 29.4126 112.037 30.0199 112.035 30.7337C112.035 31.4517 111.928 32.0653 111.715 32.5746C111.504 33.0838 111.202 33.4727 110.808 33.7411C110.414 34.0096 109.942 34.1438 109.392 34.1438ZM109.392 32.9964C109.767 32.9964 110.066 32.8079 110.29 32.4308C110.514 32.0536 110.624 31.4879 110.622 30.7337C110.622 30.2372 110.571 29.8239 110.469 29.4936C110.369 29.1634 110.226 28.9151 110.041 28.7489C109.857 28.5827 109.641 28.4996 109.392 28.4996C109.019 28.4996 108.721 28.6861 108.497 29.0589C108.273 29.4318 108.16 29.9901 108.158 30.7337C108.158 31.2365 108.208 31.6562 108.308 31.9929C108.411 32.3274 108.555 32.5788 108.74 32.7472C108.925 32.9134 109.143 32.9964 109.392 32.9964ZM115.588 34.1438C115.038 34.1417 114.565 34.0064 114.169 33.7379C113.775 33.4695 113.471 33.0806 113.258 32.5714C113.047 32.0621 112.943 31.4496 112.945 30.7337C112.945 30.0199 113.051 29.4116 113.261 28.9087C113.475 28.4059 113.778 28.0234 114.172 27.7614C114.569 27.4972 115.041 27.3651 115.588 27.3651C116.136 27.3651 116.607 27.4972 117.001 27.7614C117.397 28.0256 117.702 28.4091 117.915 28.9119C118.128 29.4126 118.233 30.0199 118.231 30.7337C118.231 31.4517 118.125 32.0653 117.912 32.5746C117.701 33.0838 117.398 33.4727 117.004 33.7411C116.61 34.0096 116.138 34.1438 115.588 34.1438ZM115.588 32.9964C115.963 32.9964 116.263 32.8079 116.486 32.4308C116.71 32.0536 116.821 31.4879 116.819 30.7337C116.819 30.2372 116.767 29.8239 116.665 29.4936C116.565 29.1634 116.422 28.9151 116.237 28.7489C116.054 28.5827 115.837 28.4996 115.588 28.4996C115.215 28.4996 114.917 28.6861 114.693 29.0589C114.47 29.4318 114.357 29.9901 114.354 30.7337C114.354 31.2365 114.405 31.6562 114.505 31.9929C114.607 32.3274 114.751 32.5788 114.936 32.7472C115.122 32.9134 115.339 32.9964 115.588 32.9964ZM121.784 34.1438C121.235 34.1417 120.762 34.0064 120.365 33.7379C119.971 33.4695 119.668 33.0806 119.455 32.5714C119.244 32.0621 119.139 31.4496 119.141 30.7337C119.141 30.0199 119.247 29.4116 119.458 28.9087C119.671 28.4059 119.974 28.0234 120.369 27.7614C120.765 27.4972 121.237 27.3651 121.784 27.3651C122.332 27.3651 122.803 27.4972 123.197 27.7614C123.593 28.0256 123.898 28.4091 124.111 28.9119C124.324 29.4126 124.43 30.0199 124.428 30.7337C124.428 31.4517 124.321 32.0653 124.108 32.5746C123.897 33.0838 123.594 33.4727 123.2 33.7411C122.806 34.0096 122.334 34.1438 121.784 34.1438ZM121.784 32.9964C122.159 32.9964 122.459 32.8079 122.683 32.4308C122.906 32.0536 123.017 31.4879 123.015 30.7337C123.015 30.2372 122.964 29.8239 122.862 29.4936C122.761 29.1634 122.619 28.9151 122.433 28.7489C122.25 28.5827 122.034 28.4996 121.784 28.4996C121.412 28.4996 121.113 28.6861 120.89 29.0589C120.666 29.4318 120.553 29.9901 120.551 30.7337C120.551 31.2365 120.601 31.6562 120.701 31.9929C120.803 32.3274 120.947 32.5788 121.132 32.7472C121.318 32.9134 121.535 32.9964 121.784 32.9964Z" fill="black"/>
<path d="M67.0969 99.1438C66.5472 99.1417 66.0742 99.0064 65.6779 98.7379C65.2837 98.4695 64.9801 98.0806 64.767 97.5714C64.5561 97.0621 64.4517 96.4496 64.4538 95.7337C64.4538 95.0199 64.5593 94.4116 64.7702 93.9087C64.9833 93.4059 65.2869 93.0234 65.6811 92.7614C66.0774 92.4972 66.5494 92.3651 67.0969 92.3651C67.6445 92.3651 68.1154 92.4972 68.5096 92.7614C68.9059 93.0256 69.2106 93.4091 69.4237 93.9119C69.6367 94.4126 69.7422 95.0199 69.7401 95.7337C69.7401 96.4517 69.6335 97.0653 69.4205 97.5746C69.2095 98.0838 68.907 98.4727 68.5128 98.7411C68.1186 99.0096 67.6467 99.1438 67.0969 99.1438ZM67.0969 97.9964C67.4719 97.9964 67.7713 97.8079 67.995 97.4308C68.2188 97.0536 68.3295 96.4879 68.3274 95.7337C68.3274 95.2372 68.2763 94.8239 68.174 94.4936C68.0739 94.1634 67.9311 93.9151 67.7457 93.7489C67.5625 93.5827 67.3462 93.4996 67.0969 93.4996C66.7241 93.4996 66.4258 93.6861 66.2021 94.0589C65.9783 94.4318 65.8654 94.9901 65.8633 95.7337C65.8633 96.2365 65.9134 96.6562 66.0135 96.9929C66.1158 97.3274 66.2596 97.5788 66.445 97.7472C66.6303 97.9134 66.8477 97.9964 67.0969 97.9964ZM74.7442 98.0923L70.925 94.2795L71.7623 93.4325L75.5848 97.255L74.7442 98.0923ZM71.7623 98.0923L70.925 97.255L74.7442 93.4325L75.5848 94.2795L71.7623 98.0923ZM79.4104 99.1438C78.8607 99.1417 78.3877 99.0064 77.9914 98.7379C77.5972 98.4695 77.2936 98.0806 77.0805 97.5714C76.8696 97.0621 76.7652 96.4496 76.7673 95.7337C76.7673 95.0199 76.8728 94.4116 77.0837 93.9087C77.2968 93.4059 77.6004 93.0234 77.9946 92.7614C78.3909 92.4972 78.8628 92.3651 79.4104 92.3651C79.958 92.3651 80.4289 92.4972 80.8231 92.7614C81.2194 93.0256 81.5241 93.4091 81.7371 93.9119C81.9502 94.4126 82.0557 95.0199 82.0535 95.7337C82.0535 96.4517 81.947 97.0653 81.7339 97.5746C81.523 98.0838 81.2204 98.4727 80.8263 98.7411C80.4321 99.0096 79.9601 99.1438 79.4104 99.1438ZM79.4104 97.9964C79.7854 97.9964 80.0848 97.8079 80.3085 97.4308C80.5322 97.0536 80.643 96.4879 80.6409 95.7337C80.6409 95.2372 80.5898 94.8239 80.4875 94.4936C80.3873 94.1634 80.2446 93.9151 80.0592 93.7489C79.876 93.5827 79.6597 93.4996 79.4104 93.4996C79.0376 93.4996 78.7393 93.6861 78.5155 94.0589C78.2918 94.4318 78.1789 94.9901 78.1768 95.7337C78.1768 96.2365 78.2268 96.6562 78.327 96.9929C78.4292 97.3274 78.5731 97.5788 78.7584 97.7472C78.9438 97.9134 79.1611 97.9964 79.4104 97.9964ZM85.6067 99.1438C85.057 99.1417 84.584 99.0064 84.1877 98.7379C83.7935 98.4695 83.4899 98.0806 83.2768 97.5714C83.0659 97.0621 82.9615 96.4496 82.9636 95.7337C82.9636 95.0199 83.0691 94.4116 83.28 93.9087C83.4931 93.4059 83.7967 93.0234 84.1909 92.7614C84.5872 92.4972 85.0591 92.3651 85.6067 92.3651C86.1543 92.3651 86.6252 92.4972 87.0194 92.7614C87.4157 93.0256 87.7203 93.4091 87.9334 93.9119C88.1465 94.4126 88.252 95.0199 88.2498 95.7337C88.2498 96.4517 88.1433 97.0653 87.9302 97.5746C87.7193 98.0838 87.4167 98.4727 87.0226 98.7411C86.6284 99.0096 86.1564 99.1438 85.6067 99.1438ZM85.6067 97.9964C85.9817 97.9964 86.2811 97.8079 86.5048 97.4308C86.7285 97.0536 86.8393 96.4879 86.8372 95.7337C86.8372 95.2372 86.786 94.8239 86.6838 94.4936C86.5836 94.1634 86.4409 93.9151 86.2555 93.7489C86.0723 93.5827 85.856 93.4996 85.6067 93.4996C85.2338 93.4996 84.9355 93.6861 84.7118 94.0589C84.4881 94.4318 84.3752 94.9901 84.373 95.7337C84.373 96.2365 84.4231 96.6562 84.5233 96.9929C84.6255 97.3274 84.7694 97.5788 84.9547 97.7472C85.1401 97.9134 85.3574 97.9964 85.6067 97.9964ZM91.803 99.1438C91.2533 99.1417 90.7803 99.0064 90.384 98.7379C89.9898 98.4695 89.6862 98.0806 89.4731 97.5714C89.2622 97.0621 89.1578 96.4496 89.1599 95.7337C89.1599 95.0199 89.2654 94.4116 89.4763 93.9087C89.6894 93.4059 89.993 93.0234 90.3872 92.7614C90.7835 92.4972 91.2554 92.3651 91.803 92.3651C92.3506 92.3651 92.8215 92.4972 93.2156 92.7614C93.6119 93.0256 93.9166 93.4091 94.1297 93.9119C94.3428 94.4126 94.4482 95.0199 94.4461 95.7337C94.4461 96.4517 94.3396 97.0653 94.1265 97.5746C93.9156 98.0838 93.613 98.4727 93.2188 98.7411C92.8247 99.0096 92.3527 99.1438 91.803 99.1438ZM91.803 97.9964C92.178 97.9964 92.4774 97.8079 92.7011 97.4308C92.9248 97.0536 93.0356 96.4879 93.0335 95.7337C93.0335 95.2372 92.9823 94.8239 92.8801 94.4936C92.7799 94.1634 92.6372 93.9151 92.4518 93.7489C92.2686 93.5827 92.0523 93.4996 91.803 93.4996C91.4301 93.4996 91.1318 93.6861 90.9081 94.0589C90.6844 94.4318 90.5715 94.9901 90.5693 95.7337C90.5693 96.2365 90.6194 96.6562 90.7195 96.9929C90.8218 97.3274 90.9656 97.5788 91.151 97.7472C91.3364 97.9134 91.5537 97.9964 91.803 97.9964ZM97.9993 99.1438C97.4496 99.1417 96.9766 99.0064 96.5803 98.7379C96.1861 98.4695 95.8825 98.0806 95.6694 97.5714C95.4585 97.0621 95.354 96.4496 95.3562 95.7337C95.3562 95.0199 95.4616 94.4116 95.6726 93.9087C95.8857 93.4059 96.1893 93.0234 96.5835 92.7614C96.9798 92.4972 97.4517 92.3651 97.9993 92.3651C98.5469 92.3651 99.0178 92.4972 99.4119 92.7614C99.8082 93.0256 100.113 93.4091 100.326 93.9119C100.539 94.4126 100.645 95.0199 100.642 95.7337C100.642 96.4517 100.536 97.0653 100.323 97.5746C100.112 98.0838 99.8093 98.4727 99.4151 98.7411C99.021 99.0096 98.549 99.1438 97.9993 99.1438ZM97.9993 97.9964C98.3743 97.9964 98.6737 97.8079 98.8974 97.4308C99.1211 97.0536 99.2319 96.4879 99.2298 95.7337C99.2298 95.2372 99.1786 94.8239 99.0763 94.4936C98.9762 94.1634 98.8335 93.9151 98.6481 93.7489C98.4648 93.5827 98.2486 93.4996 97.9993 93.4996C97.6264 93.4996 97.3281 93.6861 97.1044 94.0589C96.8807 94.4318 96.7678 94.9901 96.7656 95.7337C96.7656 96.2365 96.8157 96.6562 96.9158 96.9929C97.0181 97.3274 97.1619 97.5788 97.3473 97.7472C97.5327 97.9134 97.75 97.9964 97.9993 97.9964ZM104.196 99.1438C103.646 99.1417 103.173 99.0064 102.777 98.7379C102.382 98.4695 102.079 98.0806 101.866 97.5714C101.655 97.0621 101.55 96.4496 101.552 95.7337C101.552 95.0199 101.658 94.4116 101.869 93.9087C102.082 93.4059 102.386 93.0234 102.78 92.7614C103.176 92.4972 103.648 92.3651 104.196 92.3651C104.743 92.3651 105.214 92.4972 105.608 92.7614C106.005 93.0256 106.309 93.4091 106.522 93.9119C106.735 94.4126 106.841 95.0199 106.839 95.7337C106.839 96.4517 106.732 97.0653 106.519 97.5746C106.308 98.0838 106.006 98.4727 105.611 98.7411C105.217 99.0096 104.745 99.1438 104.196 99.1438ZM104.196 97.9964C104.571 97.9964 104.87 97.8079 105.094 97.4308C105.317 97.0536 105.428 96.4879 105.426 95.7337C105.426 95.2372 105.375 94.8239 105.273 94.4936C105.172 94.1634 105.03 93.9151 104.844 93.7489C104.661 93.5827 104.445 93.4996 104.196 93.4996C103.823 93.4996 103.524 93.6861 103.301 94.0589C103.077 94.4318 102.964 94.9901 102.962 95.7337C102.962 96.2365 103.012 96.6562 103.112 96.9929C103.214 97.3274 103.358 97.5788 103.544 97.7472C103.729 97.9134 103.946 97.9964 104.196 97.9964ZM110.392 99.1438C109.842 99.1417 109.369 99.0064 108.973 98.7379C108.579 98.4695 108.275 98.0806 108.062 97.5714C107.851 97.0621 107.747 96.4496 107.749 95.7337C107.749 95.0199 107.854 94.4116 108.065 93.9087C108.278 93.4059 108.582 93.0234 108.976 92.7614C109.372 92.4972 109.844 92.3651 110.392 92.3651C110.939 92.3651 111.41 92.4972 111.805 92.7614C112.201 93.0256 112.506 93.4091 112.719 93.9119C112.932 94.4126 113.037 95.0199 113.035 95.7337C113.035 96.4517 112.928 97.0653 112.715 97.5746C112.504 98.0838 112.202 98.4727 111.808 98.7411C111.414 99.0096 110.942 99.1438 110.392 99.1438ZM110.392 97.9964C110.767 97.9964 111.066 97.8079 111.29 97.4308C111.514 97.0536 111.624 96.4879 111.622 95.7337C111.622 95.2372 111.571 94.8239 111.469 94.4936C111.369 94.1634 111.226 93.9151 111.041 93.7489C110.857 93.5827 110.641 93.4996 110.392 93.4996C110.019 93.4996 109.721 93.6861 109.497 94.0589C109.273 94.4318 109.16 94.9901 109.158 95.7337C109.158 96.2365 109.208 96.6562 109.308 96.9929C109.411 97.3274 109.555 97.5788 109.74 97.7472C109.925 97.9134 110.143 97.9964 110.392 97.9964ZM114.06 99V92.4545H118.394V93.5955H115.444V95.1552H118.106V96.2962H115.444V99H114.06ZM119.286 99V98.0028L121.616 95.8455C121.814 95.6538 121.981 95.4812 122.115 95.3278C122.251 95.1744 122.355 95.0241 122.425 94.8771C122.495 94.728 122.53 94.5671 122.53 94.3945C122.53 94.2028 122.487 94.0376 122.399 93.8991C122.312 93.7585 122.193 93.6509 122.041 93.5763C121.89 93.4996 121.719 93.4613 121.527 93.4613C121.327 93.4613 121.152 93.5018 121.003 93.5827C120.854 93.6637 120.738 93.7798 120.657 93.9311C120.577 94.0824 120.536 94.2624 120.536 94.4712H119.222C119.222 94.043 119.319 93.6712 119.513 93.3558C119.707 93.0405 119.979 92.7965 120.328 92.6239C120.678 92.4513 121.08 92.3651 121.536 92.3651C122.005 92.3651 122.413 92.4482 122.76 92.6143C123.11 92.7784 123.382 93.0064 123.575 93.2983C123.769 93.5902 123.866 93.9247 123.866 94.3018C123.866 94.549 123.817 94.793 123.719 95.0337C123.623 95.2745 123.452 95.5419 123.205 95.8359C122.958 96.1278 122.609 96.4783 122.16 96.8874L121.204 97.8239V97.8686H123.953V99H119.286Z" fill="black"/>
<path d="M74.0969 249.144C73.5472 249.142 73.0742 249.006 72.6779 248.738C72.2837 248.469 71.9801 248.081 71.767 247.571C71.5561 247.062 71.4517 246.45 71.4538 245.734C71.4538 245.02 71.5593 244.412 71.7702 243.909C71.9833 243.406 72.2869 243.023 72.6811 242.761C73.0774 242.497 73.5494 242.365 74.0969 242.365C74.6445 242.365 75.1154 242.497 75.5096 242.761C75.9059 243.026 76.2106 243.409 76.4237 243.912C76.6367 244.413 76.7422 245.02 76.7401 245.734C76.7401 246.452 76.6335 247.065 76.4205 247.575C76.2095 248.084 75.907 248.473 75.5128 248.741C75.1186 249.01 74.6467 249.144 74.0969 249.144ZM74.0969 247.996C74.4719 247.996 74.7713 247.808 74.995 247.431C75.2188 247.054 75.3295 246.488 75.3274 245.734C75.3274 245.237 75.2763 244.824 75.174 244.494C75.0739 244.163 74.9311 243.915 74.7457 243.749C74.5625 243.583 74.3462 243.5 74.0969 243.5C73.7241 243.5 73.4258 243.686 73.2021 244.059C72.9783 244.432 72.8654 244.99 72.8633 245.734C72.8633 246.237 72.9134 246.656 73.0135 246.993C73.1158 247.327 73.2596 247.579 73.445 247.747C73.6303 247.913 73.8477 247.996 74.0969 247.996ZM78.8774 244.091L79.7787 245.807L80.7023 244.091H82.099L80.6768 246.545L82.1373 249H80.7471L79.7787 247.303L78.8263 249H77.42L78.8774 246.545L77.4711 244.091H78.8774ZM82.9331 249V242.455H87.267V243.596H84.317V245.155H86.9793V246.296H84.317V249H82.9331ZM88.1978 249V242.455H92.5316V243.596H89.5817V245.155H92.244V246.296H89.5817V249H88.1978ZM93.4624 249V242.455H97.7963V243.596H94.8463V245.155H97.5086V246.296H94.8463V249H93.4624ZM98.7271 249V242.455H103.061V243.596H100.111V245.155H102.773V246.296H100.111V249H98.7271ZM103.992 249V242.455H108.326V243.596H105.376V245.155H108.038V246.296H105.376V249H103.992ZM109.256 249V242.455H113.59V243.596H110.64V245.155H113.303V246.296H110.64V249H109.256ZM114.521 249V242.455H118.855V243.596H115.905V245.155H118.567V246.296H115.905V249H114.521ZM119.786 249V242.455H124.119V243.596H121.17V245.155H123.832V246.296H121.17V249H119.786Z" fill="black"/>
<path d="M198.12 295.091L196.404 300H194.87L193.153 295.091H194.592L195.611 298.603H195.662L196.679 295.091H198.12ZM200.085 300.093C199.772 300.093 199.492 300.038 199.247 299.93C199.002 299.819 198.809 299.656 198.666 299.441C198.525 299.223 198.455 298.953 198.455 298.629C198.455 298.356 198.505 298.127 198.605 297.942C198.705 297.756 198.842 297.607 199.014 297.494C199.187 297.381 199.383 297.296 199.602 297.239C199.824 297.181 200.056 297.141 200.299 297.117C200.584 297.087 200.815 297.06 200.989 297.034C201.164 297.006 201.291 296.966 201.37 296.913C201.448 296.859 201.488 296.781 201.488 296.676V296.657C201.488 296.455 201.424 296.298 201.296 296.187C201.17 296.076 200.991 296.021 200.759 296.021C200.514 296.021 200.319 296.075 200.174 296.184C200.029 296.29 199.934 296.425 199.887 296.587L198.627 296.484C198.691 296.186 198.817 295.928 199.005 295.711C199.192 295.491 199.434 295.323 199.73 295.206C200.028 295.087 200.373 295.027 200.766 295.027C201.038 295.027 201.299 295.059 201.549 295.123C201.8 295.187 202.023 295.286 202.217 295.42C202.413 295.554 202.567 295.727 202.68 295.938C202.793 296.147 202.849 296.397 202.849 296.689V300H201.558V299.319H201.52C201.441 299.473 201.335 299.608 201.203 299.725C201.071 299.84 200.913 299.931 200.727 299.997C200.542 300.061 200.328 300.093 200.085 300.093ZM200.475 299.153C200.675 299.153 200.852 299.114 201.005 299.035C201.159 298.954 201.279 298.845 201.366 298.709C201.454 298.572 201.497 298.418 201.497 298.245V297.724C201.455 297.752 201.396 297.778 201.322 297.801C201.249 297.822 201.167 297.843 201.076 297.862C200.984 297.879 200.892 297.895 200.801 297.91C200.709 297.923 200.626 297.934 200.551 297.945C200.392 297.968 200.252 298.006 200.133 298.057C200.013 298.108 199.921 298.177 199.855 298.265C199.789 298.35 199.756 298.456 199.756 298.584C199.756 298.77 199.823 298.911 199.957 299.009C200.093 299.105 200.266 299.153 200.475 299.153ZM203.906 300V295.091H205.226V295.947H205.277C205.366 295.643 205.516 295.413 205.727 295.257C205.938 295.099 206.181 295.021 206.456 295.021C206.524 295.021 206.598 295.025 206.677 295.033C206.755 295.042 206.825 295.054 206.884 295.069V296.277C206.82 296.257 206.732 296.24 206.619 296.225C206.506 296.211 206.403 296.203 206.309 296.203C206.109 296.203 205.93 296.247 205.772 296.334C205.617 296.419 205.493 296.539 205.401 296.692C205.312 296.846 205.267 297.022 205.267 297.223V300H203.906Z" fill="#FF0000"/>
<path d="M213.756 296.491L212.509 296.567C212.488 296.461 212.442 296.365 212.372 296.28C212.302 296.192 212.209 296.123 212.094 296.072C211.981 296.019 211.846 295.992 211.688 295.992C211.477 295.992 211.299 296.037 211.154 296.126C211.009 296.214 210.937 296.331 210.937 296.478C210.937 296.595 210.984 296.694 211.078 296.775C211.171 296.856 211.332 296.921 211.56 296.97L212.449 297.149C212.926 297.247 213.282 297.405 213.516 297.622C213.75 297.839 213.868 298.125 213.868 298.479C213.868 298.8 213.773 299.083 213.583 299.326C213.396 299.569 213.138 299.758 212.81 299.895C212.484 300.029 212.108 300.096 211.682 300.096C211.032 300.096 210.514 299.961 210.128 299.69C209.745 299.417 209.52 299.047 209.454 298.578L210.793 298.507C210.834 298.706 210.932 298.857 211.087 298.961C211.243 299.064 211.442 299.115 211.685 299.115C211.923 299.115 212.115 299.069 212.26 298.977C212.407 298.884 212.482 298.763 212.484 298.616C212.482 298.493 212.429 298.391 212.327 298.312C212.225 298.232 212.067 298.17 211.854 298.127L211.004 297.958C210.525 297.862 210.168 297.696 209.933 297.459C209.701 297.223 209.585 296.921 209.585 296.555C209.585 296.239 209.67 295.968 209.841 295.74C210.013 295.512 210.255 295.336 210.566 295.212C210.879 295.089 211.246 295.027 211.666 295.027C212.286 295.027 212.774 295.158 213.129 295.42C213.487 295.682 213.696 296.039 213.756 296.491ZM216.943 300.096C216.44 300.096 216.008 299.989 215.645 299.776C215.285 299.561 215.008 299.263 214.814 298.881C214.623 298.5 214.527 298.061 214.527 297.565C214.527 297.062 214.624 296.621 214.818 296.241C215.014 295.86 215.292 295.563 215.652 295.35C216.012 295.135 216.44 295.027 216.937 295.027C217.365 295.027 217.74 295.105 218.062 295.26C218.383 295.416 218.638 295.634 218.825 295.915C219.013 296.197 219.116 296.527 219.135 296.906H217.851C217.814 296.661 217.719 296.464 217.563 296.315C217.41 296.164 217.208 296.088 216.959 296.088C216.748 296.088 216.564 296.146 216.406 296.261C216.251 296.374 216.129 296.539 216.042 296.756C215.954 296.973 215.911 297.237 215.911 297.545C215.911 297.859 215.953 298.125 216.039 298.344C216.126 298.564 216.248 298.731 216.406 298.846C216.564 298.961 216.748 299.019 216.959 299.019C217.115 299.019 217.254 298.987 217.378 298.923C217.503 298.859 217.607 298.766 217.688 298.645C217.771 298.521 217.825 298.373 217.851 298.201H219.135C219.114 298.576 219.012 298.906 218.829 299.191C218.648 299.475 218.397 299.696 218.078 299.856C217.758 300.016 217.38 300.096 216.943 300.096ZM222.225 300.096C221.729 300.096 221.299 299.99 220.937 299.779C220.577 299.566 220.299 299.27 220.103 298.891C219.907 298.51 219.809 298.067 219.809 297.565C219.809 297.058 219.907 296.614 220.103 296.235C220.299 295.854 220.577 295.558 220.937 295.347C221.299 295.134 221.729 295.027 222.225 295.027C222.722 295.027 223.15 295.134 223.51 295.347C223.872 295.558 224.151 295.854 224.347 296.235C224.543 296.614 224.641 297.058 224.641 297.565C224.641 298.067 224.543 298.51 224.347 298.891C224.151 299.27 223.872 299.566 223.51 299.779C223.15 299.99 222.722 300.096 222.225 300.096ZM222.232 299.041C222.457 299.041 222.646 298.977 222.797 298.849C222.949 298.719 223.063 298.543 223.139 298.319C223.218 298.095 223.258 297.841 223.258 297.555C223.258 297.27 223.218 297.015 223.139 296.791C223.063 296.567 222.949 296.391 222.797 296.261C222.646 296.131 222.457 296.066 222.232 296.066C222.004 296.066 221.812 296.131 221.656 296.261C221.503 296.391 221.387 296.567 221.308 296.791C221.231 297.015 221.193 297.27 221.193 297.555C221.193 297.841 221.231 298.095 221.308 298.319C221.387 298.543 221.503 298.719 221.656 298.849C221.812 298.977 222.004 299.041 222.232 299.041ZM225.527 300V295.091H226.847V295.947H226.898C226.987 295.643 227.138 295.413 227.348 295.257C227.559 295.099 227.802 295.021 228.077 295.021C228.145 295.021 228.219 295.025 228.298 295.033C228.377 295.042 228.446 295.054 228.505 295.069V296.277C228.441 296.257 228.353 296.24 228.24 296.225C228.127 296.211 228.024 296.203 227.93 296.203C227.73 296.203 227.551 296.247 227.393 296.334C227.238 296.419 227.114 296.539 227.022 296.692C226.933 296.846 226.888 297.022 226.888 297.223V300H225.527ZM231.218 300.096C230.713 300.096 230.278 299.994 229.914 299.789C229.552 299.582 229.273 299.29 229.077 298.913C228.881 298.534 228.783 298.086 228.783 297.568C228.783 297.063 228.881 296.62 229.077 296.238C229.273 295.857 229.549 295.56 229.904 295.347C230.262 295.134 230.682 295.027 231.164 295.027C231.488 295.027 231.789 295.079 232.068 295.184C232.349 295.286 232.594 295.44 232.803 295.647C233.014 295.854 233.178 296.114 233.295 296.427C233.413 296.738 233.471 297.102 233.471 297.52V297.894H229.326V297.05H232.19C232.19 296.854 232.147 296.68 232.062 296.529C231.977 296.378 231.858 296.26 231.707 296.174C231.558 296.087 231.384 296.043 231.186 296.043C230.979 296.043 230.796 296.091 230.636 296.187C230.479 296.281 230.355 296.408 230.266 296.567C230.176 296.725 230.13 296.901 230.128 297.095V297.897C230.128 298.14 230.173 298.35 230.262 298.527C230.354 298.703 230.483 298.84 230.649 298.936C230.815 299.032 231.012 299.08 231.24 299.08C231.392 299.08 231.53 299.058 231.656 299.016C231.782 298.973 231.889 298.909 231.979 298.824C232.068 298.739 232.136 298.634 232.183 298.511L233.442 298.594C233.379 298.896 233.248 299.161 233.049 299.386C232.853 299.61 232.6 299.785 232.289 299.911C231.98 300.034 231.623 300.096 231.218 300.096Z" fill="black"/>
<path d="M36.6278 95.4908L35.3814 95.5675C35.3601 95.4609 35.3143 95.3651 35.244 95.2798C35.1737 95.1925 35.081 95.1232 34.9659 95.0721C34.853 95.0188 34.7177 94.9922 34.56 94.9922C34.3491 94.9922 34.1712 95.0369 34.0263 95.1264C33.8814 95.2138 33.8089 95.331 33.8089 95.478C33.8089 95.5952 33.8558 95.6942 33.9496 95.7752C34.0433 95.8562 34.2042 95.9212 34.4322 95.9702L35.3207 96.1491C35.7979 96.2472 36.1538 96.4048 36.3881 96.6222C36.6225 96.8395 36.7397 97.125 36.7397 97.4787C36.7397 97.8004 36.6449 98.0827 36.4553 98.3256C36.2678 98.5685 36.0099 98.7582 35.6818 98.8945C35.3558 99.0288 34.9798 99.0959 34.5536 99.0959C33.9038 99.0959 33.386 98.9606 33.0004 98.69C32.6168 98.4173 32.392 98.0465 32.326 97.5778L33.6651 97.5075C33.7056 97.7056 33.8036 97.8569 33.9592 97.9613C34.1147 98.0636 34.3139 98.1147 34.5568 98.1147C34.7955 98.1147 34.9872 98.0689 35.1321 97.9773C35.2791 97.8835 35.3537 97.7631 35.3558 97.6161C35.3537 97.4925 35.3015 97.3913 35.1992 97.3125C35.0969 97.2315 34.9393 97.1697 34.7262 97.1271L33.8761 96.9577C33.3967 96.8619 33.0398 96.6957 32.8054 96.4592C32.5732 96.2227 32.457 95.9212 32.457 95.5547C32.457 95.2393 32.5423 94.9677 32.7127 94.7397C32.8853 94.5117 33.1271 94.3359 33.4382 94.2124C33.7514 94.0888 34.1179 94.027 34.5376 94.027C35.1577 94.027 35.6456 94.158 36.0014 94.4201C36.3594 94.6822 36.5682 95.0391 36.6278 95.4908ZM39.8151 99.0959C39.3122 99.0959 38.8797 98.9893 38.5175 98.7763C38.1574 98.5611 37.8804 98.2628 37.6865 97.8814C37.4948 97.5 37.3989 97.0611 37.3989 96.5646C37.3989 96.0618 37.4958 95.6207 37.6897 95.2415C37.8857 94.8601 38.1638 94.5629 38.5239 94.3498C38.884 94.1346 39.3122 94.027 39.8087 94.027C40.2369 94.027 40.6119 94.1048 40.9337 94.2603C41.2554 94.4158 41.51 94.6342 41.6975 94.9155C41.885 95.1967 41.9884 95.527 42.0075 95.9062H40.7227C40.6865 95.6612 40.5906 95.4641 40.4351 95.315C40.2817 95.1637 40.0803 95.0881 39.8311 95.0881C39.6201 95.0881 39.4358 95.1456 39.2781 95.2607C39.1226 95.3736 39.0012 95.5387 38.9138 95.756C38.8264 95.9734 38.7828 96.2365 38.7828 96.5455C38.7828 96.8587 38.8254 97.125 38.9106 97.3445C38.998 97.5639 39.1205 97.7312 39.2781 97.8462C39.4358 97.9613 39.6201 98.0188 39.8311 98.0188C39.9866 98.0188 40.1262 97.9869 40.2497 97.9229C40.3754 97.859 40.4788 97.7663 40.5597 97.6449C40.6428 97.5213 40.6972 97.3732 40.7227 97.2006H42.0075C41.9862 97.5756 41.884 97.9059 41.7007 98.1914C41.5196 98.4748 41.2693 98.6964 40.9497 98.8562C40.6301 99.016 40.2519 99.0959 39.8151 99.0959ZM45.0973 99.0959C44.6009 99.0959 44.1715 98.9904 43.8093 98.7795C43.4492 98.5664 43.1712 98.2702 42.9751 97.891C42.7791 97.5096 42.6811 97.0675 42.6811 96.5646C42.6811 96.0575 42.7791 95.6143 42.9751 95.2351C43.1712 94.8537 43.4492 94.5575 43.8093 94.3466C44.1715 94.1335 44.6009 94.027 45.0973 94.027C45.5938 94.027 46.022 94.1335 46.3821 94.3466C46.7443 94.5575 47.0234 94.8537 47.2195 95.2351C47.4155 95.6143 47.5135 96.0575 47.5135 96.5646C47.5135 97.0675 47.4155 97.5096 47.2195 97.891C47.0234 98.2702 46.7443 98.5664 46.3821 98.7795C46.022 98.9904 45.5938 99.0959 45.0973 99.0959ZM45.1037 98.0412C45.3295 98.0412 45.5181 97.9773 45.6694 97.8494C45.8207 97.7195 45.9347 97.5426 46.0114 97.3189C46.0902 97.0952 46.1296 96.8406 46.1296 96.555C46.1296 96.2695 46.0902 96.0149 46.0114 95.7912C45.9347 95.5675 45.8207 95.3906 45.6694 95.2607C45.5181 95.1307 45.3295 95.0657 45.1037 95.0657C44.8757 95.0657 44.6839 95.1307 44.5284 95.2607C44.375 95.3906 44.2589 95.5675 44.18 95.7912C44.1033 96.0149 44.065 96.2695 44.065 96.555C44.065 96.8406 44.1033 97.0952 44.18 97.3189C44.2589 97.5426 44.375 97.7195 44.5284 97.8494C44.6839 97.9773 44.8757 98.0412 45.1037 98.0412ZM48.3988 99V94.0909H49.7188V94.9474H49.7699C49.8594 94.6428 50.0096 94.4126 50.2205 94.2571C50.4315 94.0994 50.6744 94.0206 50.9492 94.0206C51.0174 94.0206 51.0909 94.0249 51.1697 94.0334C51.2486 94.0419 51.3178 94.0536 51.3775 94.0685V95.2766C51.3136 95.2575 51.2251 95.2404 51.1122 95.2255C50.9993 95.2106 50.896 95.2031 50.8022 95.2031C50.6019 95.2031 50.4229 95.2468 50.2653 95.3342C50.1097 95.4194 49.9862 95.5387 49.8945 95.6921C49.805 95.8455 49.7603 96.0224 49.7603 96.2227V99H48.3988ZM54.0901 99.0959C53.5851 99.0959 53.1505 98.9936 52.7861 98.7891C52.4239 98.5824 52.1448 98.2905 51.9488 97.9134C51.7528 97.5341 51.6547 97.0856 51.6547 96.5678C51.6547 96.0629 51.7528 95.6197 51.9488 95.2383C52.1448 94.8569 52.4207 94.5597 52.7765 94.3466C53.1345 94.1335 53.5542 94.027 54.0358 94.027C54.3596 94.027 54.6611 94.0792 54.9403 94.1836C55.2215 94.2859 55.4665 94.4403 55.6753 94.647C55.8863 94.8537 56.0503 95.1136 56.1675 95.4268C56.2847 95.7379 56.3433 96.1023 56.3433 96.5199V96.8938H52.1981V96.0501H55.0617C55.0617 95.854 55.0191 95.6804 54.9339 95.5291C54.8486 95.3778 54.7304 95.2596 54.5791 95.1744C54.43 95.087 54.2563 95.0433 54.0582 95.0433C53.8515 95.0433 53.6682 95.0913 53.5084 95.1871C53.3508 95.2809 53.2272 95.4077 53.1377 95.5675C53.0482 95.7251 53.0024 95.9009 53.0003 96.0948V96.897C53.0003 97.1399 53.045 97.3498 53.1345 97.5266C53.2261 97.7035 53.355 97.8398 53.5212 97.9357C53.6874 98.0316 53.8845 98.0795 54.1125 98.0795C54.2638 98.0795 54.4023 98.0582 54.528 98.0156C54.6537 97.973 54.7613 97.9091 54.8508 97.8239C54.9403 97.7386 55.0084 97.6342 55.0553 97.5107L56.3145 97.5938C56.2506 97.8963 56.1196 98.1605 55.9214 98.3864C55.7254 98.6101 55.4719 98.7848 55.1608 98.9105C54.8518 99.0341 54.4949 99.0959 54.0901 99.0959Z" fill="#FF0000"/>
</svg>
