<svg width="1280" height="358" viewBox="0 0 1280 358" fill="none" xmlns="http://www.w3.org/2000/svg">
<g clip-path="url(#clip0_4_105)">
<rect x="17.5007" y="39.5" width="179" height="119" fill="#D9D9D9" stroke="black"/>
<path d="M35.9752 110V86.7273H50.0206V89.2273H38.7933V97.0909H49.2933V99.5909H38.7933V107.5H50.2024V110H35.9752ZM57.4183 99.5V110H54.7365V92.5455H57.3274V95.2727H57.5547C57.9638 94.3864 58.585 93.6742 59.4183 93.1364C60.2517 92.5909 61.3274 92.3182 62.6456 92.3182C63.8274 92.3182 64.8615 92.5606 65.7479 93.0455C66.6343 93.5227 67.3236 94.25 67.8161 95.2273C68.3085 96.197 68.5547 97.4242 68.5547 98.9091V110H65.8729V99.0909C65.8729 97.7197 65.5168 96.6515 64.8047 95.8864C64.0926 95.1136 63.1153 94.7273 61.8729 94.7273C61.0168 94.7273 60.2517 94.9129 59.5774 95.2841C58.9108 95.6553 58.3843 96.197 57.9979 96.9091C57.6115 97.6212 57.4183 98.4848 57.4183 99.5ZM81.0462 92.5455V94.8182H72.0007V92.5455H81.0462ZM74.6371 88.3636H77.3189V105C77.3189 105.758 77.4288 106.326 77.6485 106.705C77.8757 107.076 78.1636 107.326 78.5121 107.455C78.8682 107.576 79.2432 107.636 79.6371 107.636C79.9326 107.636 80.175 107.621 80.3644 107.591C80.5538 107.553 80.7053 107.523 80.8189 107.5L81.3644 109.909C81.1826 109.977 80.9288 110.045 80.603 110.114C80.2772 110.189 79.8644 110.227 79.3644 110.227C78.6068 110.227 77.8644 110.064 77.1371 109.739C76.4174 109.413 75.8189 108.917 75.3416 108.25C74.8719 107.583 74.6371 106.742 74.6371 105.727V88.3636ZM92.211 110.364C90.5291 110.364 89.0784 109.992 87.8587 109.25C86.6466 108.5 85.711 107.455 85.0519 106.114C84.4004 104.765 84.0746 103.197 84.0746 101.409C84.0746 99.6212 84.4004 98.0455 85.0519 96.6818C85.711 95.3106 86.6276 94.2424 87.8019 93.4773C88.9837 92.7045 90.3625 92.3182 91.9382 92.3182C92.8473 92.3182 93.7451 92.4697 94.6314 92.7727C95.5178 93.0758 96.3246 93.5682 97.0519 94.25C97.7791 94.9242 98.3587 95.8182 98.7905 96.9318C99.2223 98.0455 99.4382 99.4167 99.4382 101.045V102.182H85.9837V99.8636H96.711C96.711 98.8788 96.514 98 96.1201 97.2273C95.7337 96.4545 95.1807 95.8447 94.461 95.3977C93.7488 94.9508 92.9079 94.7273 91.9382 94.7273C90.8701 94.7273 89.9458 94.9924 89.1655 95.5227C88.3928 96.0455 87.7981 96.7273 87.3814 97.5682C86.9647 98.4091 86.7564 99.3106 86.7564 100.273V101.818C86.7564 103.136 86.9837 104.254 87.4382 105.17C87.9004 106.08 88.5405 106.773 89.3587 107.25C90.1769 107.72 91.1276 107.955 92.211 107.955C92.9155 107.955 93.5519 107.856 94.1201 107.659C94.6958 107.455 95.192 107.152 95.6087 106.75C96.0254 106.341 96.3473 105.833 96.5746 105.227L99.1655 105.955C98.8928 106.833 98.4344 107.606 97.7905 108.273C97.1466 108.932 96.3511 109.447 95.4041 109.818C94.4572 110.182 93.3928 110.364 92.211 110.364ZM103.518 110V92.5455H106.109V95.1818H106.291C106.609 94.3182 107.184 93.6174 108.018 93.0795C108.851 92.5417 109.791 92.2727 110.836 92.2727C111.033 92.2727 111.279 92.2765 111.575 92.2841C111.87 92.2917 112.094 92.303 112.245 92.3182V95.0455C112.154 95.0227 111.946 94.9886 111.62 94.9432C111.302 94.8902 110.965 94.8636 110.609 94.8636C109.76 94.8636 109.003 95.0417 108.336 95.3977C107.677 95.7462 107.154 96.2311 106.768 96.8523C106.389 97.4659 106.2 98.1667 106.2 98.9545V110H103.518ZM144.625 83.536H147.281V99.088H144.625V83.536ZM128.657 100.528H131.249V104.016H144.657V100.528H147.281V112.112H128.657V100.528ZM131.249 106.128V109.936H144.657V106.128H131.249ZM131.761 84.912C133.233 84.912 134.535 85.2 135.665 85.776C136.796 86.3307 137.681 87.1093 138.321 88.112C138.983 89.1147 139.313 90.2773 139.313 91.6C139.313 92.9013 138.983 94.064 138.321 95.088C137.681 96.0907 136.796 96.8693 135.665 97.424C134.535 97.9787 133.233 98.256 131.761 98.256C130.311 98.256 129.009 97.9787 127.857 97.424C126.727 96.8693 125.831 96.0907 125.169 95.088C124.529 94.064 124.209 92.9013 124.209 91.6C124.209 90.2773 124.529 89.1147 125.169 88.112C125.831 87.1093 126.727 86.3307 127.857 85.776C129.009 85.2 130.311 84.912 131.761 84.912ZM131.761 87.152C130.801 87.152 129.948 87.344 129.201 87.728C128.455 88.0907 127.868 88.6133 127.441 89.296C127.015 89.9573 126.801 90.7253 126.801 91.6C126.801 92.4533 127.015 93.2213 127.441 93.904C127.868 94.5653 128.455 95.088 129.201 95.472C129.948 95.856 130.801 96.048 131.761 96.048C132.721 96.048 133.575 95.856 134.321 95.472C135.068 95.088 135.655 94.5653 136.081 93.904C136.508 93.2213 136.721 92.4533 136.721 91.6C136.721 90.7253 136.508 89.9573 136.081 89.296C135.655 88.6133 135.068 88.0907 134.321 87.728C133.575 87.344 132.721 87.152 131.761 87.152ZM154.223 97.904H156.271C158.17 97.904 159.791 97.8933 161.135 97.872C162.5 97.8293 163.738 97.7547 164.847 97.648C165.978 97.5413 167.119 97.3813 168.271 97.168L168.527 99.344C167.652 99.4933 166.788 99.6213 165.935 99.728C165.082 99.8133 164.186 99.8773 163.247 99.92C162.308 99.9627 161.274 99.9947 160.143 100.016C159.012 100.037 157.722 100.048 156.271 100.048H154.223V97.904ZM154.159 85.296H166.607V93.488H156.847V99.184H154.223V91.44H163.983V87.44H154.159V85.296ZM174.159 83.568H176.815V101.36H174.159V83.568ZM168.527 87.856H174.767V90H168.527V87.856ZM168.527 93.84H174.767V96.016H168.527V93.84ZM157.455 102.896H176.815V112.528H174.159V105.072H157.455V102.896Z" fill="black"/>
<path d="M272 98.8902L261.981 93.1505L262.02 104.697L272 98.8902ZM207.001 99.1098L207.004 100.11L263.004 99.9206L263 98.9206L262.997 97.9206L206.997 98.1098L207.001 99.1098Z" fill="black"/>
<rect x="285.5" y="39.5" width="179" height="119" fill="white" stroke="black"/>
<path d="M304.844 63.536H307.5V79.088H304.844V63.536ZM288.876 80.528H291.468V84.016H304.876V80.528H307.5V92.112H288.876V80.528ZM291.468 86.128V89.936H304.876V86.128H291.468ZM291.98 64.912C293.452 64.912 294.753 65.2 295.884 65.776C297.015 66.3307 297.9 67.1093 298.54 68.112C299.201 69.1147 299.532 70.2773 299.532 71.6C299.532 72.9013 299.201 74.064 298.54 75.088C297.9 76.0907 297.015 76.8693 295.884 77.424C294.753 77.9787 293.452 78.256 291.98 78.256C290.529 78.256 289.228 77.9787 288.076 77.424C286.945 76.8693 286.049 76.0907 285.388 75.088C284.748 74.064 284.428 72.9013 284.428 71.6C284.428 70.2773 284.748 69.1147 285.388 68.112C286.049 67.1093 286.945 66.3307 288.076 65.776C289.228 65.2 290.529 64.912 291.98 64.912ZM291.98 67.152C291.02 67.152 290.167 67.344 289.42 67.728C288.673 68.0907 288.087 68.6133 287.66 69.296C287.233 69.9573 287.02 70.7253 287.02 71.6C287.02 72.4533 287.233 73.2213 287.66 73.904C288.087 74.5653 288.673 75.088 289.42 75.472C290.167 75.856 291.02 76.048 291.98 76.048C292.94 76.048 293.793 75.856 294.54 75.472C295.287 75.088 295.873 74.5653 296.3 73.904C296.727 73.2213 296.94 72.4533 296.94 71.6C296.94 70.7253 296.727 69.9573 296.3 69.296C295.873 68.6133 295.287 68.0907 294.54 67.728C293.793 67.344 292.94 67.152 291.98 67.152ZM314.441 77.904H316.489C318.388 77.904 320.009 77.8933 321.353 77.872C322.719 77.8293 323.956 77.7547 325.065 77.648C326.196 77.5413 327.337 77.3813 328.489 77.168L328.745 79.344C327.871 79.4933 327.007 79.6213 326.153 79.728C325.3 79.8133 324.404 79.8773 323.465 79.92C322.527 79.9627 321.492 79.9947 320.361 80.016C319.231 80.0373 317.94 80.048 316.489 80.048H314.441V77.904ZM314.377 65.296H326.825V73.488H317.065V79.184H314.441V71.44H324.201V67.44H314.377V65.296ZM334.377 63.568H337.033V81.36H334.377V63.568ZM328.745 67.856H334.985V70H328.745V67.856ZM328.745 73.84H334.985V76.016H328.745V73.84ZM317.673 82.896H337.033V92.528H334.377V85.072H317.673V82.896ZM362.471 63.568H365.127V85.264H362.471V63.568ZM364.295 73.072H369.383V75.28H364.295V73.072ZM342.727 67.088H359.815V69.232H342.727V67.088ZM351.271 70.8C352.636 70.8 353.842 71.0347 354.887 71.504C355.932 71.952 356.743 72.5813 357.319 73.392C357.895 74.1813 358.183 75.12 358.183 76.208C358.183 77.296 357.895 78.2453 357.319 79.056C356.743 79.8453 355.932 80.464 354.887 80.912C353.842 81.36 352.636 81.584 351.271 81.584C349.906 81.584 348.7 81.36 347.655 80.912C346.61 80.464 345.788 79.8453 345.191 79.056C344.615 78.2453 344.327 77.296 344.327 76.208C344.327 75.12 344.615 74.1813 345.191 73.392C345.788 72.5813 346.61 71.952 347.655 71.504C348.7 71.0347 349.906 70.8 351.271 70.8ZM351.271 72.88C349.97 72.88 348.914 73.1893 348.103 73.808C347.292 74.4053 346.887 75.2053 346.887 76.208C346.887 77.2107 347.292 78.0107 348.103 78.608C348.914 79.2053 349.97 79.504 351.271 79.504C352.594 79.504 353.65 79.2053 354.439 78.608C355.25 78.0107 355.655 77.2107 355.655 76.208C355.655 75.2053 355.25 74.4053 354.439 73.808C353.65 73.1893 352.594 72.88 351.271 72.88ZM349.959 63.568H352.615V68.176H349.959V63.568ZM347.111 89.68H366.407V91.856H347.111V89.68ZM347.111 83.536H349.735V90.576H347.111V83.536ZM393.548 71.152H398.476V73.328H393.548V71.152ZM382.412 77.584H384.236C385.751 77.584 387.084 77.5733 388.236 77.552C389.41 77.5093 390.508 77.4347 391.532 77.328C392.556 77.2 393.591 77.0293 394.636 76.816L394.924 78.96C393.815 79.1733 392.738 79.344 391.692 79.472C390.647 79.5787 389.527 79.6533 388.332 79.696C387.159 79.7173 385.794 79.728 384.236 79.728H382.412V77.584ZM382.412 65.616H393.356V67.76H384.972V78.512H382.412V65.616ZM384.172 71.472H392.204V73.552H384.172V71.472ZM385.996 82.832H405.484V92.496H402.86V85.008H385.996V82.832ZM402.956 63.568H405.484V81.456H402.956V63.568ZM397.356 64.176H399.884V81.232H397.356V64.176ZM422.122 65.52H424.458V67.76C424.458 69.0187 424.234 70.2133 423.786 71.344C423.359 72.4747 422.762 73.5307 421.994 74.512C421.247 75.472 420.373 76.336 419.37 77.104C418.389 77.872 417.333 78.5227 416.202 79.056C415.093 79.5893 413.962 79.9947 412.81 80.272L411.626 78.064C412.629 77.8507 413.631 77.52 414.634 77.072C415.658 76.624 416.618 76.08 417.514 75.44C418.41 74.7787 419.199 74.0427 419.882 73.232C420.586 72.4213 421.13 71.5573 421.514 70.64C421.919 69.7013 422.122 68.7413 422.122 67.76V65.52ZM422.634 65.52H424.906V67.76C424.906 68.7413 425.109 69.7013 425.514 70.64C425.919 71.5573 426.463 72.4213 427.146 73.232C427.85 74.0427 428.65 74.7787 429.546 75.44C430.442 76.08 431.391 76.6347 432.394 77.104C433.418 77.552 434.442 77.872 435.466 78.064L434.25 80.272C433.098 79.9947 431.967 79.5893 430.858 79.056C429.749 78.5227 428.693 77.872 427.69 77.104C426.709 76.336 425.834 75.472 425.066 74.512C424.298 73.5307 423.701 72.4747 423.274 71.344C422.847 70.2133 422.634 69.0187 422.634 67.76V65.52ZM410.538 86.384H436.778V88.592H410.538V86.384ZM443.335 79.152H463.207V81.296H443.335V79.152ZM439.975 86.544H466.215V88.752H439.975V86.544ZM443.335 66.032H462.919V68.208H446.023V79.792H443.335V66.032ZM445.191 72.464H462.279V74.608H445.191V72.464ZM328.681 110.056H335.177V112.264H328.681V110.056ZM334.377 102.536H337.033V119.784H334.377V102.536ZM327.497 120.68C329.503 120.68 331.22 120.893 332.649 121.32C334.1 121.747 335.209 122.365 335.977 123.176C336.745 123.965 337.129 124.936 337.129 126.088C337.129 127.795 336.265 129.117 334.537 130.056C332.831 130.995 330.484 131.464 327.497 131.464C324.511 131.464 322.153 130.995 320.425 130.056C318.719 129.117 317.865 127.795 317.865 126.088C317.865 124.936 318.249 123.965 319.017 123.176C319.807 122.365 320.916 121.747 322.345 121.32C323.796 120.893 325.513 120.68 327.497 120.68ZM327.497 122.76C326.047 122.76 324.799 122.888 323.753 123.144C322.708 123.4 321.897 123.773 321.321 124.264C320.767 124.755 320.489 125.363 320.489 126.088C320.489 126.771 320.767 127.357 321.321 127.848C321.897 128.339 322.708 128.723 323.753 129C324.799 129.256 326.047 129.384 327.497 129.384C328.969 129.384 330.217 129.256 331.241 129C332.287 128.723 333.087 128.339 333.641 127.848C334.217 127.357 334.505 126.771 334.505 126.088C334.505 125.363 334.217 124.755 333.641 124.264C333.087 123.773 332.287 123.4 331.241 123.144C330.217 122.888 328.969 122.76 327.497 122.76ZM320.585 105.48H322.761V107.816C322.761 109.587 322.42 111.251 321.737 112.808C321.076 114.344 320.137 115.699 318.921 116.872C317.705 118.024 316.297 118.909 314.697 119.528L313.321 117.416C314.409 117.032 315.391 116.509 316.265 115.848C317.161 115.187 317.929 114.429 318.569 113.576C319.231 112.723 319.732 111.805 320.073 110.824C320.415 109.843 320.585 108.84 320.585 107.816V105.48ZM321.097 105.48H323.273V107.784C323.273 109.021 323.561 110.227 324.137 111.4C324.713 112.573 325.535 113.608 326.601 114.504C327.668 115.4 328.895 116.104 330.281 116.616L328.937 118.728C327.359 118.152 325.983 117.32 324.809 116.232C323.636 115.123 322.719 113.843 322.057 112.392C321.417 110.941 321.097 109.405 321.097 107.784V105.48ZM314.153 104.648H329.609V106.824H314.153V104.648ZM342.663 125.608H368.903V127.816H342.663V125.608ZM354.407 118.664H357.031V126.248H354.407V118.664ZM345.735 104.584H348.391V109.736H363.111V104.584H365.735V119.4H345.735V104.584ZM348.391 111.912V117.224H363.111V111.912H348.391ZM388.684 116.136H391.308V119.816H388.684V116.136ZM400.876 102.568H403.532V121.96H400.876V102.568ZM402.412 111.304H407.756V113.512H402.412V111.304ZM381.26 121.128L380.94 118.984C382.668 118.984 384.556 118.973 386.604 118.952C388.674 118.909 390.786 118.824 392.94 118.696C395.095 118.568 397.164 118.365 399.148 118.088L399.34 119.976C397.292 120.339 395.191 120.605 393.036 120.776C390.903 120.925 388.823 121.021 386.796 121.064C384.791 121.107 382.946 121.128 381.26 121.128ZM384.492 123.432H403.532V131.496H400.876V125.544H384.492V123.432ZM381.676 105.16H398.284V107.176H381.676V105.16ZM389.964 108.264C392.012 108.264 393.644 108.648 394.86 109.416C396.098 110.184 396.716 111.229 396.716 112.552C396.716 113.875 396.098 114.92 394.86 115.688C393.644 116.456 392.012 116.84 389.964 116.84C387.938 116.84 386.306 116.456 385.068 115.688C383.831 114.92 383.212 113.875 383.212 112.552C383.212 111.229 383.831 110.184 385.068 109.416C386.306 108.648 387.938 108.264 389.964 108.264ZM389.964 110.12C388.684 110.12 387.66 110.333 386.892 110.76C386.124 111.187 385.74 111.784 385.74 112.552C385.74 113.277 386.124 113.875 386.892 114.344C387.66 114.792 388.684 115.016 389.964 115.016C391.244 115.016 392.268 114.792 393.036 114.344C393.804 113.875 394.188 113.277 394.188 112.552C394.188 111.784 393.804 111.187 393.036 110.76C392.268 110.333 391.244 110.12 389.964 110.12ZM388.684 102.312H391.308V106.152H388.684V102.312ZM431.594 102.568H434.25V123.688H431.594V102.568ZM415.658 128.68H435.146V130.856H415.658V128.68ZM415.658 121.544H418.314V129.416H415.658V121.544ZM418.73 104.584C420.181 104.584 421.471 104.883 422.602 105.48C423.733 106.077 424.629 106.92 425.29 108.008C425.951 109.075 426.282 110.301 426.282 111.688C426.282 113.075 425.951 114.312 425.29 115.4C424.629 116.467 423.733 117.309 422.602 117.928C421.471 118.525 420.181 118.824 418.73 118.824C417.301 118.824 416.01 118.525 414.858 117.928C413.727 117.309 412.831 116.467 412.17 115.4C411.509 114.312 411.178 113.075 411.178 111.688C411.178 110.301 411.509 109.075 412.17 108.008C412.831 106.92 413.727 106.077 414.858 105.48C416.01 104.883 417.301 104.584 418.73 104.584ZM418.73 106.888C417.791 106.888 416.949 107.091 416.202 107.496C415.455 107.901 414.858 108.467 414.41 109.192C413.983 109.917 413.77 110.749 413.77 111.688C413.77 112.648 413.983 113.491 414.41 114.216C414.858 114.92 415.455 115.475 416.202 115.88C416.949 116.285 417.791 116.488 418.73 116.488C419.669 116.488 420.511 116.285 421.258 115.88C422.026 115.475 422.623 114.92 423.05 114.216C423.477 113.491 423.69 112.648 423.69 111.688C423.69 110.749 423.477 109.917 423.05 109.192C422.623 108.467 422.026 107.901 421.258 107.496C420.511 107.091 419.669 106.888 418.73 106.888Z" fill="black"/>
<path d="M543 98.8902L532.981 93.1505L533.02 104.697L543 98.8902ZM478 99.1098L478.004 100.11L534.003 99.9206L534 98.9206L533.997 97.9206L477.997 98.1098L478 99.1098Z" fill="black"/>
<rect x="553.5" y="39.5" width="179" height="119" fill="white" stroke="black"/>
<path d="M587.101 66.64H589.757V83.6H587.101V66.64ZM587.101 82.864H588.957C590.642 82.864 592.296 82.8107 593.917 82.704C595.56 82.576 597.288 82.32 599.101 81.936L599.485 84.208C597.586 84.6133 595.794 84.88 594.109 85.008C592.445 85.1147 590.728 85.168 588.957 85.168H587.101V82.864ZM607.773 63.536H610.333V92.496H607.773V63.536ZM595.165 73.264H602.365V75.44H595.165V73.264ZM601.629 64.24H604.157V91.024H601.629V64.24ZM618.523 79.152H638.395V81.296H618.523V79.152ZM615.163 86.544H641.403V88.752H615.163V86.544ZM618.523 66.032H638.107V68.208H621.211V79.792H618.523V66.032ZM620.379 72.464H637.467V74.608H620.379V72.464ZM652.44 79.696H655.096V91.6H652.44V79.696ZM665.688 63.568H668.376V92.496H665.688V63.568ZM644.824 81.008L644.472 78.768C646.307 78.768 648.291 78.7573 650.424 78.736C652.579 78.6933 654.776 78.608 657.016 78.48C659.256 78.352 661.421 78.1387 663.512 77.84L663.672 79.824C661.517 80.1867 659.331 80.4533 657.112 80.624C654.893 80.7947 652.739 80.9013 650.648 80.944C648.557 80.9867 646.616 81.008 644.824 81.008ZM659.16 83.312H666.392V85.392H659.16V83.312ZM653.912 64.976C655.341 64.976 656.6 65.2213 657.688 65.712C658.776 66.1813 659.629 66.8427 660.248 67.696C660.867 68.528 661.176 69.52 661.176 70.672C661.176 71.824 660.867 72.8267 660.248 73.68C659.629 74.5333 658.776 75.1947 657.688 75.664C656.6 76.1333 655.341 76.368 653.912 76.368C652.504 76.368 651.245 76.1333 650.136 75.664C649.048 75.1947 648.195 74.5333 647.576 73.68C646.957 72.8267 646.648 71.824 646.648 70.672C646.648 69.52 646.957 68.528 647.576 67.696C648.195 66.8427 649.048 66.1813 650.136 65.712C651.245 65.2213 652.504 64.976 653.912 64.976ZM653.912 67.024C652.973 67.024 652.141 67.184 651.416 67.504C650.712 67.8027 650.157 68.2293 649.752 68.784C649.347 69.3387 649.144 69.968 649.144 70.672C649.144 71.3973 649.347 72.0373 649.752 72.592C650.157 73.1467 650.712 73.5733 651.416 73.872C652.141 74.1707 652.973 74.32 653.912 74.32C654.851 74.32 655.672 74.1707 656.376 73.872C657.08 73.5733 657.635 73.1467 658.04 72.592C658.445 72.0373 658.648 71.3973 658.648 70.672C658.648 69.968 658.445 69.3387 658.04 68.784C657.635 68.2293 657.08 67.8027 656.376 67.504C655.672 67.184 654.851 67.024 653.912 67.024ZM677.174 66.48H695.51V68.656H677.174V66.48ZM674.038 86.256H700.182V88.464H674.038V86.256ZM694.39 66.48H696.982V70.032C696.982 71.44 696.96 72.8587 696.918 74.288C696.896 75.696 696.8 77.2 696.63 78.8C696.459 80.3787 696.171 82.16 695.766 84.144L693.11 83.888C693.536 82.032 693.835 80.3253 694.006 78.768C694.198 77.1893 694.304 75.6853 694.326 74.256C694.368 72.8267 694.39 71.4187 694.39 70.032V66.48ZM695.03 74.48V76.496L676.758 77.456L676.374 75.28L695.03 74.48ZM616.443 106.792H639.963V108.968H616.443V106.792ZM615.163 125.928H641.403V128.104H615.163V125.928ZM626.907 121.32H629.531V126.76H626.907V121.32ZM628.219 110.888C630.16 110.888 631.835 111.112 633.243 111.56C634.672 111.987 635.771 112.605 636.539 113.416C637.307 114.227 637.691 115.219 637.691 116.392C637.691 117.544 637.307 118.536 636.539 119.368C635.771 120.2 634.672 120.84 633.243 121.288C631.835 121.715 630.16 121.928 628.219 121.928C626.277 121.928 624.592 121.715 623.163 121.288C621.755 120.84 620.667 120.2 619.899 119.368C619.131 118.536 618.747 117.544 618.747 116.392C618.747 115.219 619.131 114.227 619.899 113.416C620.667 112.605 621.755 111.987 623.163 111.56C624.592 111.112 626.277 110.888 628.219 110.888ZM628.219 113C626.811 113 625.595 113.139 624.571 113.416C623.568 113.672 622.789 114.056 622.235 114.568C621.701 115.059 621.435 115.667 621.435 116.392C621.435 117.096 621.701 117.704 622.235 118.216C622.789 118.728 623.568 119.123 624.571 119.4C625.595 119.656 626.811 119.784 628.219 119.784C629.627 119.784 630.832 119.656 631.835 119.4C632.837 119.123 633.616 118.728 634.171 118.216C634.725 117.704 635.003 117.096 635.003 116.392C635.003 115.667 634.725 115.059 634.171 114.568C633.616 114.056 632.837 113.672 631.835 113.416C630.832 113.139 629.627 113 628.219 113ZM626.907 103.016H629.531V108.104H626.907V103.016ZM656.344 116.968H658.968V121.32H656.344V116.968ZM644.632 115.4H670.712V117.416H644.632V115.4ZM656.344 102.376H658.968V105.864H656.344V102.376ZM656.216 106.12H658.552V106.568C658.552 107.72 658.243 108.733 657.624 109.608C657.005 110.483 656.152 111.229 655.064 111.848C653.976 112.467 652.717 112.968 651.288 113.352C649.88 113.715 648.376 113.96 646.776 114.088L645.976 112.072C647.405 111.987 648.739 111.805 649.976 111.528C651.213 111.229 652.301 110.845 653.24 110.376C654.179 109.907 654.904 109.352 655.416 108.712C655.949 108.072 656.216 107.357 656.216 106.568V106.12ZM656.792 106.12H659.096V106.568C659.096 107.357 659.363 108.072 659.896 108.712C660.429 109.352 661.165 109.907 662.104 110.376C663.043 110.845 664.12 111.229 665.336 111.528C666.573 111.805 667.907 111.987 669.336 112.072L668.536 114.088C666.936 113.96 665.421 113.715 663.992 113.352C662.584 112.968 661.336 112.467 660.248 111.848C659.181 111.229 658.339 110.483 657.72 109.608C657.101 108.733 656.792 107.72 656.792 106.568V106.12ZM647.288 105.064H668.088V107.112H647.288V105.064ZM647.768 120.072H667.384V126.408H650.424V129.896H647.832V124.52H664.792V122.056H647.768V120.072ZM647.832 129.128H668.248V131.176H647.832V129.128Z" fill="black"/>
<path d="M808 98.8902L797.98 93.1505L798.019 104.697L808 98.8902ZM743 99.1098L743.003 100.11L799.003 99.9206L799 98.9206L798.996 97.9206L742.997 98.1098L743 99.1098Z" fill="black"/>
<rect x="818.5" y="39.5" width="179" height="119" fill="white" stroke="black"/>
<path d="M833.318 98.704H835.174C836.539 98.704 837.798 98.6827 838.95 98.64C840.102 98.5973 841.222 98.5227 842.31 98.416C843.398 98.288 844.529 98.1067 845.702 97.872L845.99 99.984C844.795 100.219 843.633 100.4 842.502 100.528C841.371 100.656 840.209 100.741 839.014 100.784C837.841 100.827 836.561 100.848 835.174 100.848H833.318V98.704ZM833.254 85.904H843.494V94.224H835.91V99.728H833.318V92.208H840.902V88.016H833.254V85.904ZM844.646 91.536H849.958V93.744H844.646V91.536ZM853.862 83.568H856.39V105.328H853.862V83.568ZM848.166 84.08H850.694V104.56H848.166V84.08ZM837.51 109.68H857.254V111.856H837.51V109.68ZM837.51 103.152H840.166V111.056H837.51V103.152ZM862.883 103.152H865.091C866.905 103.152 868.526 103.131 869.955 103.088C871.385 103.024 872.739 102.928 874.019 102.8C875.321 102.672 876.633 102.48 877.955 102.224L878.275 104.4C876.889 104.677 875.534 104.88 874.211 105.008C872.889 105.136 871.502 105.232 870.051 105.296C868.601 105.36 866.947 105.392 865.091 105.392H862.883V103.152ZM862.883 86.288H876.035V88.496H865.539V103.952H862.883V86.288ZM882.627 83.536H885.283V112.528H882.627V83.536ZM874.339 94.032H883.747V96.24H874.339V94.032ZM911.937 83.568H914.593V101.36H911.937V83.568ZM892.385 97.392H894.721C896.47 97.392 898.092 97.3707 899.585 97.328C901.1 97.2853 902.572 97.2 904.001 97.072C905.43 96.9227 906.913 96.7307 908.449 96.496L908.769 98.672C907.169 98.9067 905.633 99.0987 904.161 99.248C902.71 99.3973 901.217 99.4933 899.681 99.536C898.166 99.5787 896.513 99.6 894.721 99.6H892.385V97.392ZM892.321 85.392H905.441V93.36H894.977V98.64H892.385V91.312H902.849V87.568H892.321V85.392ZM905.057 101.968C908.086 101.968 910.465 102.427 912.193 103.344C913.921 104.24 914.785 105.52 914.785 107.184C914.785 108.848 913.921 110.139 912.193 111.056C910.465 111.973 908.086 112.432 905.057 112.432C902.049 112.432 899.681 111.973 897.953 111.056C896.225 110.139 895.361 108.848 895.361 107.184C895.361 105.52 896.225 104.24 897.953 103.344C899.681 102.427 902.049 101.968 905.057 101.968ZM905.057 104.08C903.606 104.08 902.348 104.208 901.281 104.464C900.214 104.699 899.393 105.051 898.817 105.52C898.262 105.968 897.985 106.523 897.985 107.184C897.985 107.845 898.262 108.411 898.817 108.88C899.393 109.349 900.214 109.712 901.281 109.968C902.348 110.203 903.606 110.32 905.057 110.32C906.529 110.32 907.788 110.203 908.833 109.968C909.9 109.712 910.71 109.349 911.265 108.88C911.841 108.411 912.129 107.845 912.129 107.184C912.129 106.523 911.841 105.968 911.265 105.52C910.71 105.051 909.9 104.699 908.833 104.464C907.788 104.208 906.529 104.08 905.057 104.08ZM936.454 86.512H938.63V88.848C938.63 90.6187 938.289 92.272 937.606 93.808C936.945 95.3227 936.017 96.6453 934.822 97.776C933.628 98.8853 932.22 99.728 930.598 100.304L929.19 98.256C930.641 97.744 931.91 97.008 932.998 96.048C934.086 95.088 934.929 94 935.526 92.784C936.145 91.5467 936.454 90.2347 936.454 88.848V86.512ZM936.934 86.512H939.11V88.848C939.11 90.1067 939.398 91.3227 939.974 92.496C940.55 93.6693 941.361 94.704 942.406 95.6C943.473 96.496 944.71 97.1893 946.118 97.68L944.774 99.76C943.196 99.184 941.809 98.3627 940.614 97.296C939.441 96.208 938.534 94.9387 937.894 93.488C937.254 92.0373 936.934 90.4907 936.934 88.848V86.512ZM929.99 85.552H945.478V87.728H929.99V85.552ZM949.126 83.536H951.782V100.976H949.126V83.536ZM951.046 91.152H956.038V93.392H951.046V91.152ZM932.966 102.512H951.782V112.496H949.126V104.688H932.966V102.512ZM973.284 90.448H981.06V92.624H973.284V90.448ZM966.66 84.88C968.089 84.88 969.359 85.168 970.468 85.744C971.599 86.2987 972.484 87.0773 973.124 88.08C973.764 89.0827 974.084 90.2453 974.084 91.568C974.084 92.8907 973.764 94.064 973.124 95.088C972.484 96.0907 971.599 96.88 970.468 97.456C969.359 98.0107 968.089 98.288 966.66 98.288C965.209 98.288 963.919 98.0107 962.788 97.456C961.679 96.88 960.804 96.0907 960.164 95.088C959.524 94.064 959.204 92.8907 959.204 91.568C959.204 90.2453 959.524 89.0827 960.164 88.08C960.804 87.0773 961.679 86.2987 962.788 85.744C963.919 85.168 965.209 84.88 966.66 84.88ZM966.66 87.12C965.7 87.12 964.847 87.312 964.1 87.696C963.375 88.0587 962.799 88.5813 962.372 89.264C961.945 89.9253 961.732 90.6933 961.732 91.568C961.732 92.4427 961.945 93.2213 962.372 93.904C962.799 94.5653 963.375 95.088 964.1 95.472C964.847 95.856 965.7 96.048 966.66 96.048C967.599 96.048 968.431 95.856 969.156 95.472C969.903 95.088 970.489 94.5653 970.916 93.904C971.343 93.2213 971.556 92.4427 971.556 91.568C971.556 90.6933 971.343 89.9253 970.916 89.264C970.489 88.5813 969.903 88.0587 969.156 87.696C968.431 87.312 967.599 87.12 966.66 87.12ZM979.908 83.536H982.564V99.088H979.908V83.536ZM964.036 100.528H966.66V104.144H979.908V100.528H982.564V112.112H964.036V100.528ZM966.66 106.256V109.936H979.908V106.256H966.66Z" fill="black"/>
<path d="M1073 98.8902L1062.98 93.1505L1063.02 104.697L1073 98.8902ZM1008 99.1098L1008 100.11L1064 99.9206L1064 98.9206L1064 97.9206L1008 98.1098L1008 99.1098Z" fill="black"/>
<rect x="1083.5" y="39.5" width="179" height="119" fill="#D9D9D9" stroke="black"/>
<path d="M1137.88 94C1137.63 93.2348 1137.3 92.5492 1136.89 91.9432C1136.49 91.3295 1136.01 90.8068 1135.45 90.375C1134.9 89.9432 1134.27 89.6136 1133.56 89.3864C1132.86 89.1591 1132.09 89.0455 1131.25 89.0455C1129.87 89.0455 1128.61 89.4015 1127.49 90.1136C1126.36 90.8258 1125.46 91.875 1124.79 93.2614C1124.13 94.6477 1123.79 96.3485 1123.79 98.3636C1123.79 100.379 1124.13 102.08 1124.8 103.466C1125.48 104.852 1126.39 105.902 1127.54 106.614C1128.69 107.326 1129.99 107.682 1131.43 107.682C1132.76 107.682 1133.94 107.398 1134.95 106.83C1135.97 106.254 1136.77 105.443 1137.34 104.398C1137.91 103.345 1138.2 102.106 1138.2 100.682L1139.06 100.864H1132.06V98.3636H1140.93V100.864C1140.93 102.78 1140.52 104.447 1139.7 105.864C1138.89 107.28 1137.77 108.379 1136.34 109.159C1134.91 109.932 1133.28 110.318 1131.43 110.318C1129.37 110.318 1127.56 109.833 1126 108.864C1124.44 107.894 1123.23 106.515 1122.36 104.727C1121.5 102.939 1121.06 100.818 1121.06 98.3636C1121.06 96.5227 1121.31 94.8674 1121.8 93.3977C1122.3 91.9205 1123.01 90.6629 1123.92 89.625C1124.83 88.5871 1125.9 87.7917 1127.14 87.2386C1128.39 86.6856 1129.75 86.4091 1131.25 86.4091C1132.47 86.4091 1133.62 86.5947 1134.68 86.9659C1135.75 87.3295 1136.7 87.8485 1137.53 88.5227C1138.37 89.1894 1139.07 89.9886 1139.63 90.9205C1140.19 91.8447 1140.58 92.8712 1140.79 94H1137.88ZM1152.48 110.364C1150.91 110.364 1149.52 109.989 1148.33 109.239C1147.15 108.489 1146.23 107.439 1145.56 106.091C1144.9 104.742 1144.57 103.167 1144.57 101.364C1144.57 99.5455 1144.9 97.9583 1145.56 96.6023C1146.23 95.2462 1147.15 94.1932 1148.33 93.4432C1149.52 92.6932 1150.91 92.3182 1152.48 92.3182C1154.06 92.3182 1155.44 92.6932 1156.62 93.4432C1157.81 94.1932 1158.73 95.2462 1159.39 96.6023C1160.06 97.9583 1160.39 99.5455 1160.39 101.364C1160.39 103.167 1160.06 104.742 1159.39 106.091C1158.73 107.439 1157.81 108.489 1156.62 109.239C1155.44 109.989 1154.06 110.364 1152.48 110.364ZM1152.48 107.955C1153.68 107.955 1154.66 107.648 1155.44 107.034C1156.21 106.42 1156.78 105.614 1157.15 104.614C1157.52 103.614 1157.71 102.53 1157.71 101.364C1157.71 100.197 1157.52 99.1098 1157.15 98.1023C1156.78 97.0947 1156.21 96.2803 1155.44 95.6591C1154.66 95.0379 1153.68 94.7273 1152.48 94.7273C1151.29 94.7273 1150.3 95.0379 1149.53 95.6591C1148.75 96.2803 1148.18 97.0947 1147.81 98.1023C1147.44 99.1098 1147.25 100.197 1147.25 101.364C1147.25 102.53 1147.44 103.614 1147.81 104.614C1148.18 105.614 1148.75 106.42 1149.53 107.034C1150.3 107.648 1151.29 107.955 1152.48 107.955ZM1171.58 110.364C1170 110.364 1168.62 109.989 1167.43 109.239C1166.25 108.489 1165.32 107.439 1164.66 106.091C1164 104.742 1163.67 103.167 1163.67 101.364C1163.67 99.5455 1164 97.9583 1164.66 96.6023C1165.32 95.2462 1166.25 94.1932 1167.43 93.4432C1168.62 92.6932 1170 92.3182 1171.58 92.3182C1173.15 92.3182 1174.53 92.6932 1175.71 93.4432C1176.9 94.1932 1177.83 95.2462 1178.49 96.6023C1179.15 97.9583 1179.49 99.5455 1179.49 101.364C1179.49 103.167 1179.15 104.742 1178.49 106.091C1177.83 107.439 1176.9 108.489 1175.71 109.239C1174.53 109.989 1173.15 110.364 1171.58 110.364ZM1171.58 107.955C1172.77 107.955 1173.76 107.648 1174.53 107.034C1175.3 106.42 1175.88 105.614 1176.25 104.614C1176.62 103.614 1176.8 102.53 1176.8 101.364C1176.8 100.197 1176.62 99.1098 1176.25 98.1023C1175.88 97.0947 1175.3 96.2803 1174.53 95.6591C1173.76 95.0379 1172.77 94.7273 1171.58 94.7273C1170.38 94.7273 1169.39 95.0379 1168.62 95.6591C1167.85 96.2803 1167.28 97.0947 1166.91 98.1023C1166.53 99.1098 1166.35 100.197 1166.35 101.364C1166.35 102.53 1166.53 103.614 1166.91 104.614C1167.28 105.614 1167.85 106.42 1168.62 107.034C1169.39 107.648 1170.38 107.955 1171.58 107.955ZM1190.62 116.909C1189.33 116.909 1188.22 116.742 1187.28 116.409C1186.35 116.083 1185.58 115.652 1184.95 115.114C1184.34 114.583 1183.85 114.015 1183.49 113.409L1185.62 111.909C1185.87 112.227 1186.17 112.591 1186.54 113C1186.92 113.417 1187.42 113.777 1188.07 114.08C1188.72 114.39 1189.57 114.545 1190.62 114.545C1192.03 114.545 1193.2 114.205 1194.11 113.523C1195.03 112.841 1195.49 111.773 1195.49 110.318V106.773H1195.26C1195.06 107.091 1194.78 107.485 1194.42 107.955C1194.06 108.417 1193.55 108.83 1192.87 109.193C1192.21 109.549 1191.31 109.727 1190.17 109.727C1188.76 109.727 1187.5 109.394 1186.37 108.727C1185.26 108.061 1184.38 107.091 1183.73 105.818C1183.08 104.545 1182.76 103 1182.76 101.182C1182.76 99.3939 1183.08 97.8371 1183.7 96.5114C1184.33 95.178 1185.21 94.1477 1186.33 93.4205C1187.45 92.6856 1188.75 92.3182 1190.22 92.3182C1191.35 92.3182 1192.25 92.5076 1192.92 92.8864C1193.59 93.2576 1194.11 93.6818 1194.47 94.1591C1194.83 94.6288 1195.11 95.0152 1195.31 95.3182H1195.58V92.5455H1198.17V110.5C1198.17 112 1197.83 113.22 1197.15 114.159C1196.47 115.106 1195.56 115.799 1194.42 116.239C1193.28 116.686 1192.02 116.909 1190.62 116.909ZM1190.53 107.318C1191.61 107.318 1192.52 107.072 1193.26 106.58C1194 106.087 1194.57 105.379 1194.95 104.455C1195.34 103.53 1195.53 102.424 1195.53 101.136C1195.53 99.8788 1195.34 98.7689 1194.97 97.8068C1194.59 96.8447 1194.03 96.0909 1193.28 95.5455C1192.54 95 1191.62 94.7273 1190.53 94.7273C1189.4 94.7273 1188.45 95.0152 1187.69 95.5909C1186.94 96.1667 1186.38 96.9394 1186 97.9091C1185.63 98.8788 1185.44 99.9545 1185.44 101.136C1185.44 102.348 1185.63 103.42 1186.01 104.352C1186.4 105.277 1186.97 106.004 1187.72 106.534C1188.47 107.057 1189.41 107.318 1190.53 107.318ZM1205.76 86.7273V110H1203.08V86.7273H1205.76ZM1217.99 110.364C1216.31 110.364 1214.86 109.992 1213.64 109.25C1212.43 108.5 1211.49 107.455 1210.83 106.114C1210.18 104.765 1209.85 103.197 1209.85 101.409C1209.85 99.6212 1210.18 98.0455 1210.83 96.6818C1211.49 95.3106 1212.41 94.2424 1213.58 93.4773C1214.76 92.7045 1216.14 92.3182 1217.72 92.3182C1218.63 92.3182 1219.52 92.4697 1220.41 92.7727C1221.3 93.0758 1222.1 93.5682 1222.83 94.25C1223.56 94.9242 1224.14 95.8182 1224.57 96.9318C1225 98.0455 1225.22 99.4167 1225.22 101.045V102.182H1211.76V99.8636H1222.49C1222.49 98.8788 1222.29 98 1221.9 97.2273C1221.51 96.4545 1220.96 95.8447 1220.24 95.3977C1219.53 94.9508 1218.69 94.7273 1217.72 94.7273C1216.65 94.7273 1215.73 94.9924 1214.95 95.5227C1214.17 96.0455 1213.58 96.7273 1213.16 97.5682C1212.74 98.4091 1212.54 99.3106 1212.54 100.273V101.818C1212.54 103.136 1212.76 104.254 1213.22 105.17C1213.68 106.08 1214.32 106.773 1215.14 107.25C1215.96 107.72 1216.91 107.955 1217.99 107.955C1218.7 107.955 1219.33 107.856 1219.9 107.659C1220.48 107.455 1220.97 107.152 1221.39 106.75C1221.81 106.341 1222.13 105.833 1222.35 105.227L1224.95 105.955C1224.67 106.833 1224.21 107.606 1223.57 108.273C1222.93 108.932 1222.13 109.447 1221.18 109.818C1220.24 110.182 1219.17 110.364 1217.99 110.364Z" fill="black"/>
<path d="M916.5 159L995.741 200.25H837.259L916.5 159Z" fill="#D9D9D9"/>
</g>
<rect width="1017" height="160" transform="translate(157 198)" fill="#D9D9D9"/>
<rect x="177.5" y="218.5" width="179" height="119" fill="white" stroke="black"/>
<path d="M183.943 269V245.727H186.761V256.091H199.17V245.727H201.989V269H199.17V258.591H186.761V269H183.943ZM206.358 248.227V245.727H223.812V248.227H216.494V269H213.676V248.227H206.358ZM228.162 245.727H231.526L239.435 265.045H239.707L247.616 245.727H250.98V269H248.344V251.318H248.116L240.844 269H238.298L231.026 251.318H230.798V269H228.162V245.727ZM256.631 269V245.727H259.449V266.5H270.267V269H256.631ZM278.267 265.818L278.085 267.045C277.956 267.909 277.759 268.833 277.494 269.818C277.237 270.803 276.968 271.731 276.688 272.602C276.407 273.473 276.176 274.167 275.994 274.682H273.949C274.047 274.197 274.176 273.557 274.335 272.761C274.494 271.966 274.653 271.076 274.812 270.091C274.979 269.114 275.116 268.114 275.222 267.091L275.358 265.818H278.267ZM311.327 253H308.509C308.342 252.189 308.05 251.477 307.634 250.864C307.224 250.25 306.724 249.735 306.134 249.318C305.55 248.894 304.902 248.576 304.19 248.364C303.478 248.152 302.736 248.045 301.963 248.045C300.554 248.045 299.277 248.402 298.134 249.114C296.997 249.826 296.092 250.875 295.418 252.261C294.751 253.648 294.418 255.348 294.418 257.364C294.418 259.379 294.751 261.08 295.418 262.466C296.092 263.852 296.997 264.902 298.134 265.614C299.277 266.326 300.554 266.682 301.963 266.682C302.736 266.682 303.478 266.576 304.19 266.364C304.902 266.152 305.55 265.837 306.134 265.42C306.724 264.996 307.224 264.477 307.634 263.864C308.05 263.242 308.342 262.53 308.509 261.727H311.327C311.115 262.917 310.728 263.981 310.168 264.92C309.607 265.86 308.91 266.659 308.077 267.318C307.243 267.97 306.308 268.466 305.27 268.807C304.24 269.148 303.137 269.318 301.963 269.318C299.978 269.318 298.213 268.833 296.668 267.864C295.122 266.894 293.906 265.515 293.02 263.727C292.134 261.939 291.69 259.818 291.69 257.364C291.69 254.909 292.134 252.788 293.02 251C293.906 249.212 295.122 247.833 296.668 246.864C298.213 245.894 299.978 245.409 301.963 245.409C303.137 245.409 304.24 245.58 305.27 245.92C306.308 246.261 307.243 246.761 308.077 247.42C308.91 248.072 309.607 248.867 310.168 249.807C310.728 250.739 311.115 251.803 311.327 253ZM328.608 251.545C328.472 250.394 327.919 249.5 326.949 248.864C325.979 248.227 324.79 247.909 323.381 247.909C322.35 247.909 321.449 248.076 320.676 248.409C319.911 248.742 319.313 249.201 318.881 249.784C318.456 250.367 318.244 251.03 318.244 251.773C318.244 252.394 318.392 252.928 318.688 253.375C318.991 253.814 319.377 254.182 319.847 254.477C320.316 254.765 320.809 255.004 321.324 255.193C321.839 255.375 322.312 255.523 322.744 255.636L325.108 256.273C325.714 256.432 326.388 256.652 327.131 256.932C327.881 257.212 328.597 257.595 329.278 258.08C329.968 258.557 330.536 259.17 330.983 259.92C331.43 260.67 331.653 261.591 331.653 262.682C331.653 263.939 331.324 265.076 330.665 266.091C330.013 267.106 329.059 267.913 327.801 268.511C326.551 269.11 325.032 269.409 323.244 269.409C321.578 269.409 320.134 269.14 318.915 268.602C317.703 268.064 316.748 267.314 316.051 266.352C315.362 265.39 314.972 264.273 314.881 263H317.79C317.866 263.879 318.161 264.606 318.676 265.182C319.199 265.75 319.858 266.174 320.653 266.455C321.456 266.727 322.32 266.864 323.244 266.864C324.32 266.864 325.286 266.689 326.142 266.341C326.998 265.985 327.676 265.492 328.176 264.864C328.676 264.227 328.926 263.485 328.926 262.636C328.926 261.864 328.71 261.235 328.278 260.75C327.847 260.265 327.278 259.871 326.574 259.568C325.869 259.265 325.108 259 324.29 258.773L321.426 257.955C319.608 257.432 318.169 256.686 317.108 255.716C316.047 254.746 315.517 253.477 315.517 251.909C315.517 250.606 315.869 249.47 316.574 248.5C317.286 247.523 318.241 246.765 319.438 246.227C320.642 245.682 321.987 245.409 323.472 245.409C324.972 245.409 326.305 245.678 327.472 246.216C328.638 246.746 329.563 247.473 330.244 248.398C330.934 249.322 331.297 250.371 331.335 251.545H328.608ZM349.014 251.545C348.878 250.394 348.325 249.5 347.355 248.864C346.385 248.227 345.196 247.909 343.787 247.909C342.757 247.909 341.855 248.076 341.082 248.409C340.317 248.742 339.719 249.201 339.287 249.784C338.863 250.367 338.651 251.03 338.651 251.773C338.651 252.394 338.798 252.928 339.094 253.375C339.397 253.814 339.783 254.182 340.253 254.477C340.723 254.765 341.215 255.004 341.73 255.193C342.245 255.375 342.719 255.523 343.151 255.636L345.514 256.273C346.12 256.432 346.795 256.652 347.537 256.932C348.287 257.212 349.003 257.595 349.685 258.08C350.374 258.557 350.942 259.17 351.389 259.92C351.836 260.67 352.06 261.591 352.06 262.682C352.06 263.939 351.73 265.076 351.071 266.091C350.42 267.106 349.465 267.913 348.207 268.511C346.957 269.11 345.438 269.409 343.651 269.409C341.984 269.409 340.541 269.14 339.321 268.602C338.109 268.064 337.154 267.314 336.457 266.352C335.768 265.39 335.378 264.273 335.287 263H338.196C338.272 263.879 338.567 264.606 339.082 265.182C339.605 265.75 340.264 266.174 341.06 266.455C341.863 266.727 342.726 266.864 343.651 266.864C344.726 266.864 345.692 266.689 346.548 266.341C347.404 265.985 348.082 265.492 348.582 264.864C349.082 264.227 349.332 263.485 349.332 262.636C349.332 261.864 349.116 261.235 348.685 260.75C348.253 260.265 347.685 259.871 346.98 259.568C346.276 259.265 345.514 259 344.696 258.773L341.832 257.955C340.014 257.432 338.575 256.686 337.514 255.716C336.454 254.746 335.923 253.477 335.923 251.909C335.923 250.606 336.276 249.47 336.98 248.5C337.692 247.523 338.647 246.765 339.844 246.227C341.048 245.682 342.393 245.409 343.878 245.409C345.378 245.409 346.711 245.678 347.878 246.216C349.045 246.746 349.969 247.473 350.651 248.398C351.34 249.322 351.704 250.371 351.741 251.545H349.014ZM240.015 284.64H256.142V286.816H240.015V284.64ZM239.631 303.328L239.311 301.088C241.039 301.088 242.927 301.077 244.975 301.056C247.023 301.013 249.124 300.939 251.279 300.832C253.433 300.704 255.492 300.523 257.455 300.288L257.615 302.272C255.609 302.592 253.54 302.827 251.407 302.976C249.273 303.125 247.193 303.221 245.167 303.264C243.161 303.307 241.316 303.328 239.631 303.328ZM243.119 286.304H245.711V301.696H243.119V286.304ZM250.447 286.304H253.007V301.696H250.447V286.304ZM259.247 281.536H261.903V310.496H259.247V281.536ZM261.295 293.12H266.639V295.328H261.295V293.12ZM290.156 281.568H292.812V298.816H290.156V281.568ZM283.276 299.488C285.281 299.488 287.009 299.701 288.46 300.128C289.911 300.555 291.031 301.173 291.82 301.984C292.609 302.795 293.004 303.787 293.004 304.96C293.004 306.091 292.609 307.072 291.82 307.904C291.031 308.715 289.911 309.333 288.46 309.76C287.009 310.187 285.281 310.4 283.276 310.4C281.271 310.4 279.543 310.187 278.092 309.76C276.641 309.333 275.521 308.715 274.732 307.904C273.964 307.072 273.58 306.091 273.58 304.96C273.58 303.787 273.964 302.795 274.732 301.984C275.521 301.173 276.641 300.555 278.092 300.128C279.543 299.701 281.271 299.488 283.276 299.488ZM283.276 301.6C281.804 301.6 280.535 301.739 279.468 302.016C278.423 302.272 277.612 302.645 277.036 303.136C276.481 303.627 276.204 304.235 276.204 304.96C276.204 305.643 276.481 306.24 277.036 306.752C277.612 307.243 278.423 307.627 279.468 307.904C280.535 308.16 281.804 308.288 283.276 308.288C284.748 308.288 286.007 308.16 287.052 307.904C288.097 307.627 288.908 307.243 289.484 306.752C290.06 306.24 290.348 305.643 290.348 304.96C290.348 304.235 290.06 303.627 289.484 303.136C288.908 302.645 288.097 302.272 287.052 302.016C286.007 301.739 284.748 301.6 283.276 301.6ZM276.62 282.848H278.828V285.664C278.828 287.499 278.487 289.227 277.804 290.848C277.143 292.448 276.193 293.856 274.956 295.072C273.74 296.267 272.321 297.184 270.7 297.824L269.356 295.68C270.444 295.275 271.425 294.731 272.3 294.048C273.196 293.365 273.964 292.587 274.604 291.712C275.265 290.816 275.767 289.856 276.108 288.832C276.449 287.808 276.62 286.752 276.62 285.664V282.848ZM277.1 282.848H279.308V285.664C279.308 286.709 279.479 287.712 279.82 288.672C280.183 289.611 280.684 290.496 281.324 291.328C281.964 292.139 282.732 292.853 283.628 293.472C284.524 294.091 285.505 294.581 286.572 294.944L285.26 297.056C284.044 296.608 282.935 296.021 281.932 295.296C280.929 294.549 280.065 293.685 279.34 292.704C278.636 291.701 278.081 290.613 277.676 289.44C277.292 288.245 277.1 286.987 277.1 285.664V282.848Z" fill="black"/>
<path d="M432 277.89L421.98 272.151L422.019 283.697L432 277.89ZM367 278.11L367.003 279.11L423.003 278.921L423 277.921L422.996 276.921L366.997 277.11L367 278.11Z" fill="black"/>
<rect x="442.5" y="218.5" width="179" height="119" fill="white" stroke="black"/>
<path d="M472.037 257.704H473.893C475.258 257.704 476.517 257.683 477.669 257.64C478.821 257.597 479.941 257.523 481.029 257.416C482.117 257.288 483.247 257.107 484.421 256.872L484.709 258.984C483.514 259.219 482.351 259.4 481.221 259.528C480.09 259.656 478.927 259.741 477.733 259.784C476.559 259.827 475.279 259.848 473.893 259.848H472.037V257.704ZM471.973 244.904H482.213V253.224H474.629V258.728H472.037V251.208H479.621V247.016H471.973V244.904ZM483.365 250.536H488.677V252.744H483.365V250.536ZM492.581 242.568H495.109V264.328H492.581V242.568ZM486.885 243.08H489.413V263.56H486.885V243.08ZM476.229 268.68H495.973V270.856H476.229V268.68ZM476.229 262.152H478.885V270.056H476.229V262.152ZM501.602 262.152H503.81C505.623 262.152 507.245 262.131 508.674 262.088C510.103 262.024 511.458 261.928 512.738 261.8C514.039 261.672 515.351 261.48 516.674 261.224L516.994 263.4C515.607 263.677 514.253 263.88 512.93 264.008C511.607 264.136 510.221 264.232 508.77 264.296C507.319 264.36 505.666 264.392 503.81 264.392H501.602V262.152ZM501.602 245.288H514.754V247.496H504.258V262.952H501.602V245.288ZM521.346 242.536H524.002V271.528H521.346V242.536ZM513.058 253.032H522.466V255.24H513.058V253.032ZM541.96 258.152H561.832V260.296H541.96V258.152ZM538.6 265.544H564.84V267.752H538.6V265.544ZM541.96 245.032H561.544V247.208H544.648V258.792H541.96V245.032ZM543.816 251.464H560.904V253.608H543.816V251.464ZM589.125 242.536H591.749V271.528H589.125V242.536ZM569.701 262.312H572.101C573.744 262.312 575.322 262.291 576.837 262.248C578.373 262.184 579.92 262.077 581.477 261.928C583.056 261.779 584.698 261.565 586.405 261.288L586.661 263.464C584.058 263.891 581.605 264.179 579.301 264.328C576.997 264.456 574.597 264.52 572.101 264.52H569.701V262.312ZM569.637 245.224H583.013V255.56H572.389V263.144H569.701V253.416H580.325V247.4H569.637V245.224ZM510.71 283.36H512.822V287.232C512.822 288.661 512.555 290.08 512.022 291.488C511.489 292.896 510.721 294.165 509.718 295.296C508.737 296.427 507.531 297.312 506.102 297.952L504.662 295.904C505.921 295.349 506.998 294.603 507.894 293.664C508.811 292.704 509.505 291.659 509.974 290.528C510.465 289.397 510.71 288.299 510.71 287.232V283.36ZM511.158 283.36H513.27V287.232C513.27 288.277 513.494 289.323 513.942 290.368C514.411 291.392 515.083 292.32 515.958 293.152C516.854 293.963 517.91 294.613 519.126 295.104L517.718 297.152C516.331 296.597 515.147 295.808 514.166 294.784C513.185 293.76 512.438 292.597 511.926 291.296C511.414 289.995 511.158 288.64 511.158 287.232V283.36ZM526.518 281.568H529.046V299.424H526.518V281.568ZM521.91 289.312H527.35V291.488H521.91V289.312ZM520.31 282.112H522.806V298.496H520.31V282.112ZM519.542 300.064C521.526 300.064 523.233 300.267 524.662 300.672C526.113 301.077 527.233 301.675 528.022 302.464C528.811 303.232 529.206 304.16 529.206 305.248C529.206 306.336 528.811 307.264 528.022 308.032C527.233 308.821 526.113 309.419 524.662 309.824C523.233 310.229 521.526 310.432 519.542 310.432C517.558 310.432 515.841 310.229 514.39 309.824C512.939 309.419 511.819 308.821 511.03 308.032C510.262 307.264 509.878 306.336 509.878 305.248C509.878 304.16 510.262 303.232 511.03 302.464C511.819 301.675 512.939 301.077 514.39 300.672C515.841 300.267 517.558 300.064 519.542 300.064ZM519.542 302.112C517.366 302.112 515.649 302.389 514.39 302.944C513.131 303.499 512.502 304.267 512.502 305.248C512.502 306.229 513.131 306.997 514.39 307.552C515.649 308.107 517.366 308.384 519.542 308.384C520.993 308.384 522.241 308.256 523.286 308C524.331 307.765 525.131 307.413 525.686 306.944C526.262 306.475 526.55 305.909 526.55 305.248C526.55 304.267 525.921 303.499 524.662 302.944C523.425 302.389 521.718 302.112 519.542 302.112ZM541.396 283.168H543.604V286.144C543.604 288.021 543.262 289.749 542.58 291.328C541.918 292.907 540.98 294.293 539.764 295.488C538.569 296.661 537.14 297.557 535.476 298.176L534.068 296.032C535.561 295.499 536.852 294.741 537.94 293.76C539.028 292.779 539.87 291.637 540.468 290.336C541.086 289.013 541.396 287.616 541.396 286.144V283.168ZM541.876 283.168H544.02V286.048C544.02 287.413 544.318 288.704 544.916 289.92C545.513 291.136 546.334 292.213 547.38 293.152C548.446 294.069 549.684 294.763 551.092 295.232L549.652 297.312C548.094 296.715 546.729 295.872 545.556 294.784C544.382 293.696 543.476 292.405 542.836 290.912C542.196 289.419 541.876 287.797 541.876 286.048V283.168ZM555.252 281.536H557.908V298.656H555.252V281.536ZM548.372 299.52C551.358 299.52 553.705 300 555.412 300.96C557.14 301.92 558.004 303.264 558.004 304.992C558.004 306.699 557.14 308.032 555.412 308.992C553.705 309.952 551.358 310.432 548.372 310.432C545.385 310.432 543.028 309.952 541.3 308.992C539.593 308.032 538.74 306.699 538.74 304.992C538.74 303.264 539.593 301.92 541.3 300.96C543.028 300 545.385 299.52 548.372 299.52ZM548.372 301.632C546.921 301.632 545.673 301.771 544.628 302.048C543.582 302.304 542.772 302.688 542.196 303.2C541.641 303.691 541.364 304.288 541.364 304.992C541.364 305.675 541.641 306.272 542.196 306.784C542.772 307.275 543.582 307.659 544.628 307.936C545.673 308.192 546.921 308.32 548.372 308.32C549.844 308.32 551.092 308.192 552.116 307.936C553.161 307.659 553.961 307.275 554.516 306.784C555.092 306.272 555.38 305.675 555.38 304.992C555.38 304.288 555.092 303.691 554.516 303.2C553.961 302.688 553.161 302.304 552.116 302.048C551.092 301.771 549.844 301.632 548.372 301.632ZM548.948 287.648H555.796V289.856H548.948V287.648Z" fill="black"/>
<path d="M696.999 277.89L686.98 272.151L687.019 283.697L696.999 277.89ZM632 278.11L632.003 279.11L688.003 278.921L687.999 277.921L687.996 276.921L631.996 277.11L632 278.11Z" fill="black"/>
<rect x="707.499" y="218.5" width="179" height="119" fill="white" stroke="black"/>
<path d="M740.684 262.152H742.604C744.354 262.152 746.082 262.109 747.788 262.024C749.516 261.917 751.372 261.693 753.356 261.352L753.58 263.528C751.554 263.891 749.666 264.125 747.916 264.232C746.188 264.317 744.418 264.36 742.604 264.36H740.684V262.152ZM740.62 245.736H750.924V255.784H743.244V263.08H740.684V253.64H748.364V247.912H740.62V245.736ZM761.74 242.536H764.268V271.496H761.74V242.536ZM752.3 252.936H757.004V255.144H752.3V252.936ZM755.884 243.24H758.38V269.96H755.884V243.24ZM790.186 242.536H792.842V271.528H790.186V242.536ZM777.578 244.776C779.007 244.776 780.266 245.192 781.354 246.024C782.463 246.835 783.327 247.997 783.946 249.512C784.586 251.027 784.906 252.808 784.906 254.856C784.906 256.904 784.586 258.685 783.946 260.2C783.327 261.715 782.463 262.888 781.354 263.72C780.266 264.552 779.007 264.968 777.578 264.968C776.148 264.968 774.879 264.552 773.77 263.72C772.66 262.888 771.786 261.715 771.146 260.2C770.527 258.685 770.218 256.904 770.218 254.856C770.218 252.808 770.527 251.027 771.146 249.512C771.786 247.997 772.66 246.835 773.77 246.024C774.879 245.192 776.148 244.776 777.578 244.776ZM777.578 247.144C776.618 247.144 775.775 247.464 775.05 248.104C774.346 248.723 773.791 249.619 773.386 250.792C772.98 251.944 772.778 253.299 772.778 254.856C772.778 256.413 772.98 257.779 773.386 258.952C773.791 260.104 774.346 261 775.05 261.64C775.775 262.28 776.618 262.6 777.578 262.6C778.516 262.6 779.338 262.28 780.042 261.64C780.767 261 781.332 260.104 781.738 258.952C782.143 257.779 782.346 256.413 782.346 254.856C782.346 253.299 782.143 251.944 781.738 250.792C781.332 249.619 780.767 248.723 780.042 248.104C779.338 247.464 778.516 247.144 777.578 247.144ZM806.279 244.776C807.709 244.776 808.967 245.192 810.055 246.024C811.143 246.835 811.997 247.997 812.615 249.512C813.234 251.027 813.543 252.808 813.543 254.856C813.543 256.904 813.234 258.685 812.615 260.2C811.997 261.715 811.143 262.888 810.055 263.72C808.967 264.552 807.709 264.968 806.279 264.968C804.871 264.968 803.613 264.552 802.503 263.72C801.415 262.888 800.562 261.715 799.943 260.2C799.325 258.685 799.015 256.904 799.015 254.856C799.015 252.808 799.325 251.027 799.943 249.512C800.562 247.997 801.415 246.835 802.503 246.024C803.613 245.192 804.871 244.776 806.279 244.776ZM806.279 247.144C805.362 247.144 804.541 247.464 803.815 248.104C803.111 248.723 802.557 249.619 802.151 250.792C801.746 251.944 801.543 253.299 801.543 254.856C801.543 256.413 801.746 257.779 802.151 258.952C802.557 260.104 803.111 261 803.815 261.64C804.541 262.28 805.373 262.6 806.311 262.6C807.229 262.6 808.039 262.28 808.743 261.64C809.469 261 810.023 260.104 810.407 258.952C810.813 257.779 811.015 256.413 811.015 254.856C811.015 253.299 810.813 251.944 810.407 250.792C810.023 249.619 809.469 248.723 808.743 248.104C808.039 247.464 807.218 247.144 806.279 247.144ZM818.183 242.536H820.839V271.496H818.183V242.536ZM820.231 254.088H825.575V256.328H820.231V254.088ZM828.037 255.752H854.245V257.96H828.037V255.752ZM839.749 256.712H842.373V261.128H839.749V256.712ZM839.685 262.472H841.957V263.368C841.957 264.456 841.669 265.459 841.093 266.376C840.517 267.272 839.706 268.072 838.661 268.776C837.615 269.459 836.421 270.013 835.077 270.44C833.733 270.888 832.303 271.197 830.789 271.368L829.925 269.32C831.247 269.192 832.495 268.957 833.669 268.616C834.842 268.275 835.877 267.837 836.773 267.304C837.669 266.771 838.373 266.173 838.885 265.512C839.418 264.829 839.685 264.115 839.685 263.368V262.472ZM840.165 262.472H842.405V263.368C842.405 264.157 842.661 264.883 843.173 265.544C843.706 266.205 844.421 266.803 845.317 267.336C846.234 267.848 847.279 268.275 848.453 268.616C849.626 268.957 850.863 269.192 852.165 269.32L851.333 271.368C849.818 271.197 848.389 270.888 847.045 270.44C845.701 270.013 844.506 269.469 843.461 268.808C842.437 268.125 841.626 267.325 841.029 266.408C840.453 265.491 840.165 264.477 840.165 263.368V262.472ZM841.093 242.984C843.183 242.984 844.986 243.187 846.501 243.592C848.037 243.997 849.21 244.605 850.021 245.416C850.853 246.205 851.269 247.165 851.269 248.296C851.269 249.405 850.853 250.355 850.021 251.144C849.21 251.933 848.037 252.541 846.501 252.968C844.986 253.395 843.183 253.608 841.093 253.608C839.002 253.608 837.189 253.395 835.653 252.968C834.138 252.541 832.965 251.933 832.133 251.144C831.322 250.355 830.917 249.405 830.917 248.296C830.917 247.165 831.322 246.205 832.133 245.416C832.965 244.605 834.138 243.997 835.653 243.592C837.189 243.187 839.002 242.984 841.093 242.984ZM841.093 245C839.557 245 838.234 245.139 837.125 245.416C836.015 245.672 835.151 246.045 834.533 246.536C833.935 247.005 833.637 247.592 833.637 248.296C833.637 248.979 833.935 249.565 834.533 250.056C835.151 250.525 836.015 250.888 837.125 251.144C838.234 251.4 839.557 251.528 841.093 251.528C842.65 251.528 843.983 251.4 845.093 251.144C846.202 250.888 847.055 250.525 847.653 250.056C848.25 249.565 848.549 248.979 848.549 248.296C848.549 247.592 848.25 247.005 847.653 246.536C847.055 246.045 846.202 245.672 845.093 245.416C843.983 245.139 842.65 245 841.093 245ZM759.377 298.182C759.377 295.318 759.748 292.686 760.491 290.284C761.241 287.875 762.309 285.659 763.695 283.636H766.059C765.513 284.386 765.002 285.311 764.525 286.409C764.055 287.5 763.642 288.701 763.286 290.011C762.93 291.314 762.65 292.663 762.445 294.057C762.248 295.451 762.15 296.826 762.15 298.182C762.15 299.985 762.324 301.814 762.673 303.67C763.021 305.527 763.491 307.25 764.082 308.841C764.673 310.432 765.332 311.727 766.059 312.727H763.695C762.309 310.705 761.241 308.492 760.491 306.091C759.748 303.682 759.377 301.045 759.377 298.182ZM770.186 284.288H772.714V291.328H778.794V284.288H781.258V303.264H770.186V284.288ZM772.714 293.472V301.088H778.794V293.472H772.714ZM791.21 281.536H793.77V310.496H791.21V281.536ZM786.57 292.992H792.138V295.2H786.57V292.992ZM784.778 282.144H787.306V309.024H784.778V282.144ZM819.623 281.536H822.311V310.496H819.623V281.536ZM806.631 288.416H808.775V290.912C808.775 292.448 808.573 293.941 808.167 295.392C807.762 296.821 807.186 298.155 806.439 299.392C805.714 300.629 804.85 301.717 803.847 302.656C802.866 303.595 801.789 304.341 800.615 304.896L799.143 302.848C800.21 302.357 801.191 301.696 802.087 300.864C803.005 300.032 803.794 299.093 804.455 298.048C805.138 296.981 805.671 295.84 806.055 294.624C806.439 293.408 806.631 292.171 806.631 290.912V288.416ZM807.111 288.416H809.255V290.912C809.255 292.107 809.447 293.291 809.831 294.464C810.215 295.616 810.749 296.704 811.431 297.728C812.114 298.731 812.914 299.627 813.831 300.416C814.749 301.205 815.751 301.845 816.839 302.336L815.367 304.384C814.194 303.851 813.106 303.136 812.103 302.24C811.101 301.323 810.226 300.277 809.479 299.104C808.733 297.909 808.146 296.619 807.719 295.232C807.314 293.845 807.111 292.405 807.111 290.912V288.416ZM799.911 286.56H815.847V288.704H799.911V286.56ZM806.599 282.08H809.255V287.744H806.599V282.08ZM834.619 298.182C834.619 301.045 834.244 303.682 833.494 306.091C832.751 308.492 831.687 310.705 830.3 312.727H827.937C828.482 311.977 828.99 311.053 829.459 309.955C829.937 308.864 830.353 307.667 830.709 306.364C831.066 305.053 831.342 303.701 831.539 302.307C831.744 300.905 831.846 299.53 831.846 298.182C831.846 296.379 831.672 294.549 831.323 292.693C830.975 290.837 830.505 289.114 829.914 287.523C829.323 285.932 828.664 284.636 827.937 283.636H830.3C831.687 285.659 832.751 287.875 833.494 290.284C834.244 292.686 834.619 295.318 834.619 298.182Z" fill="black"/>
<path d="M961.999 277.89L951.979 272.151L952.018 283.697L961.999 277.89ZM896.999 278.11L897.003 279.11L953.002 278.921L952.999 277.921L952.996 276.921L896.996 277.11L896.999 278.11Z" fill="black"/>
<rect x="972.499" y="218.5" width="179" height="119" fill="white" stroke="black"/>
<path d="M1041.59 242.536H1044.15V271.496H1041.59V242.536ZM1032.08 253.544H1036.85V255.912H1032.08V253.544ZM1035.99 243.24H1038.51V269.96H1035.99V243.24ZM1019.73 246.216H1032.91V248.392H1019.73V246.216ZM1019.44 264.36L1019.12 262.12C1020.08 262.12 1021.16 262.12 1022.35 262.12C1023.55 262.099 1024.8 262.067 1026.1 262.024C1027.4 261.96 1028.69 261.885 1029.97 261.8C1031.25 261.693 1032.45 261.565 1033.55 261.416L1033.75 263.4C1032.23 263.677 1030.6 263.891 1028.85 264.04C1027.12 264.168 1025.44 264.253 1023.79 264.296C1022.15 264.339 1020.7 264.36 1019.44 264.36ZM1022.1 247.624H1024.53V262.76H1022.1V247.624ZM1028.08 247.624H1030.55V262.76H1028.08V247.624ZM1069.94 242.568H1072.59V263.688H1069.94V242.568ZM1054 268.68H1073.49V270.856H1054V268.68ZM1054 261.544H1056.66V269.416H1054V261.544ZM1057.07 244.584C1058.52 244.584 1059.81 244.883 1060.94 245.48C1062.07 246.077 1062.97 246.92 1063.63 248.008C1064.29 249.075 1064.62 250.301 1064.62 251.688C1064.62 253.075 1064.29 254.312 1063.63 255.4C1062.97 256.467 1062.07 257.309 1060.94 257.928C1059.81 258.525 1058.52 258.824 1057.07 258.824C1055.64 258.824 1054.35 258.525 1053.2 257.928C1052.07 257.309 1051.17 256.467 1050.51 255.4C1049.85 254.312 1049.52 253.075 1049.52 251.688C1049.52 250.301 1049.85 249.075 1050.51 248.008C1051.17 246.92 1052.07 246.077 1053.2 245.48C1054.35 244.883 1055.64 244.584 1057.07 244.584ZM1057.07 246.888C1056.13 246.888 1055.29 247.091 1054.54 247.496C1053.8 247.901 1053.2 248.467 1052.75 249.192C1052.33 249.917 1052.11 250.749 1052.11 251.688C1052.11 252.648 1052.33 253.491 1052.75 254.216C1053.2 254.92 1053.8 255.475 1054.54 255.88C1055.29 256.285 1056.13 256.488 1057.07 256.488C1058.01 256.488 1058.85 256.285 1059.6 255.88C1060.37 255.475 1060.97 254.92 1061.39 254.216C1061.82 253.491 1062.03 252.648 1062.03 251.688C1062.03 250.749 1061.82 249.917 1061.39 249.192C1060.97 248.467 1060.37 247.901 1059.6 247.496C1058.85 247.091 1058.01 246.888 1057.07 246.888ZM1081.68 258.152H1101.55V260.296H1081.68V258.152ZM1078.32 265.544H1104.56V267.752H1078.32V265.544ZM1081.68 245.032H1101.26V247.208H1084.37V258.792H1081.68V245.032ZM1083.53 251.464H1100.62V253.608H1083.53V251.464ZM1009.66 298.182C1009.66 295.318 1010.03 292.686 1010.77 290.284C1011.52 287.875 1012.59 285.659 1013.98 283.636H1016.34C1015.79 284.386 1015.28 285.311 1014.81 286.409C1014.34 287.5 1013.92 288.701 1013.57 290.011C1013.21 291.314 1012.93 292.663 1012.73 294.057C1012.53 295.451 1012.43 296.826 1012.43 298.182C1012.43 299.985 1012.6 301.814 1012.95 303.67C1013.3 305.527 1013.77 307.25 1014.36 308.841C1014.95 310.432 1015.61 311.727 1016.34 312.727H1013.98C1012.59 310.705 1011.52 308.492 1010.77 306.091C1010.03 303.682 1009.66 301.045 1009.66 298.182ZM1022.29 284.608H1040.91V286.784H1022.29V284.608ZM1019.44 304.064H1045.59V306.272H1019.44V304.064ZM1039.47 284.608H1042.1V287.52C1042.1 288.736 1042.08 290.037 1042.03 291.424C1042.01 292.789 1041.93 294.304 1041.78 295.968C1041.63 297.632 1041.37 299.509 1041.01 301.6L1038.32 301.312C1038.71 299.349 1038.97 297.547 1039.12 295.904C1039.29 294.261 1039.39 292.747 1039.41 291.36C1039.45 289.973 1039.47 288.693 1039.47 287.52V284.608ZM1069.97 281.536H1072.59V310.528H1069.97V281.536ZM1050.54 301.312H1052.94C1054.59 301.312 1056.17 301.291 1057.68 301.248C1059.22 301.184 1060.76 301.077 1062.32 300.928C1063.9 300.779 1065.54 300.565 1067.25 300.288L1067.5 302.464C1064.9 302.891 1062.45 303.179 1060.14 303.328C1057.84 303.456 1055.44 303.52 1052.94 303.52H1050.54V301.312ZM1050.48 284.224H1063.86V294.56H1053.23V302.144H1050.54V292.416H1061.17V286.4H1050.48V284.224ZM1099.41 281.536H1102.06V310.496H1099.41V281.536ZM1090.93 284.672H1093.55C1093.55 286.763 1093.29 288.779 1092.78 290.72C1092.29 292.661 1091.51 294.507 1090.45 296.256C1089.38 297.984 1087.99 299.595 1086.29 301.088C1084.58 302.581 1082.51 303.915 1080.08 305.088L1078.67 302.944C1081.46 301.6 1083.77 300.032 1085.58 298.24C1087.39 296.448 1088.74 294.453 1089.61 292.256C1090.49 290.037 1090.93 287.648 1090.93 285.088V284.672ZM1080.01 284.672H1092.05V286.816H1080.01V284.672ZM1114.34 298.182C1114.34 301.045 1113.96 303.682 1113.21 306.091C1112.47 308.492 1111.41 310.705 1110.02 312.727H1107.66C1108.2 311.977 1108.71 311.053 1109.18 309.955C1109.66 308.864 1110.07 307.667 1110.43 306.364C1110.78 305.053 1111.06 303.701 1111.26 302.307C1111.46 300.905 1111.56 299.53 1111.56 298.182C1111.56 296.379 1111.39 294.549 1111.04 292.693C1110.69 290.837 1110.22 289.114 1109.63 287.523C1109.04 285.932 1108.38 284.636 1107.66 283.636H1110.02C1111.41 285.659 1112.47 287.875 1113.21 290.284C1113.96 292.686 1114.34 295.318 1114.34 298.182Z" fill="black"/>
<defs>
<clipPath id="clip0_4_105">
<rect width="1280" height="198" fill="white"/>
</clipPath>
</defs>
</svg>
