<svg width="1280" height="198" viewBox="0 0 1280 198" fill="none" xmlns="http://www.w3.org/2000/svg">
<rect x="17.5007" y="39.5" width="179" height="119" fill="#D9D9D9" stroke="black"/>
<path d="M35.9752 110V86.7273H50.0206V89.2273H38.7933V97.0909H49.2933V99.5909H38.7933V107.5H50.2024V110H35.9752ZM57.4183 99.5V110H54.7365V92.5455H57.3274V95.2727H57.5547C57.9638 94.3864 58.585 93.6742 59.4183 93.1364C60.2517 92.5909 61.3274 92.3182 62.6456 92.3182C63.8274 92.3182 64.8615 92.5606 65.7479 93.0455C66.6343 93.5227 67.3236 94.25 67.8161 95.2273C68.3085 96.197 68.5547 97.4242 68.5547 98.9091V110H65.8729V99.0909C65.8729 97.7197 65.5168 96.6515 64.8047 95.8864C64.0926 95.1136 63.1153 94.7273 61.8729 94.7273C61.0168 94.7273 60.2517 94.9129 59.5774 95.2841C58.9108 95.6553 58.3843 96.197 57.9979 96.9091C57.6115 97.6212 57.4183 98.4848 57.4183 99.5ZM81.0462 92.5455V94.8182H72.0007V92.5455H81.0462ZM74.6371 88.3636H77.3189V105C77.3189 105.758 77.4288 106.326 77.6485 106.705C77.8757 107.076 78.1636 107.326 78.5121 107.455C78.8682 107.576 79.2432 107.636 79.6371 107.636C79.9326 107.636 80.175 107.621 80.3644 107.591C80.5538 107.553 80.7053 107.523 80.8189 107.5L81.3644 109.909C81.1826 109.977 80.9288 110.045 80.603 110.114C80.2772 110.189 79.8644 110.227 79.3644 110.227C78.6068 110.227 77.8644 110.064 77.1371 109.739C76.4174 109.413 75.8189 108.917 75.3416 108.25C74.8719 107.583 74.6371 106.742 74.6371 105.727V88.3636ZM92.211 110.364C90.5291 110.364 89.0784 109.992 87.8587 109.25C86.6466 108.5 85.711 107.455 85.0519 106.114C84.4004 104.765 84.0746 103.197 84.0746 101.409C84.0746 99.6212 84.4004 98.0455 85.0519 96.6818C85.711 95.3106 86.6276 94.2424 87.8019 93.4773C88.9837 92.7045 90.3625 92.3182 91.9382 92.3182C92.8473 92.3182 93.7451 92.4697 94.6314 92.7727C95.5178 93.0758 96.3246 93.5682 97.0519 94.25C97.7791 94.9242 98.3587 95.8182 98.7905 96.9318C99.2223 98.0455 99.4382 99.4167 99.4382 101.045V102.182H85.9837V99.8636H96.711C96.711 98.8788 96.514 98 96.1201 97.2273C95.7337 96.4545 95.1807 95.8447 94.461 95.3977C93.7488 94.9508 92.9079 94.7273 91.9382 94.7273C90.8701 94.7273 89.9458 94.9924 89.1655 95.5227C88.3928 96.0455 87.7981 96.7273 87.3814 97.5682C86.9647 98.4091 86.7564 99.3106 86.7564 100.273V101.818C86.7564 103.136 86.9837 104.254 87.4382 105.17C87.9004 106.08 88.5405 106.773 89.3587 107.25C90.1769 107.72 91.1276 107.955 92.211 107.955C92.9155 107.955 93.5519 107.856 94.1201 107.659C94.6958 107.455 95.192 107.152 95.6087 106.75C96.0254 106.341 96.3473 105.833 96.5746 105.227L99.1655 105.955C98.8928 106.833 98.4344 107.606 97.7905 108.273C97.1466 108.932 96.3511 109.447 95.4041 109.818C94.4572 110.182 93.3928 110.364 92.211 110.364ZM103.518 110V92.5455H106.109V95.1818H106.291C106.609 94.3182 107.184 93.6174 108.018 93.0795C108.851 92.5417 109.791 92.2727 110.836 92.2727C111.033 92.2727 111.279 92.2765 111.575 92.2841C111.87 92.2917 112.094 92.303 112.245 92.3182V95.0455C112.154 95.0227 111.946 94.9886 111.62 94.9432C111.302 94.8902 110.965 94.8636 110.609 94.8636C109.76 94.8636 109.003 95.0417 108.336 95.3977C107.677 95.7462 107.154 96.2311 106.768 96.8523C106.389 97.4659 106.2 98.1667 106.2 98.9545V110H103.518ZM144.625 83.536H147.281V99.088H144.625V83.536ZM128.657 100.528H131.249V104.016H144.657V100.528H147.281V112.112H128.657V100.528ZM131.249 106.128V109.936H144.657V106.128H131.249ZM131.761 84.912C133.233 84.912 134.535 85.2 135.665 85.776C136.796 86.3307 137.681 87.1093 138.321 88.112C138.983 89.1147 139.313 90.2773 139.313 91.6C139.313 92.9013 138.983 94.064 138.321 95.088C137.681 96.0907 136.796 96.8693 135.665 97.424C134.535 97.9787 133.233 98.256 131.761 98.256C130.311 98.256 129.009 97.9787 127.857 97.424C126.727 96.8693 125.831 96.0907 125.169 95.088C124.529 94.064 124.209 92.9013 124.209 91.6C124.209 90.2773 124.529 89.1147 125.169 88.112C125.831 87.1093 126.727 86.3307 127.857 85.776C129.009 85.2 130.311 84.912 131.761 84.912ZM131.761 87.152C130.801 87.152 129.948 87.344 129.201 87.728C128.455 88.0907 127.868 88.6133 127.441 89.296C127.015 89.9573 126.801 90.7253 126.801 91.6C126.801 92.4533 127.015 93.2213 127.441 93.904C127.868 94.5653 128.455 95.088 129.201 95.472C129.948 95.856 130.801 96.048 131.761 96.048C132.721 96.048 133.575 95.856 134.321 95.472C135.068 95.088 135.655 94.5653 136.081 93.904C136.508 93.2213 136.721 92.4533 136.721 91.6C136.721 90.7253 136.508 89.9573 136.081 89.296C135.655 88.6133 135.068 88.0907 134.321 87.728C133.575 87.344 132.721 87.152 131.761 87.152ZM154.223 97.904H156.271C158.17 97.904 159.791 97.8933 161.135 97.872C162.5 97.8293 163.738 97.7547 164.847 97.648C165.978 97.5413 167.119 97.3813 168.271 97.168L168.527 99.344C167.652 99.4933 166.788 99.6213 165.935 99.728C165.082 99.8133 164.186 99.8773 163.247 99.92C162.308 99.9627 161.274 99.9947 160.143 100.016C159.012 100.037 157.722 100.048 156.271 100.048H154.223V97.904ZM154.159 85.296H166.607V93.488H156.847V99.184H154.223V91.44H163.983V87.44H154.159V85.296ZM174.159 83.568H176.815V101.36H174.159V83.568ZM168.527 87.856H174.767V90H168.527V87.856ZM168.527 93.84H174.767V96.016H168.527V93.84ZM157.455 102.896H176.815V112.528H174.159V105.072H157.455V102.896Z" fill="black"/>
<path d="M272 98.8902L261.981 93.1505L262.02 104.697L272 98.8902ZM207.001 99.1098L207.004 100.11L263.004 99.9206L263 98.9206L262.997 97.9206L206.997 98.1098L207.001 99.1098Z" fill="black"/>
<rect x="285.5" y="39.5" width="179" height="119" fill="white" stroke="black"/>
<path d="M304.844 63.536H307.5V79.088H304.844V63.536ZM288.876 80.528H291.468V84.016H304.876V80.528H307.5V92.112H288.876V80.528ZM291.468 86.128V89.936H304.876V86.128H291.468ZM291.98 64.912C293.452 64.912 294.753 65.2 295.884 65.776C297.015 66.3307 297.9 67.1093 298.54 68.112C299.201 69.1147 299.532 70.2773 299.532 71.6C299.532 72.9013 299.201 74.064 298.54 75.088C297.9 76.0907 297.015 76.8693 295.884 77.424C294.753 77.9787 293.452 78.256 291.98 78.256C290.529 78.256 289.228 77.9787 288.076 77.424C286.945 76.8693 286.049 76.0907 285.388 75.088C284.748 74.064 284.428 72.9013 284.428 71.6C284.428 70.2773 284.748 69.1147 285.388 68.112C286.049 67.1093 286.945 66.3307 288.076 65.776C289.228 65.2 290.529 64.912 291.98 64.912ZM291.98 67.152C291.02 67.152 290.167 67.344 289.42 67.728C288.673 68.0907 288.087 68.6133 287.66 69.296C287.233 69.9573 287.02 70.7253 287.02 71.6C287.02 72.4533 287.233 73.2213 287.66 73.904C288.087 74.5653 288.673 75.088 289.42 75.472C290.167 75.856 291.02 76.048 291.98 76.048C292.94 76.048 293.793 75.856 294.54 75.472C295.287 75.088 295.873 74.5653 296.3 73.904C296.727 73.2213 296.94 72.4533 296.94 71.6C296.94 70.7253 296.727 69.9573 296.3 69.296C295.873 68.6133 295.287 68.0907 294.54 67.728C293.793 67.344 292.94 67.152 291.98 67.152ZM314.441 77.904H316.489C318.388 77.904 320.009 77.8933 321.353 77.872C322.719 77.8293 323.956 77.7547 325.065 77.648C326.196 77.5413 327.337 77.3813 328.489 77.168L328.745 79.344C327.871 79.4933 327.007 79.6213 326.153 79.728C325.3 79.8133 324.404 79.8773 323.465 79.92C322.527 79.9627 321.492 79.9947 320.361 80.016C319.231 80.0373 317.94 80.048 316.489 80.048H314.441V77.904ZM314.377 65.296H326.825V73.488H317.065V79.184H314.441V71.44H324.201V67.44H314.377V65.296ZM334.377 63.568H337.033V81.36H334.377V63.568ZM328.745 67.856H334.985V70H328.745V67.856ZM328.745 73.84H334.985V76.016H328.745V73.84ZM317.673 82.896H337.033V92.528H334.377V85.072H317.673V82.896ZM362.471 63.568H365.127V85.264H362.471V63.568ZM364.295 73.072H369.383V75.28H364.295V73.072ZM342.727 67.088H359.815V69.232H342.727V67.088ZM351.271 70.8C352.636 70.8 353.842 71.0347 354.887 71.504C355.932 71.952 356.743 72.5813 357.319 73.392C357.895 74.1813 358.183 75.12 358.183 76.208C358.183 77.296 357.895 78.2453 357.319 79.056C356.743 79.8453 355.932 80.464 354.887 80.912C353.842 81.36 352.636 81.584 351.271 81.584C349.906 81.584 348.7 81.36 347.655 80.912C346.61 80.464 345.788 79.8453 345.191 79.056C344.615 78.2453 344.327 77.296 344.327 76.208C344.327 75.12 344.615 74.1813 345.191 73.392C345.788 72.5813 346.61 71.952 347.655 71.504C348.7 71.0347 349.906 70.8 351.271 70.8ZM351.271 72.88C349.97 72.88 348.914 73.1893 348.103 73.808C347.292 74.4053 346.887 75.2053 346.887 76.208C346.887 77.2107 347.292 78.0107 348.103 78.608C348.914 79.2053 349.97 79.504 351.271 79.504C352.594 79.504 353.65 79.2053 354.439 78.608C355.25 78.0107 355.655 77.2107 355.655 76.208C355.655 75.2053 355.25 74.4053 354.439 73.808C353.65 73.1893 352.594 72.88 351.271 72.88ZM349.959 63.568H352.615V68.176H349.959V63.568ZM347.111 89.68H366.407V91.856H347.111V89.68ZM347.111 83.536H349.735V90.576H347.111V83.536ZM393.548 71.152H398.476V73.328H393.548V71.152ZM382.412 77.584H384.236C385.751 77.584 387.084 77.5733 388.236 77.552C389.41 77.5093 390.508 77.4347 391.532 77.328C392.556 77.2 393.591 77.0293 394.636 76.816L394.924 78.96C393.815 79.1733 392.738 79.344 391.692 79.472C390.647 79.5787 389.527 79.6533 388.332 79.696C387.159 79.7173 385.794 79.728 384.236 79.728H382.412V77.584ZM382.412 65.616H393.356V67.76H384.972V78.512H382.412V65.616ZM384.172 71.472H392.204V73.552H384.172V71.472ZM385.996 82.832H405.484V92.496H402.86V85.008H385.996V82.832ZM402.956 63.568H405.484V81.456H402.956V63.568ZM397.356 64.176H399.884V81.232H397.356V64.176ZM422.122 65.52H424.458V67.76C424.458 69.0187 424.234 70.2133 423.786 71.344C423.359 72.4747 422.762 73.5307 421.994 74.512C421.247 75.472 420.373 76.336 419.37 77.104C418.389 77.872 417.333 78.5227 416.202 79.056C415.093 79.5893 413.962 79.9947 412.81 80.272L411.626 78.064C412.629 77.8507 413.631 77.52 414.634 77.072C415.658 76.624 416.618 76.08 417.514 75.44C418.41 74.7787 419.199 74.0427 419.882 73.232C420.586 72.4213 421.13 71.5573 421.514 70.64C421.919 69.7013 422.122 68.7413 422.122 67.76V65.52ZM422.634 65.52H424.906V67.76C424.906 68.7413 425.109 69.7013 425.514 70.64C425.919 71.5573 426.463 72.4213 427.146 73.232C427.85 74.0427 428.65 74.7787 429.546 75.44C430.442 76.08 431.391 76.6347 432.394 77.104C433.418 77.552 434.442 77.872 435.466 78.064L434.25 80.272C433.098 79.9947 431.967 79.5893 430.858 79.056C429.749 78.5227 428.693 77.872 427.69 77.104C426.709 76.336 425.834 75.472 425.066 74.512C424.298 73.5307 423.701 72.4747 423.274 71.344C422.847 70.2133 422.634 69.0187 422.634 67.76V65.52ZM410.538 86.384H436.778V88.592H410.538V86.384ZM443.335 79.152H463.207V81.296H443.335V79.152ZM439.975 86.544H466.215V88.752H439.975V86.544ZM443.335 66.032H462.919V68.208H446.023V79.792H443.335V66.032ZM445.191 72.464H462.279V74.608H445.191V72.464ZM328.681 110.056H335.177V112.264H328.681V110.056ZM334.377 102.536H337.033V119.784H334.377V102.536ZM327.497 120.68C329.503 120.68 331.22 120.893 332.649 121.32C334.1 121.747 335.209 122.365 335.977 123.176C336.745 123.965 337.129 124.936 337.129 126.088C337.129 127.795 336.265 129.117 334.537 130.056C332.831 130.995 330.484 131.464 327.497 131.464C324.511 131.464 322.153 130.995 320.425 130.056C318.719 129.117 317.865 127.795 317.865 126.088C317.865 124.936 318.249 123.965 319.017 123.176C319.807 122.365 320.916 121.747 322.345 121.32C323.796 120.893 325.513 120.68 327.497 120.68ZM327.497 122.76C326.047 122.76 324.799 122.888 323.753 123.144C322.708 123.4 321.897 123.773 321.321 124.264C320.767 124.755 320.489 125.363 320.489 126.088C320.489 126.771 320.767 127.357 321.321 127.848C321.897 128.339 322.708 128.723 323.753 129C324.799 129.256 326.047 129.384 327.497 129.384C328.969 129.384 330.217 129.256 331.241 129C332.287 128.723 333.087 128.339 333.641 127.848C334.217 127.357 334.505 126.771 334.505 126.088C334.505 125.363 334.217 124.755 333.641 124.264C333.087 123.773 332.287 123.4 331.241 123.144C330.217 122.888 328.969 122.76 327.497 122.76ZM320.585 105.48H322.761V107.816C322.761 109.587 322.42 111.251 321.737 112.808C321.076 114.344 320.137 115.699 318.921 116.872C317.705 118.024 316.297 118.909 314.697 119.528L313.321 117.416C314.409 117.032 315.391 116.509 316.265 115.848C317.161 115.187 317.929 114.429 318.569 113.576C319.231 112.723 319.732 111.805 320.073 110.824C320.415 109.843 320.585 108.84 320.585 107.816V105.48ZM321.097 105.48H323.273V107.784C323.273 109.021 323.561 110.227 324.137 111.4C324.713 112.573 325.535 113.608 326.601 114.504C327.668 115.4 328.895 116.104 330.281 116.616L328.937 118.728C327.359 118.152 325.983 117.32 324.809 116.232C323.636 115.123 322.719 113.843 322.057 112.392C321.417 110.941 321.097 109.405 321.097 107.784V105.48ZM314.153 104.648H329.609V106.824H314.153V104.648ZM342.663 125.608H368.903V127.816H342.663V125.608ZM354.407 118.664H357.031V126.248H354.407V118.664ZM345.735 104.584H348.391V109.736H363.111V104.584H365.735V119.4H345.735V104.584ZM348.391 111.912V117.224H363.111V111.912H348.391ZM388.684 116.136H391.308V119.816H388.684V116.136ZM400.876 102.568H403.532V121.96H400.876V102.568ZM402.412 111.304H407.756V113.512H402.412V111.304ZM381.26 121.128L380.94 118.984C382.668 118.984 384.556 118.973 386.604 118.952C388.674 118.909 390.786 118.824 392.94 118.696C395.095 118.568 397.164 118.365 399.148 118.088L399.34 119.976C397.292 120.339 395.191 120.605 393.036 120.776C390.903 120.925 388.823 121.021 386.796 121.064C384.791 121.107 382.946 121.128 381.26 121.128ZM384.492 123.432H403.532V131.496H400.876V125.544H384.492V123.432ZM381.676 105.16H398.284V107.176H381.676V105.16ZM389.964 108.264C392.012 108.264 393.644 108.648 394.86 109.416C396.098 110.184 396.716 111.229 396.716 112.552C396.716 113.875 396.098 114.92 394.86 115.688C393.644 116.456 392.012 116.84 389.964 116.84C387.938 116.84 386.306 116.456 385.068 115.688C383.831 114.92 383.212 113.875 383.212 112.552C383.212 111.229 383.831 110.184 385.068 109.416C386.306 108.648 387.938 108.264 389.964 108.264ZM389.964 110.12C388.684 110.12 387.66 110.333 386.892 110.76C386.124 111.187 385.74 111.784 385.74 112.552C385.74 113.277 386.124 113.875 386.892 114.344C387.66 114.792 388.684 115.016 389.964 115.016C391.244 115.016 392.268 114.792 393.036 114.344C393.804 113.875 394.188 113.277 394.188 112.552C394.188 111.784 393.804 111.187 393.036 110.76C392.268 110.333 391.244 110.12 389.964 110.12ZM388.684 102.312H391.308V106.152H388.684V102.312ZM431.594 102.568H434.25V123.688H431.594V102.568ZM415.658 128.68H435.146V130.856H415.658V128.68ZM415.658 121.544H418.314V129.416H415.658V121.544ZM418.73 104.584C420.181 104.584 421.471 104.883 422.602 105.48C423.733 106.077 424.629 106.92 425.29 108.008C425.951 109.075 426.282 110.301 426.282 111.688C426.282 113.075 425.951 114.312 425.29 115.4C424.629 116.467 423.733 117.309 422.602 117.928C421.471 118.525 420.181 118.824 418.73 118.824C417.301 118.824 416.01 118.525 414.858 117.928C413.727 117.309 412.831 116.467 412.17 115.4C411.509 114.312 411.178 113.075 411.178 111.688C411.178 110.301 411.509 109.075 412.17 108.008C412.831 106.92 413.727 106.077 414.858 105.48C416.01 104.883 417.301 104.584 418.73 104.584ZM418.73 106.888C417.791 106.888 416.949 107.091 416.202 107.496C415.455 107.901 414.858 108.467 414.41 109.192C413.983 109.917 413.77 110.749 413.77 111.688C413.77 112.648 413.983 113.491 414.41 114.216C414.858 114.92 415.455 115.475 416.202 115.88C416.949 116.285 417.791 116.488 418.73 116.488C419.669 116.488 420.511 116.285 421.258 115.88C422.026 115.475 422.623 114.92 423.05 114.216C423.477 113.491 423.69 112.648 423.69 111.688C423.69 110.749 423.477 109.917 423.05 109.192C422.623 108.467 422.026 107.901 421.258 107.496C420.511 107.091 419.669 106.888 418.73 106.888Z" fill="black"/>
<path d="M543 98.8902L532.981 93.1505L533.02 104.697L543 98.8902ZM478 99.1098L478.004 100.11L534.003 99.9206L534 98.9206L533.997 97.9206L477.997 98.1098L478 99.1098Z" fill="black"/>
<rect x="553.5" y="39.5" width="179" height="119" fill="white" stroke="black"/>
<path d="M587.101 66.64H589.757V83.6H587.101V66.64ZM587.101 82.864H588.957C590.642 82.864 592.296 82.8107 593.917 82.704C595.56 82.576 597.288 82.32 599.101 81.936L599.485 84.208C597.586 84.6133 595.794 84.88 594.109 85.008C592.445 85.1147 590.728 85.168 588.957 85.168H587.101V82.864ZM607.773 63.536H610.333V92.496H607.773V63.536ZM595.165 73.264H602.365V75.44H595.165V73.264ZM601.629 64.24H604.157V91.024H601.629V64.24ZM618.523 79.152H638.395V81.296H618.523V79.152ZM615.163 86.544H641.403V88.752H615.163V86.544ZM618.523 66.032H638.107V68.208H621.211V79.792H618.523V66.032ZM620.379 72.464H637.467V74.608H620.379V72.464ZM652.44 79.696H655.096V91.6H652.44V79.696ZM665.688 63.568H668.376V92.496H665.688V63.568ZM644.824 81.008L644.472 78.768C646.307 78.768 648.291 78.7573 650.424 78.736C652.579 78.6933 654.776 78.608 657.016 78.48C659.256 78.352 661.421 78.1387 663.512 77.84L663.672 79.824C661.517 80.1867 659.331 80.4533 657.112 80.624C654.893 80.7947 652.739 80.9013 650.648 80.944C648.557 80.9867 646.616 81.008 644.824 81.008ZM659.16 83.312H666.392V85.392H659.16V83.312ZM653.912 64.976C655.341 64.976 656.6 65.2213 657.688 65.712C658.776 66.1813 659.629 66.8427 660.248 67.696C660.867 68.528 661.176 69.52 661.176 70.672C661.176 71.824 660.867 72.8267 660.248 73.68C659.629 74.5333 658.776 75.1947 657.688 75.664C656.6 76.1333 655.341 76.368 653.912 76.368C652.504 76.368 651.245 76.1333 650.136 75.664C649.048 75.1947 648.195 74.5333 647.576 73.68C646.957 72.8267 646.648 71.824 646.648 70.672C646.648 69.52 646.957 68.528 647.576 67.696C648.195 66.8427 649.048 66.1813 650.136 65.712C651.245 65.2213 652.504 64.976 653.912 64.976ZM653.912 67.024C652.973 67.024 652.141 67.184 651.416 67.504C650.712 67.8027 650.157 68.2293 649.752 68.784C649.347 69.3387 649.144 69.968 649.144 70.672C649.144 71.3973 649.347 72.0373 649.752 72.592C650.157 73.1467 650.712 73.5733 651.416 73.872C652.141 74.1707 652.973 74.32 653.912 74.32C654.851 74.32 655.672 74.1707 656.376 73.872C657.08 73.5733 657.635 73.1467 658.04 72.592C658.445 72.0373 658.648 71.3973 658.648 70.672C658.648 69.968 658.445 69.3387 658.04 68.784C657.635 68.2293 657.08 67.8027 656.376 67.504C655.672 67.184 654.851 67.024 653.912 67.024ZM677.174 66.48H695.51V68.656H677.174V66.48ZM674.038 86.256H700.182V88.464H674.038V86.256ZM694.39 66.48H696.982V70.032C696.982 71.44 696.96 72.8587 696.918 74.288C696.896 75.696 696.8 77.2 696.63 78.8C696.459 80.3787 696.171 82.16 695.766 84.144L693.11 83.888C693.536 82.032 693.835 80.3253 694.006 78.768C694.198 77.1893 694.304 75.6853 694.326 74.256C694.368 72.8267 694.39 71.4187 694.39 70.032V66.48ZM695.03 74.48V76.496L676.758 77.456L676.374 75.28L695.03 74.48ZM616.443 106.792H639.963V108.968H616.443V106.792ZM615.163 125.928H641.403V128.104H615.163V125.928ZM626.907 121.32H629.531V126.76H626.907V121.32ZM628.219 110.888C630.16 110.888 631.835 111.112 633.243 111.56C634.672 111.987 635.771 112.605 636.539 113.416C637.307 114.227 637.691 115.219 637.691 116.392C637.691 117.544 637.307 118.536 636.539 119.368C635.771 120.2 634.672 120.84 633.243 121.288C631.835 121.715 630.16 121.928 628.219 121.928C626.277 121.928 624.592 121.715 623.163 121.288C621.755 120.84 620.667 120.2 619.899 119.368C619.131 118.536 618.747 117.544 618.747 116.392C618.747 115.219 619.131 114.227 619.899 113.416C620.667 112.605 621.755 111.987 623.163 111.56C624.592 111.112 626.277 110.888 628.219 110.888ZM628.219 113C626.811 113 625.595 113.139 624.571 113.416C623.568 113.672 622.789 114.056 622.235 114.568C621.701 115.059 621.435 115.667 621.435 116.392C621.435 117.096 621.701 117.704 622.235 118.216C622.789 118.728 623.568 119.123 624.571 119.4C625.595 119.656 626.811 119.784 628.219 119.784C629.627 119.784 630.832 119.656 631.835 119.4C632.837 119.123 633.616 118.728 634.171 118.216C634.725 117.704 635.003 117.096 635.003 116.392C635.003 115.667 634.725 115.059 634.171 114.568C633.616 114.056 632.837 113.672 631.835 113.416C630.832 113.139 629.627 113 628.219 113ZM626.907 103.016H629.531V108.104H626.907V103.016ZM656.344 116.968H658.968V121.32H656.344V116.968ZM644.632 115.4H670.712V117.416H644.632V115.4ZM656.344 102.376H658.968V105.864H656.344V102.376ZM656.216 106.12H658.552V106.568C658.552 107.72 658.243 108.733 657.624 109.608C657.005 110.483 656.152 111.229 655.064 111.848C653.976 112.467 652.717 112.968 651.288 113.352C649.88 113.715 648.376 113.96 646.776 114.088L645.976 112.072C647.405 111.987 648.739 111.805 649.976 111.528C651.213 111.229 652.301 110.845 653.24 110.376C654.179 109.907 654.904 109.352 655.416 108.712C655.949 108.072 656.216 107.357 656.216 106.568V106.12ZM656.792 106.12H659.096V106.568C659.096 107.357 659.363 108.072 659.896 108.712C660.429 109.352 661.165 109.907 662.104 110.376C663.043 110.845 664.12 111.229 665.336 111.528C666.573 111.805 667.907 111.987 669.336 112.072L668.536 114.088C666.936 113.96 665.421 113.715 663.992 113.352C662.584 112.968 661.336 112.467 660.248 111.848C659.181 111.229 658.339 110.483 657.72 109.608C657.101 108.733 656.792 107.72 656.792 106.568V106.12ZM647.288 105.064H668.088V107.112H647.288V105.064ZM647.768 120.072H667.384V126.408H650.424V129.896H647.832V124.52H664.792V122.056H647.768V120.072ZM647.832 129.128H668.248V131.176H647.832V129.128Z" fill="black"/>
<path d="M808 98.8902L797.98 93.1505L798.019 104.697L808 98.8902ZM743 99.1098L743.003 100.11L799.003 99.9206L799 98.9206L798.996 97.9206L742.997 98.1098L743 99.1098Z" fill="black"/>
<rect x="818.5" y="39.5" width="179" height="119" fill="white" stroke="black"/>
<path d="M833.318 98.704H835.174C836.539 98.704 837.798 98.6827 838.95 98.64C840.102 98.5973 841.222 98.5227 842.31 98.416C843.398 98.288 844.529 98.1067 845.702 97.872L845.99 99.984C844.795 100.219 843.633 100.4 842.502 100.528C841.371 100.656 840.209 100.741 839.014 100.784C837.841 100.827 836.561 100.848 835.174 100.848H833.318V98.704ZM833.254 85.904H843.494V94.224H835.91V99.728H833.318V92.208H840.902V88.016H833.254V85.904ZM844.646 91.536H849.958V93.744H844.646V91.536ZM853.862 83.568H856.39V105.328H853.862V83.568ZM848.166 84.08H850.694V104.56H848.166V84.08ZM837.51 109.68H857.254V111.856H837.51V109.68ZM837.51 103.152H840.166V111.056H837.51V103.152ZM862.883 103.152H865.091C866.905 103.152 868.526 103.131 869.955 103.088C871.385 103.024 872.739 102.928 874.019 102.8C875.321 102.672 876.633 102.48 877.955 102.224L878.275 104.4C876.889 104.677 875.534 104.88 874.211 105.008C872.889 105.136 871.502 105.232 870.051 105.296C868.601 105.36 866.947 105.392 865.091 105.392H862.883V103.152ZM862.883 86.288H876.035V88.496H865.539V103.952H862.883V86.288ZM882.627 83.536H885.283V112.528H882.627V83.536ZM874.339 94.032H883.747V96.24H874.339V94.032ZM911.937 83.568H914.593V101.36H911.937V83.568ZM892.385 97.392H894.721C896.47 97.392 898.092 97.3707 899.585 97.328C901.1 97.2853 902.572 97.2 904.001 97.072C905.43 96.9227 906.913 96.7307 908.449 96.496L908.769 98.672C907.169 98.9067 905.633 99.0987 904.161 99.248C902.71 99.3973 901.217 99.4933 899.681 99.536C898.166 99.5787 896.513 99.6 894.721 99.6H892.385V97.392ZM892.321 85.392H905.441V93.36H894.977V98.64H892.385V91.312H902.849V87.568H892.321V85.392ZM905.057 101.968C908.086 101.968 910.465 102.427 912.193 103.344C913.921 104.24 914.785 105.52 914.785 107.184C914.785 108.848 913.921 110.139 912.193 111.056C910.465 111.973 908.086 112.432 905.057 112.432C902.049 112.432 899.681 111.973 897.953 111.056C896.225 110.139 895.361 108.848 895.361 107.184C895.361 105.52 896.225 104.24 897.953 103.344C899.681 102.427 902.049 101.968 905.057 101.968ZM905.057 104.08C903.606 104.08 902.348 104.208 901.281 104.464C900.214 104.699 899.393 105.051 898.817 105.52C898.262 105.968 897.985 106.523 897.985 107.184C897.985 107.845 898.262 108.411 898.817 108.88C899.393 109.349 900.214 109.712 901.281 109.968C902.348 110.203 903.606 110.32 905.057 110.32C906.529 110.32 907.788 110.203 908.833 109.968C909.9 109.712 910.71 109.349 911.265 108.88C911.841 108.411 912.129 107.845 912.129 107.184C912.129 106.523 911.841 105.968 911.265 105.52C910.71 105.051 909.9 104.699 908.833 104.464C907.788 104.208 906.529 104.08 905.057 104.08ZM936.454 86.512H938.63V88.848C938.63 90.6187 938.289 92.272 937.606 93.808C936.945 95.3227 936.017 96.6453 934.822 97.776C933.628 98.8853 932.22 99.728 930.598 100.304L929.19 98.256C930.641 97.744 931.91 97.008 932.998 96.048C934.086 95.088 934.929 94 935.526 92.784C936.145 91.5467 936.454 90.2347 936.454 88.848V86.512ZM936.934 86.512H939.11V88.848C939.11 90.1067 939.398 91.3227 939.974 92.496C940.55 93.6693 941.361 94.704 942.406 95.6C943.473 96.496 944.71 97.1893 946.118 97.68L944.774 99.76C943.196 99.184 941.809 98.3627 940.614 97.296C939.441 96.208 938.534 94.9387 937.894 93.488C937.254 92.0373 936.934 90.4907 936.934 88.848V86.512ZM929.99 85.552H945.478V87.728H929.99V85.552ZM949.126 83.536H951.782V100.976H949.126V83.536ZM951.046 91.152H956.038V93.392H951.046V91.152ZM932.966 102.512H951.782V112.496H949.126V104.688H932.966V102.512ZM973.284 90.448H981.06V92.624H973.284V90.448ZM966.66 84.88C968.089 84.88 969.359 85.168 970.468 85.744C971.599 86.2987 972.484 87.0773 973.124 88.08C973.764 89.0827 974.084 90.2453 974.084 91.568C974.084 92.8907 973.764 94.064 973.124 95.088C972.484 96.0907 971.599 96.88 970.468 97.456C969.359 98.0107 968.089 98.288 966.66 98.288C965.209 98.288 963.919 98.0107 962.788 97.456C961.679 96.88 960.804 96.0907 960.164 95.088C959.524 94.064 959.204 92.8907 959.204 91.568C959.204 90.2453 959.524 89.0827 960.164 88.08C960.804 87.0773 961.679 86.2987 962.788 85.744C963.919 85.168 965.209 84.88 966.66 84.88ZM966.66 87.12C965.7 87.12 964.847 87.312 964.1 87.696C963.375 88.0587 962.799 88.5813 962.372 89.264C961.945 89.9253 961.732 90.6933 961.732 91.568C961.732 92.4427 961.945 93.2213 962.372 93.904C962.799 94.5653 963.375 95.088 964.1 95.472C964.847 95.856 965.7 96.048 966.66 96.048C967.599 96.048 968.431 95.856 969.156 95.472C969.903 95.088 970.489 94.5653 970.916 93.904C971.343 93.2213 971.556 92.4427 971.556 91.568C971.556 90.6933 971.343 89.9253 970.916 89.264C970.489 88.5813 969.903 88.0587 969.156 87.696C968.431 87.312 967.599 87.12 966.66 87.12ZM979.908 83.536H982.564V99.088H979.908V83.536ZM964.036 100.528H966.66V104.144H979.908V100.528H982.564V112.112H964.036V100.528ZM966.66 106.256V109.936H979.908V106.256H966.66Z" fill="black"/>
<path d="M1073 98.8902L1062.98 93.1505L1063.02 104.697L1073 98.8902ZM1008 99.1098L1008 100.11L1064 99.9206L1064 98.9206L1064 97.9206L1008 98.1098L1008 99.1098Z" fill="black"/>
<rect x="1083.5" y="39.5" width="179" height="119" fill="#D9D9D9" stroke="black"/>
<path d="M1137.88 94C1137.63 93.2348 1137.3 92.5492 1136.89 91.9432C1136.49 91.3295 1136.01 90.8068 1135.45 90.375C1134.9 89.9432 1134.27 89.6136 1133.56 89.3864C1132.86 89.1591 1132.09 89.0455 1131.25 89.0455C1129.87 89.0455 1128.61 89.4015 1127.49 90.1136C1126.36 90.8258 1125.46 91.875 1124.79 93.2614C1124.13 94.6477 1123.79 96.3485 1123.79 98.3636C1123.79 100.379 1124.13 102.08 1124.8 103.466C1125.48 104.852 1126.39 105.902 1127.54 106.614C1128.69 107.326 1129.99 107.682 1131.43 107.682C1132.76 107.682 1133.94 107.398 1134.95 106.83C1135.97 106.254 1136.77 105.443 1137.34 104.398C1137.91 103.345 1138.2 102.106 1138.2 100.682L1139.06 100.864H1132.06V98.3636H1140.93V100.864C1140.93 102.78 1140.52 104.447 1139.7 105.864C1138.89 107.28 1137.77 108.379 1136.34 109.159C1134.91 109.932 1133.28 110.318 1131.43 110.318C1129.37 110.318 1127.56 109.833 1126 108.864C1124.44 107.894 1123.23 106.515 1122.36 104.727C1121.5 102.939 1121.06 100.818 1121.06 98.3636C1121.06 96.5227 1121.31 94.8674 1121.8 93.3977C1122.3 91.9205 1123.01 90.6629 1123.92 89.625C1124.83 88.5871 1125.9 87.7917 1127.14 87.2386C1128.39 86.6856 1129.75 86.4091 1131.25 86.4091C1132.47 86.4091 1133.62 86.5947 1134.68 86.9659C1135.75 87.3295 1136.7 87.8485 1137.53 88.5227C1138.37 89.1894 1139.07 89.9886 1139.63 90.9205C1140.19 91.8447 1140.58 92.8712 1140.79 94H1137.88ZM1152.48 110.364C1150.91 110.364 1149.52 109.989 1148.33 109.239C1147.15 108.489 1146.23 107.439 1145.56 106.091C1144.9 104.742 1144.57 103.167 1144.57 101.364C1144.57 99.5455 1144.9 97.9583 1145.56 96.6023C1146.23 95.2462 1147.15 94.1932 1148.33 93.4432C1149.52 92.6932 1150.91 92.3182 1152.48 92.3182C1154.06 92.3182 1155.44 92.6932 1156.62 93.4432C1157.81 94.1932 1158.73 95.2462 1159.39 96.6023C1160.06 97.9583 1160.39 99.5455 1160.39 101.364C1160.39 103.167 1160.06 104.742 1159.39 106.091C1158.73 107.439 1157.81 108.489 1156.62 109.239C1155.44 109.989 1154.06 110.364 1152.48 110.364ZM1152.48 107.955C1153.68 107.955 1154.66 107.648 1155.44 107.034C1156.21 106.42 1156.78 105.614 1157.15 104.614C1157.52 103.614 1157.71 102.53 1157.71 101.364C1157.71 100.197 1157.52 99.1098 1157.15 98.1023C1156.78 97.0947 1156.21 96.2803 1155.44 95.6591C1154.66 95.0379 1153.68 94.7273 1152.48 94.7273C1151.29 94.7273 1150.3 95.0379 1149.53 95.6591C1148.75 96.2803 1148.18 97.0947 1147.81 98.1023C1147.44 99.1098 1147.25 100.197 1147.25 101.364C1147.25 102.53 1147.44 103.614 1147.81 104.614C1148.18 105.614 1148.75 106.42 1149.53 107.034C1150.3 107.648 1151.29 107.955 1152.48 107.955ZM1171.58 110.364C1170 110.364 1168.62 109.989 1167.43 109.239C1166.25 108.489 1165.32 107.439 1164.66 106.091C1164 104.742 1163.67 103.167 1163.67 101.364C1163.67 99.5455 1164 97.9583 1164.66 96.6023C1165.32 95.2462 1166.25 94.1932 1167.43 93.4432C1168.62 92.6932 1170 92.3182 1171.58 92.3182C1173.15 92.3182 1174.53 92.6932 1175.71 93.4432C1176.9 94.1932 1177.83 95.2462 1178.49 96.6023C1179.15 97.9583 1179.49 99.5455 1179.49 101.364C1179.49 103.167 1179.15 104.742 1178.49 106.091C1177.83 107.439 1176.9 108.489 1175.71 109.239C1174.53 109.989 1173.15 110.364 1171.58 110.364ZM1171.58 107.955C1172.77 107.955 1173.76 107.648 1174.53 107.034C1175.3 106.42 1175.88 105.614 1176.25 104.614C1176.62 103.614 1176.8 102.53 1176.8 101.364C1176.8 100.197 1176.62 99.1098 1176.25 98.1023C1175.88 97.0947 1175.3 96.2803 1174.53 95.6591C1173.76 95.0379 1172.77 94.7273 1171.58 94.7273C1170.38 94.7273 1169.39 95.0379 1168.62 95.6591C1167.85 96.2803 1167.28 97.0947 1166.91 98.1023C1166.53 99.1098 1166.35 100.197 1166.35 101.364C1166.35 102.53 1166.53 103.614 1166.91 104.614C1167.28 105.614 1167.85 106.42 1168.62 107.034C1169.39 107.648 1170.38 107.955 1171.58 107.955ZM1190.62 116.909C1189.33 116.909 1188.22 116.742 1187.28 116.409C1186.35 116.083 1185.58 115.652 1184.95 115.114C1184.34 114.583 1183.85 114.015 1183.49 113.409L1185.62 111.909C1185.87 112.227 1186.17 112.591 1186.54 113C1186.92 113.417 1187.42 113.777 1188.07 114.08C1188.72 114.39 1189.57 114.545 1190.62 114.545C1192.03 114.545 1193.2 114.205 1194.11 113.523C1195.03 112.841 1195.49 111.773 1195.49 110.318V106.773H1195.26C1195.06 107.091 1194.78 107.485 1194.42 107.955C1194.06 108.417 1193.55 108.83 1192.87 109.193C1192.21 109.549 1191.31 109.727 1190.17 109.727C1188.76 109.727 1187.5 109.394 1186.37 108.727C1185.26 108.061 1184.38 107.091 1183.73 105.818C1183.08 104.545 1182.76 103 1182.76 101.182C1182.76 99.3939 1183.08 97.8371 1183.7 96.5114C1184.33 95.178 1185.21 94.1477 1186.33 93.4205C1187.45 92.6856 1188.75 92.3182 1190.22 92.3182C1191.35 92.3182 1192.25 92.5076 1192.92 92.8864C1193.59 93.2576 1194.11 93.6818 1194.47 94.1591C1194.83 94.6288 1195.11 95.0152 1195.31 95.3182H1195.58V92.5455H1198.17V110.5C1198.17 112 1197.83 113.22 1197.15 114.159C1196.47 115.106 1195.56 115.799 1194.42 116.239C1193.28 116.686 1192.02 116.909 1190.62 116.909ZM1190.53 107.318C1191.61 107.318 1192.52 107.072 1193.26 106.58C1194 106.087 1194.57 105.379 1194.95 104.455C1195.34 103.53 1195.53 102.424 1195.53 101.136C1195.53 99.8788 1195.34 98.7689 1194.97 97.8068C1194.59 96.8447 1194.03 96.0909 1193.28 95.5455C1192.54 95 1191.62 94.7273 1190.53 94.7273C1189.4 94.7273 1188.45 95.0152 1187.69 95.5909C1186.94 96.1667 1186.38 96.9394 1186 97.9091C1185.63 98.8788 1185.44 99.9545 1185.44 101.136C1185.44 102.348 1185.63 103.42 1186.01 104.352C1186.4 105.277 1186.97 106.004 1187.72 106.534C1188.47 107.057 1189.41 107.318 1190.53 107.318ZM1205.76 86.7273V110H1203.08V86.7273H1205.76ZM1217.99 110.364C1216.31 110.364 1214.86 109.992 1213.64 109.25C1212.43 108.5 1211.49 107.455 1210.83 106.114C1210.18 104.765 1209.85 103.197 1209.85 101.409C1209.85 99.6212 1210.18 98.0455 1210.83 96.6818C1211.49 95.3106 1212.41 94.2424 1213.58 93.4773C1214.76 92.7045 1216.14 92.3182 1217.72 92.3182C1218.63 92.3182 1219.52 92.4697 1220.41 92.7727C1221.3 93.0758 1222.1 93.5682 1222.83 94.25C1223.56 94.9242 1224.14 95.8182 1224.57 96.9318C1225 98.0455 1225.22 99.4167 1225.22 101.045V102.182H1211.76V99.8636H1222.49C1222.49 98.8788 1222.29 98 1221.9 97.2273C1221.51 96.4545 1220.96 95.8447 1220.24 95.3977C1219.53 94.9508 1218.69 94.7273 1217.72 94.7273C1216.65 94.7273 1215.73 94.9924 1214.95 95.5227C1214.17 96.0455 1213.58 96.7273 1213.16 97.5682C1212.74 98.4091 1212.54 99.3106 1212.54 100.273V101.818C1212.54 103.136 1212.76 104.254 1213.22 105.17C1213.68 106.08 1214.32 106.773 1215.14 107.25C1215.96 107.72 1216.91 107.955 1217.99 107.955C1218.7 107.955 1219.33 107.856 1219.9 107.659C1220.48 107.455 1220.97 107.152 1221.39 106.75C1221.81 106.341 1222.13 105.833 1222.35 105.227L1224.95 105.955C1224.67 106.833 1224.21 107.606 1223.57 108.273C1222.93 108.932 1222.13 109.447 1221.18 109.818C1220.24 110.182 1219.17 110.364 1217.99 110.364Z" fill="black"/>
</svg>
