<svg width="1221" height="497" viewBox="0 0 1221 497" fill="none" xmlns="http://www.w3.org/2000/svg">
<rect x="135" y="214" width="194" height="70" fill="#D9D9D9"/>
<path d="M163.334 234.912H181.958V237.056H163.334V234.912ZM180.23 234.912H182.854V237.12C182.854 238.336 182.812 239.68 182.726 241.152C182.662 242.603 182.417 244.288 181.99 246.208L179.398 245.92C179.825 244.043 180.07 242.411 180.134 241.024C180.198 239.616 180.23 238.315 180.23 237.12V234.912ZM180.998 239.776V241.664L162.982 242.464L162.63 240.352L180.998 239.776ZM160.038 245.376H186.118V247.52H160.038V245.376ZM163.078 250.24H183.046V256.992H165.766V260.896H163.142V255.008H180.422V252.32H163.078V250.24ZM163.142 260H184.07V262.112H163.142V260ZM209.06 233.536H211.684V262.528H209.06V233.536ZM211.076 245.024H216.42V247.264H211.076V245.024ZM190.628 253.312H192.932C194.724 253.312 196.366 253.291 197.86 253.248C199.374 253.184 200.836 253.088 202.244 252.96C203.652 252.811 205.081 252.597 206.532 252.32L206.788 254.496C205.294 254.773 203.833 254.987 202.404 255.136C200.996 255.285 199.524 255.392 197.988 255.456C196.452 255.52 194.766 255.552 192.932 255.552H190.628V253.312ZM190.564 236.224H203.62V246.624H193.252V254.208H190.628V244.416H200.996V238.4H190.564V236.224ZM239.905 233.536H242.561V262.528H239.905V233.536ZM227.297 235.776C228.727 235.776 229.985 236.192 231.073 237.024C232.183 237.835 233.047 238.997 233.665 240.512C234.305 242.027 234.625 243.808 234.625 245.856C234.625 247.904 234.305 249.685 233.665 251.2C233.047 252.715 232.183 253.888 231.073 254.72C229.985 255.552 228.727 255.968 227.297 255.968C225.868 255.968 224.599 255.552 223.489 254.72C222.38 253.888 221.505 252.715 220.865 251.2C220.247 249.685 219.937 247.904 219.937 245.856C219.937 243.808 220.247 242.027 220.865 240.512C221.505 238.997 222.38 237.835 223.489 237.024C224.599 236.192 225.868 235.776 227.297 235.776ZM227.297 238.144C226.337 238.144 225.495 238.464 224.769 239.104C224.065 239.723 223.511 240.619 223.105 241.792C222.7 242.944 222.497 244.299 222.497 245.856C222.497 247.413 222.7 248.779 223.105 249.952C223.511 251.104 224.065 252 224.769 252.64C225.495 253.28 226.337 253.6 227.297 253.6C228.236 253.6 229.057 253.28 229.761 252.64C230.487 252 231.052 251.104 231.457 249.952C231.863 248.779 232.065 247.413 232.065 245.856C232.065 244.299 231.863 242.944 231.457 241.792C231.052 240.619 230.487 239.723 229.761 239.104C229.057 238.464 228.236 238.144 227.297 238.144ZM262.719 241.568H270.655V243.744H262.719V241.568ZM269.471 233.568H272.127V254.88H269.471V233.568ZM253.663 259.68H272.927V261.856H253.663V259.68ZM253.663 252.736H256.287V260.608H253.663V252.736ZM256.223 235.424C257.631 235.424 258.889 235.733 259.999 236.352C261.129 236.949 262.015 237.792 262.655 238.88C263.316 239.947 263.647 241.173 263.647 242.56C263.647 243.968 263.316 245.216 262.655 246.304C262.015 247.371 261.129 248.213 259.999 248.832C258.889 249.429 257.631 249.728 256.223 249.728C254.793 249.728 253.513 249.429 252.383 248.832C251.273 248.213 250.388 247.371 249.727 246.304C249.087 245.216 248.767 243.968 248.767 242.56C248.767 241.173 249.087 239.947 249.727 238.88C250.388 237.792 251.273 236.949 252.383 236.352C253.513 235.733 254.793 235.424 256.223 235.424ZM256.223 237.76C255.284 237.76 254.441 237.963 253.695 238.368C252.969 238.773 252.383 239.339 251.935 240.064C251.508 240.789 251.295 241.621 251.295 242.56C251.295 243.52 251.508 244.363 251.935 245.088C252.383 245.813 252.969 246.389 253.695 246.816C254.441 247.221 255.284 247.424 256.223 247.424C257.14 247.424 257.972 247.221 258.719 246.816C259.465 246.389 260.052 245.813 260.479 245.088C260.905 244.363 261.119 243.52 261.119 242.56C261.119 241.621 260.905 240.789 260.479 240.064C260.052 239.339 259.465 238.773 258.719 238.368C257.972 237.963 257.14 237.76 256.223 237.76ZM281.116 249.152H300.988V251.296H281.116V249.152ZM277.756 256.544H303.996V258.752H277.756V256.544ZM281.116 236.032H300.7V238.208H283.804V249.792H281.116V236.032ZM282.972 242.464H300.06V244.608H282.972V242.464Z" fill="black"/>
<rect x="988" y="62" width="194" height="70" fill="#D9D9D9"/>
<path d="M1025.1 84.64H1027.76V101.6H1025.1V84.64ZM1025.1 100.864H1026.96C1028.64 100.864 1030.3 100.811 1031.92 100.704C1033.56 100.576 1035.29 100.32 1037.1 99.936L1037.49 102.208C1035.59 102.613 1033.79 102.88 1032.11 103.008C1030.45 103.115 1028.73 103.168 1026.96 103.168H1025.1V100.864ZM1045.77 81.536H1048.33V110.496H1045.77V81.536ZM1033.17 91.264H1040.37V93.44H1033.17V91.264ZM1039.63 82.24H1042.16V109.024H1039.63V82.24ZM1074.22 81.568H1076.87V98.08H1074.22V81.568ZM1058.19 99.648H1076.87V110.112H1058.19V99.648ZM1074.28 101.792H1060.78V107.936H1074.28V101.792ZM1061.35 83.072C1062.83 83.072 1064.13 83.36 1065.26 83.936C1066.39 84.512 1067.27 85.312 1067.91 86.336C1068.58 87.3387 1068.91 88.512 1068.91 89.856C1068.91 91.1787 1068.58 92.352 1067.91 93.376C1067.27 94.3787 1066.39 95.168 1065.26 95.744C1064.13 96.32 1062.83 96.608 1061.35 96.608C1059.9 96.608 1058.6 96.32 1057.45 95.744C1056.32 95.168 1055.42 94.3787 1054.76 93.376C1054.12 92.352 1053.8 91.1787 1053.8 89.856C1053.8 88.512 1054.12 87.3387 1054.76 86.336C1055.42 85.312 1056.32 84.512 1057.45 83.936C1058.6 83.36 1059.9 83.072 1061.35 83.072ZM1061.35 85.312C1060.42 85.312 1059.57 85.504 1058.83 85.888C1058.08 86.272 1057.48 86.8053 1057.03 87.488C1056.61 88.1493 1056.39 88.9387 1056.39 89.856C1056.39 90.7307 1056.61 91.5093 1057.03 92.192C1057.48 92.8747 1058.08 93.408 1058.83 93.792C1059.57 94.176 1060.42 94.368 1061.35 94.368C1062.31 94.368 1063.17 94.176 1063.91 93.792C1064.66 93.408 1065.25 92.8747 1065.67 92.192C1066.1 91.5093 1066.31 90.7307 1066.31 89.856C1066.31 88.9387 1066.1 88.1493 1065.67 87.488C1065.25 86.8053 1064.66 86.272 1063.91 85.888C1063.17 85.504 1062.31 85.312 1061.35 85.312ZM1106.06 91.36H1114.1V93.536H1106.06V91.36ZM1099.06 84.032H1101.23V89.216C1101.23 90.816 1101.03 92.3947 1100.62 93.952C1100.24 95.5093 1099.69 96.96 1098.96 98.304C1098.23 99.648 1097.38 100.843 1096.4 101.888C1095.44 102.933 1094.38 103.765 1093.23 104.384L1091.57 102.24C1092.63 101.728 1093.62 101.013 1094.51 100.096C1095.43 99.1787 1096.23 98.1333 1096.91 96.96C1097.59 95.7653 1098.12 94.5173 1098.48 93.216C1098.86 91.8933 1099.06 90.56 1099.06 89.216V84.032ZM1099.6 84.032H1101.74V89.216C1101.74 90.5173 1101.93 91.808 1102.29 93.088C1102.67 94.368 1103.21 95.5733 1103.89 96.704C1104.57 97.8133 1105.36 98.8053 1106.26 99.68C1107.17 100.555 1108.15 101.237 1109.2 101.728L1107.6 103.872C1106.45 103.275 1105.38 102.475 1104.4 101.472C1103.42 100.469 1102.57 99.3173 1101.84 98.016C1101.14 96.7147 1100.58 95.3173 1100.18 93.824C1099.79 92.3307 1099.6 90.7947 1099.6 89.216V84.032ZM1112.78 81.536H1115.41V110.528H1112.78V81.536ZM1142.22 81.536H1144.85V110.528H1142.22V81.536ZM1134.61 92.288H1142.99V94.464H1134.61V92.288ZM1122.19 83.808H1124.85V91.328H1132.88V83.808H1135.47V103.232H1122.19V83.808ZM1124.85 93.44V101.056H1132.88V93.44H1124.85Z" fill="black"/>
<rect x="988" y="374" width="194" height="70" fill="#D9D9D9"/>
<path d="M1026.99 395.424H1045.1V397.568H1026.99V395.424ZM1023.73 407.84H1049.87V410.048H1023.73V407.84ZM1035.41 409.312H1038.06V422.528H1035.41V409.312ZM1043.82 395.424H1046.45V397.952C1046.45 398.955 1046.42 400.011 1046.38 401.12C1046.36 402.229 1046.27 403.456 1046.13 404.8C1045.98 406.123 1045.72 407.595 1045.36 409.216L1042.7 408.864C1043.28 406.539 1043.61 404.501 1043.69 402.752C1043.78 401.003 1043.82 399.403 1043.82 397.952V395.424ZM1056.49 394.784H1075.11V396.928H1056.49V394.784ZM1053.16 404.32H1079.4V406.464H1053.16V404.32ZM1073.39 394.784H1076.01V396.64C1076.01 397.664 1075.98 398.869 1075.91 400.256C1075.85 401.621 1075.63 403.189 1075.24 404.96L1072.62 404.672C1073 402.923 1073.23 401.397 1073.29 400.096C1073.35 398.795 1073.39 397.643 1073.39 396.64V394.784ZM1056.27 409.344H1076.07V416.672H1058.95V420.704H1056.33V414.624H1073.45V411.456H1056.27V409.344ZM1056.33 420.032H1076.81V422.144H1056.33V420.032ZM1106.06 403.36H1114.1V405.536H1106.06V403.36ZM1099.06 396.032H1101.23V401.216C1101.23 402.816 1101.03 404.395 1100.62 405.952C1100.24 407.509 1099.69 408.96 1098.96 410.304C1098.23 411.648 1097.38 412.843 1096.4 413.888C1095.44 414.933 1094.38 415.765 1093.23 416.384L1091.57 414.24C1092.63 413.728 1093.62 413.013 1094.51 412.096C1095.43 411.179 1096.23 410.133 1096.91 408.96C1097.59 407.765 1098.12 406.517 1098.48 405.216C1098.86 403.893 1099.06 402.56 1099.06 401.216V396.032ZM1099.6 396.032H1101.74V401.216C1101.74 402.517 1101.93 403.808 1102.29 405.088C1102.67 406.368 1103.21 407.573 1103.89 408.704C1104.57 409.813 1105.36 410.805 1106.26 411.68C1107.17 412.555 1108.15 413.237 1109.2 413.728L1107.6 415.872C1106.45 415.275 1105.38 414.475 1104.4 413.472C1103.42 412.469 1102.57 411.317 1101.84 410.016C1101.14 408.715 1100.58 407.317 1100.18 405.824C1099.79 404.331 1099.6 402.795 1099.6 401.216V396.032ZM1112.78 393.536H1115.41V422.528H1112.78V393.536ZM1142.22 393.536H1144.85V422.528H1142.22V393.536ZM1134.61 404.288H1142.99V406.464H1134.61V404.288ZM1122.19 395.808H1124.85V403.328H1132.88V395.808H1135.47V415.232H1122.19V395.808ZM1124.85 405.44V413.056H1132.88V405.44H1124.85Z" fill="black"/>
<path d="M936.882 90.5142L925.799 87.2738L928.534 98.4922L936.882 90.5142ZM370.882 228.514L371.118 229.486L928.375 93.6177L928.138 92.6461L927.901 91.6746L370.645 227.543L370.882 228.514Z" fill="black"/>
<path d="M946.464 404.14L937.945 396.344L935.453 407.619L946.464 404.14ZM377.615 278.398L377.399 279.375L937.46 403.174L937.676 402.197L937.892 401.221L377.831 277.422L377.615 278.398Z" fill="black"/>
<path d="M370.882 243.514L381.965 246.755L379.229 235.536L370.882 243.514ZM379.625 241.382L379.862 242.354L937.118 106.486L936.882 105.514L936.645 104.543L379.389 240.411L379.625 241.382Z" fill="black"/>
<path d="M371 291.861L379.518 299.657L382.01 288.382L371 291.861ZM379.788 293.803L379.572 294.78L939.633 418.579L939.849 417.602L940.065 416.626L380.004 292.827L379.788 293.803Z" fill="black"/>
<path d="M523.512 150.184L541.129 145.976L541.627 148.061L524.01 152.269L523.512 150.184ZM523.222 163.018L548.651 156.944L549.164 159.092L523.735 165.166L523.222 163.018ZM534.925 161.736L537.508 161.119L540.578 173.974L537.995 174.591L534.925 161.736ZM539.884 146.273L542.436 145.663L543.023 148.122C543.256 149.097 543.481 150.129 543.697 151.218C543.934 152.302 544.136 153.515 544.303 154.857C544.465 156.178 544.558 157.669 544.582 159.331L541.917 159.605C541.937 157.21 541.785 155.151 541.462 153.43C541.138 151.709 540.808 150.143 540.471 148.732L539.884 146.273ZM552.058 142.707L570.172 138.38L570.67 140.465L552.556 144.792L552.058 142.707ZM551.036 152.755L576.558 146.659L577.056 148.744L551.534 154.84L551.036 152.755ZM568.491 138.781L571.044 138.172L571.475 139.977C571.713 140.973 571.962 142.153 572.222 143.516C572.476 144.859 572.623 146.436 572.661 148.248L570.042 148.577C570.009 146.786 569.872 145.251 569.632 143.97C569.392 142.69 569.156 141.562 568.923 140.587L568.491 138.781ZM555.223 156.921L574.489 152.318L576.191 159.446L559.54 163.423L560.476 167.345L557.924 167.955L556.512 162.041L573.163 158.064L572.427 154.982L555.713 158.975L555.223 156.921ZM557.768 167.301L577.688 162.543L578.178 164.597L558.259 169.355L557.768 167.301ZM590.584 135.502L595.991 158.138L593.25 158.793L587.843 136.157L590.584 135.502ZM601.487 156.825L596.08 134.189L603.728 132.362C605.504 131.938 607.032 131.912 608.313 132.283C609.599 132.646 610.644 133.304 611.448 134.257C612.252 135.21 612.813 136.353 613.132 137.687C613.45 139.02 613.467 140.298 613.182 141.518C612.905 142.737 612.28 143.806 611.308 144.723C610.333 145.634 608.966 146.299 607.205 146.72L601.723 148.03L601.142 145.598L606.535 144.31C607.751 144.019 608.677 143.576 609.314 142.98C609.95 142.384 610.349 141.689 610.51 140.895C610.676 140.092 610.651 139.237 610.435 138.331C610.218 137.425 609.855 136.654 609.346 136.021C608.843 135.385 608.172 134.954 607.331 134.726C606.488 134.491 605.451 134.521 604.221 134.815L599.402 135.966L604.228 156.17L601.487 156.825ZM634.6 124.668L636.841 124.132L637.123 125.315C637.361 126.311 637.39 127.302 637.209 128.289C637.028 129.275 636.676 130.236 636.154 131.173C635.627 132.088 634.966 132.948 634.171 133.752C633.376 134.556 632.489 135.294 631.509 135.967C630.545 136.614 629.514 137.167 628.418 137.627L626.931 135.81C627.897 135.448 628.808 134.989 629.662 134.434C630.532 133.853 631.325 133.225 632.041 132.55C632.757 131.874 633.355 131.161 633.833 130.411C634.333 129.655 634.677 128.893 634.866 128.124C635.051 127.335 635.056 126.577 634.883 125.85L634.6 124.668ZM635.254 124.511L637.495 123.976L637.777 125.159C637.951 125.885 638.298 126.559 638.819 127.18C639.335 127.781 639.977 128.307 640.743 128.76C641.53 129.208 642.395 129.572 643.339 129.851C644.283 130.13 645.264 130.334 646.282 130.464C647.316 130.568 648.346 130.563 649.372 130.45L648.897 132.735C647.712 132.82 646.532 132.795 645.359 132.659C644.181 132.501 643.056 132.244 641.983 131.886C640.911 131.528 639.932 131.06 639.048 130.481C638.16 129.882 637.411 129.183 636.804 128.385C636.197 127.587 635.774 126.69 635.536 125.694L635.254 124.511ZM638.219 139.266L640.771 138.657L643.329 149.363L640.776 149.973L638.219 139.266ZM626.493 140.587L651.921 134.513L652.427 136.629L626.998 142.703L626.493 140.587ZM625.477 125.728L646.081 120.806L646.579 122.892L625.975 127.814L625.477 125.728ZM656.634 140.066L682.156 133.969L682.676 136.148L657.154 142.244L656.634 140.066ZM666.366 130.536L668.918 129.926L670.718 137.458L668.165 138.068L666.366 130.536ZM663.009 116.894L665.281 116.352L665.801 118.53C666.094 119.755 666.151 120.958 665.973 122.141C665.811 123.299 665.468 124.433 664.944 125.546C664.415 126.637 663.75 127.662 662.948 128.622C662.167 129.576 661.286 130.433 660.305 131.194C659.324 131.955 658.291 132.585 657.204 133.086L655.571 131.206C656.527 130.802 657.443 130.276 658.319 129.629C659.211 128.955 660.021 128.213 660.749 127.403C661.471 126.573 662.086 125.702 662.592 124.791C663.094 123.86 663.427 122.914 663.592 121.953C663.773 120.967 663.752 120.007 663.529 119.073L663.009 116.894ZM663.476 116.783L665.717 116.248L666.237 118.426C666.465 119.381 666.88 120.247 667.483 121.024C668.085 121.801 668.82 122.492 669.689 123.096C670.552 123.68 671.493 124.179 672.514 124.593C673.555 125.002 674.612 125.298 675.687 125.48C676.782 125.657 677.847 125.71 678.883 125.638L678.275 128.053C677.079 128.097 675.872 128.002 674.654 127.766C673.435 127.531 672.251 127.167 671.102 126.674C669.954 126.18 668.897 125.566 667.932 124.832C666.962 124.077 666.13 123.212 665.437 122.237C664.764 121.257 664.284 120.165 663.996 118.962L663.476 116.783ZM698.402 121.797L700.954 121.188L702.962 129.591L700.409 130.201L698.402 121.797ZM708.798 119.314L711.381 118.697L713.388 127.101L710.805 127.718L708.798 119.314ZM694.035 131.197L719.556 125.101L720.069 127.249L694.548 133.345L694.035 131.197ZM701.804 107.529C703.796 107.053 705.632 106.932 707.311 107.167C708.99 107.402 710.394 107.955 711.523 108.826C712.673 109.692 713.424 110.861 713.776 112.335C714.123 113.787 713.982 115.17 713.352 116.483C712.739 117.77 711.736 118.898 710.344 119.866C708.947 120.814 707.253 121.526 705.261 122.001C703.29 122.472 701.457 122.603 699.762 122.394C698.083 122.159 696.678 121.606 695.549 120.735C694.415 119.844 693.674 118.672 693.328 117.219C692.976 115.746 693.107 114.366 693.72 113.079C694.334 111.792 695.337 110.664 696.728 109.695C698.141 108.722 699.833 108 701.804 107.529ZM702.295 109.583C700.801 109.94 699.525 110.475 698.467 111.188C697.409 111.901 696.642 112.732 696.167 113.679C695.686 114.605 695.57 115.587 695.817 116.624C696.065 117.662 696.615 118.496 697.468 119.125C698.315 119.735 699.372 120.118 700.638 120.276C701.904 120.435 703.284 120.335 704.778 119.978C706.293 119.617 707.579 119.079 708.637 118.366C709.695 117.652 710.464 116.833 710.945 115.906C711.42 114.959 711.534 113.967 711.286 112.929C711.038 111.892 710.491 111.069 709.643 110.459C708.791 109.83 707.732 109.436 706.466 109.277C705.2 109.119 703.809 109.221 702.295 109.583ZM725.5 105.093L727.585 104.594L727.868 105.777C728.259 107.416 728.302 109.018 727.996 110.583C727.685 112.127 727.064 113.569 726.134 114.91C725.22 116.225 724.039 117.34 722.591 118.257L720.863 116.531C722.144 115.742 723.201 114.799 724.036 113.7C724.865 112.581 725.434 111.381 725.742 110.101C726.071 108.816 726.085 107.541 725.782 106.275L725.5 105.093ZM725.936 104.988L728.052 104.483L728.335 105.666C728.543 106.537 728.91 107.338 729.435 108.068C729.981 108.793 730.649 109.434 731.44 109.99C732.226 110.526 733.117 110.95 734.113 111.26C735.108 111.571 736.162 111.758 737.273 111.821L736.543 114.134C734.852 114.034 733.291 113.65 731.859 112.983C730.443 112.29 729.237 111.372 728.24 110.228C727.259 109.059 726.585 107.707 726.218 106.171L725.936 104.988ZM718.902 105.155L733.935 101.564L734.433 103.65L719.4 107.241L718.902 105.155ZM724.318 100.144L726.901 99.5267L727.92 103.791L725.336 104.408L724.318 100.144ZM734.171 106.41L740.521 104.893L741.026 107.01L734.677 108.526L734.171 106.41ZM737.887 97.0341L740.47 96.417L744.544 113.473L741.961 114.09L737.887 97.0341ZM735.448 116.436C738.373 115.737 740.775 115.646 742.653 116.162C744.526 116.658 745.656 117.715 746.043 119.333C746.429 120.952 745.902 122.416 744.46 123.725C743.018 125.035 740.834 126.039 737.908 126.738C735.004 127.432 732.602 127.523 730.703 127.011C728.825 126.495 727.692 125.428 727.306 123.809C726.919 122.191 727.449 120.737 728.896 119.448C730.359 118.134 732.543 117.13 735.448 116.436ZM735.931 118.459C734.52 118.796 733.336 119.21 732.379 119.702C731.416 120.173 730.712 120.714 730.266 121.325C729.835 121.911 729.699 122.535 729.858 123.199C730.017 123.863 730.423 124.37 731.076 124.718C731.746 125.041 732.618 125.205 733.694 125.211C734.771 125.217 736.014 125.052 737.425 124.715C738.857 124.373 740.041 123.958 740.978 123.471C741.935 122.98 742.629 122.441 743.059 121.856C743.505 121.245 743.649 120.607 743.491 119.943C743.332 119.279 742.918 118.786 742.249 118.463C741.595 118.115 740.733 117.948 739.662 117.962C738.606 117.951 737.363 118.117 735.931 118.459Z" fill="black"/>
<path d="M486.893 259.402L489.39 259.966L483.008 288.214L480.511 287.65L486.893 259.402ZM472.724 267.519L479.841 269.127L479.354 271.28L472.237 269.672L472.724 267.519ZM481.065 258.774L483.499 259.324L477.596 285.449L475.161 284.899L481.065 258.774ZM462.122 274.079L463.932 274.488C465.388 274.817 466.683 275.088 467.816 275.3C468.97 275.517 470.061 275.676 471.088 275.777C472.136 275.883 473.203 275.949 474.291 275.976L474.054 278.186C472.941 278.175 471.85 278.115 470.781 278.004C469.717 277.873 468.598 277.697 467.423 277.475C466.27 277.258 464.943 276.981 463.445 276.642L461.635 276.233L462.122 274.079ZM465.697 258.254L476.278 260.645L475.799 262.768L467.746 260.948L464.459 275.493L461.931 274.922L465.697 258.254ZM514.639 265.671L517.23 266.257L510.841 294.536L508.25 293.95L514.639 265.671ZM501.848 265.077C503.242 265.392 504.378 266.076 505.256 267.127C506.159 268.162 506.746 269.487 507.015 271.1C507.306 272.719 507.225 274.527 506.774 276.525C506.323 278.522 505.618 280.189 504.66 281.526C503.723 282.867 502.621 283.821 501.356 284.388C500.111 284.96 498.792 285.088 497.398 284.773C496.003 284.458 494.857 283.772 493.958 282.716C493.06 281.66 492.465 280.323 492.175 278.705C491.905 277.091 491.996 275.285 492.447 273.287C492.899 271.29 493.593 269.62 494.53 268.279C495.488 266.943 496.598 266.002 497.858 265.455C499.124 264.888 500.454 264.762 501.848 265.077ZM501.326 267.387C500.39 267.176 499.497 267.302 498.648 267.766C497.825 268.215 497.087 268.966 496.433 270.022C495.784 271.056 495.287 272.333 494.944 273.852C494.601 275.371 494.498 276.747 494.635 277.981C494.776 279.194 495.12 280.19 495.665 280.97C496.232 281.754 496.983 282.252 497.92 282.463C498.835 282.67 499.707 282.539 500.534 282.07C501.383 281.605 502.132 280.856 502.781 279.822C503.435 278.767 503.934 277.479 504.277 275.96C504.62 274.441 504.721 273.075 504.58 271.862C504.443 270.628 504.089 269.63 503.518 268.867C502.972 268.087 502.241 267.594 501.326 267.387ZM543.509 272.194L546.069 272.773L539.679 301.052L537.12 300.473L543.509 272.194ZM535.267 281.519L541.51 282.93L541.03 285.052L534.788 283.642L535.267 281.519ZM519.784 287.174L521.907 287.653C523.696 288.058 525.293 288.397 526.697 288.67C528.1 288.943 529.44 289.159 530.717 289.316C532.015 289.478 533.345 289.593 534.707 289.66L534.509 291.846C533.105 291.769 531.743 291.647 530.425 291.481C529.106 291.314 527.722 291.1 526.272 290.838C524.848 290.56 523.231 290.216 521.42 289.807L519.298 289.328L519.784 287.174ZM523.572 270.412L536.619 273.36L536.139 275.483L525.652 273.113L522.182 288.47L519.622 287.892L523.572 270.412ZM523.684 278.771L533.579 281.006L533.106 283.098L523.212 280.862L523.684 278.771ZM563.326 291.96L565.885 292.538L563.981 300.966L561.422 300.387L563.326 291.96ZM573.751 294.315L576.342 294.901L574.437 303.328L571.847 302.743L573.751 294.315ZM555.261 298.47L580.855 304.253L580.369 306.407L554.774 300.624L555.261 298.47ZM572.671 280.653C574.669 281.105 576.37 281.806 577.773 282.758C579.177 283.709 580.193 284.824 580.823 286.104C581.473 287.388 581.631 288.769 581.297 290.246C580.968 291.703 580.232 292.882 579.088 293.782C577.969 294.667 576.572 295.237 574.896 295.493C573.224 295.727 571.39 295.619 569.392 295.168C567.415 294.721 565.712 294.03 564.283 293.095C562.88 292.143 561.863 291.028 561.234 289.748C560.609 288.448 560.461 287.069 560.79 285.613C561.124 284.135 561.85 282.954 562.969 282.07C564.087 281.185 565.484 280.615 567.161 280.36C568.858 280.109 570.695 280.207 572.671 280.653ZM572.206 282.714C570.708 282.375 569.327 282.293 568.063 282.466C566.799 282.64 565.744 283.047 564.9 283.687C564.06 284.307 563.522 285.137 563.287 286.177C563.052 287.218 563.178 288.208 563.665 289.15C564.157 290.07 564.937 290.88 566.003 291.581C567.07 292.281 568.352 292.8 569.85 293.139C571.369 293.482 572.761 293.567 574.025 293.393C575.289 293.219 576.341 292.823 577.181 292.203C578.025 291.563 578.565 290.723 578.8 289.682C579.035 288.642 578.907 287.661 578.415 286.741C577.928 285.8 577.151 284.979 576.084 284.279C575.018 283.579 573.725 283.057 572.206 282.714ZM595.013 288.917L597.104 289.389L596.836 290.575C596.465 292.219 595.797 293.676 594.832 294.945C593.872 296.193 592.679 297.214 591.253 298.007C589.853 298.785 588.301 299.265 586.597 299.449L585.807 297.138C587.304 296.995 588.67 296.615 589.903 295.996C591.141 295.358 592.181 294.532 593.022 293.519C593.884 292.511 594.458 291.372 594.745 290.103L595.013 288.917ZM595.45 289.015L597.573 289.495L597.305 290.681C597.107 291.555 597.083 292.435 597.233 293.322C597.403 294.214 597.721 295.084 598.185 295.932C598.654 296.76 599.267 297.533 600.023 298.25C600.78 298.968 601.643 299.6 602.613 300.148L600.937 301.901C599.464 301.066 598.232 300.033 597.241 298.803C596.276 297.557 595.598 296.201 595.208 294.735C594.843 293.252 594.834 291.741 595.182 290.201L595.45 289.015ZM589.064 286.063L604.14 289.47L603.667 291.561L588.591 288.155L589.064 286.063ZM596.134 283.954L598.725 284.539L597.759 288.815L595.168 288.23L596.134 283.954ZM602.215 293.923L608.582 295.362L608.103 297.484L601.735 296.045L602.215 293.923ZM609.684 287.146L612.275 287.732L608.41 304.837L605.819 304.251L609.684 287.146ZM598.939 303.484C601.873 304.147 604.069 305.124 605.527 306.416C606.989 307.687 607.537 309.134 607.171 310.757C606.804 312.38 605.685 313.461 603.813 314.001C601.942 314.54 599.539 314.479 596.605 313.816C593.691 313.157 591.496 312.18 590.017 310.884C588.559 309.592 588.014 308.134 588.38 306.511C588.747 304.888 589.864 303.817 591.731 303.299C593.623 302.764 596.026 302.826 598.939 303.484ZM598.481 305.513C597.066 305.193 595.82 305.043 594.744 305.062C593.673 305.061 592.802 305.236 592.132 305.588C591.488 305.923 591.09 306.424 590.94 307.09C590.789 307.756 590.93 308.389 591.363 308.99C591.822 309.575 592.533 310.107 593.496 310.587C594.459 311.067 595.648 311.467 597.063 311.787C598.499 312.111 599.744 312.261 600.8 312.237C601.876 312.218 602.736 312.041 603.38 311.705C604.05 311.353 604.461 310.845 604.611 310.179C604.762 309.513 604.608 308.888 604.149 308.303C603.716 307.702 603.016 307.172 602.048 306.713C601.106 306.237 599.916 305.837 598.481 305.513ZM616.262 303.834C616.894 301.041 617.836 298.555 619.089 296.376C620.352 294.192 621.882 292.266 623.68 290.598L625.986 291.119C625.288 291.73 624.586 292.519 623.878 293.486C623.18 294.446 622.512 295.526 621.876 296.726C621.242 297.919 620.671 299.172 620.164 300.487C619.665 301.803 619.266 303.123 618.967 304.445C618.57 306.204 618.336 308.027 618.267 309.914C618.198 311.801 618.276 313.586 618.502 315.268C618.728 316.95 619.085 318.359 619.574 319.495L617.269 318.974C616.362 316.695 615.808 314.302 615.606 311.794C615.412 309.281 615.631 306.628 616.262 303.834ZM624.43 317.609L629.559 294.909L632.308 295.53L630.024 305.639L642.128 308.374L644.412 298.265L647.161 298.886L642.032 321.587L639.283 320.965L641.577 310.812L629.473 308.077L627.179 318.231L624.43 317.609ZM650.872 302.288L651.423 299.849L668.448 303.696L667.897 306.134L660.759 304.522L656.181 324.784L653.432 324.162L658.01 303.9L650.872 302.288ZM670.898 306.813L671.449 304.374L688.475 308.221L687.924 310.659L680.785 309.047L676.207 329.308L673.458 328.687L678.037 308.425L670.898 306.813ZM687.588 331.88L692.717 309.179L700.387 310.913C702.168 311.315 703.551 311.965 704.537 312.864C705.531 313.756 706.179 314.808 706.48 316.017C706.782 317.227 706.781 318.501 706.479 319.838C706.177 321.176 705.629 322.33 704.835 323.3C704.048 324.271 703.016 324.955 701.739 325.35C700.463 325.737 698.942 325.731 697.176 325.332L691.678 324.09L692.229 321.651L697.638 322.874C698.858 323.149 699.884 323.16 700.718 322.905C701.552 322.651 702.217 322.203 702.711 321.562C703.215 320.914 703.569 320.136 703.775 319.227C703.98 318.318 703.994 317.467 703.816 316.673C703.645 315.882 703.233 315.198 702.578 314.623C701.925 314.041 700.982 313.61 699.748 313.331L694.915 312.239L690.337 332.501L687.588 331.88ZM716.18 338.34L721.309 315.64L728.979 317.373C730.753 317.774 732.14 318.405 733.141 319.269C734.144 320.124 734.8 321.138 735.11 322.311C735.419 323.484 735.423 324.739 735.121 326.077C734.819 327.414 734.277 328.539 733.497 329.45C732.716 330.361 731.694 330.984 730.43 331.32C729.167 331.648 727.657 331.613 725.898 331.216L719.691 329.813L720.252 327.331L726.37 328.713C727.582 328.987 728.598 329.03 729.417 328.842C730.243 328.656 730.896 328.276 731.376 327.7C731.864 327.12 732.211 326.375 732.416 325.466C732.622 324.557 732.631 323.724 732.445 322.967C732.259 322.211 731.834 321.563 731.171 321.025C730.51 320.48 729.566 320.069 728.34 319.791L723.507 318.699L718.929 338.961L716.18 338.34ZM729.169 330.557L732.451 342.017L729.259 341.296L726.065 329.856L729.169 330.557ZM742.666 344.698C741.025 344.327 739.692 343.645 738.666 342.652C737.649 341.653 736.967 340.427 736.619 338.974C736.281 337.515 736.309 335.914 736.703 334.17C737.097 332.426 737.762 330.961 738.698 329.774C739.643 328.582 740.773 327.742 742.087 327.255C743.41 326.761 744.84 326.688 746.377 327.036C747.264 327.236 748.106 327.582 748.904 328.073C749.701 328.564 750.38 329.222 750.939 330.047C751.5 330.865 751.868 331.865 752.044 333.046C752.22 334.228 752.128 335.613 751.769 337.201L751.519 338.31L738.395 335.344L738.906 333.083L749.369 335.447C749.586 334.487 749.588 333.586 749.374 332.746C749.167 331.907 748.762 331.19 748.159 330.596C747.563 330.003 746.792 329.599 745.846 329.386C744.804 329.15 743.844 329.205 742.966 329.55C742.097 329.89 741.367 330.424 740.775 331.152C740.183 331.881 739.781 332.714 739.569 333.653L739.229 335.16C738.938 336.446 738.914 337.586 739.155 338.58C739.405 339.569 739.877 340.386 740.57 341.032C741.264 341.67 742.14 342.109 743.197 342.348C743.884 342.503 744.526 342.547 745.124 342.48C745.731 342.408 746.281 342.221 746.776 341.922C747.273 341.614 747.699 341.19 748.054 340.649L750.421 341.93C749.961 342.727 749.344 343.379 748.569 343.888C747.796 344.389 746.906 344.716 745.901 344.869C744.897 345.015 743.818 344.958 742.666 344.698ZM763.948 355.844L765.982 346.844L765.76 346.794C765.498 347.06 765.136 347.39 764.675 347.783C764.215 348.169 763.614 348.472 762.873 348.693C762.134 348.906 761.217 348.889 760.123 348.642C758.705 348.322 757.533 347.68 756.609 346.718C755.686 345.748 755.067 344.537 754.751 343.083C754.436 341.621 754.483 339.989 754.89 338.186C755.294 336.398 755.951 334.915 756.862 333.739C757.772 332.562 758.855 331.739 760.111 331.269C761.367 330.799 762.711 330.726 764.145 331.05C765.253 331.301 766.087 331.683 766.647 332.198C767.215 332.707 767.617 333.233 767.851 333.775C768.095 334.312 768.28 334.75 768.405 335.089L768.715 335.159L769.326 332.454L771.854 333.025L766.564 356.435L763.948 355.844ZM761.009 346.372C762.058 346.609 763.007 346.536 763.855 346.153C764.704 345.763 765.427 345.122 766.025 344.232C766.623 343.334 767.068 342.243 767.359 340.957C767.646 339.686 767.712 338.532 767.558 337.495C767.406 336.451 767.028 335.581 766.424 334.886C765.821 334.183 764.988 333.711 763.924 333.47C762.816 333.22 761.828 333.296 760.96 333.698C760.102 334.094 759.379 334.734 758.79 335.619C758.211 336.498 757.786 337.536 757.516 338.733C757.242 339.945 757.178 341.087 757.324 342.161C757.479 343.229 757.856 344.138 758.455 344.887C759.064 345.63 759.915 346.125 761.009 346.372ZM785.098 346.596L787.372 336.531L789.987 337.123L786.141 354.148L783.525 353.557L784.176 350.675L783.999 350.635C783.404 351.409 782.617 352.004 781.638 352.42C780.66 352.828 779.529 352.887 778.243 352.596C777.179 352.356 776.286 351.909 775.563 351.257C774.842 350.597 774.352 349.741 774.093 348.688C773.836 347.628 773.87 346.374 774.198 344.925L776.642 334.107L779.258 334.698L776.854 345.339C776.573 346.58 776.697 347.649 777.224 348.545C777.759 349.443 778.57 350.014 779.656 350.26C780.307 350.406 781.005 350.39 781.753 350.209C782.508 350.03 783.192 349.649 783.806 349.065C784.426 348.483 784.857 347.66 785.098 346.596ZM797.99 357.198C796.349 356.827 795.016 356.146 793.99 355.153C792.973 354.154 792.291 352.928 791.943 351.475C791.605 350.016 791.633 348.414 792.027 346.67C792.421 344.927 793.086 343.461 794.022 342.275C794.967 341.083 796.097 340.243 797.411 339.755C798.734 339.262 800.164 339.189 801.701 339.536C802.588 339.737 803.43 340.082 804.228 340.573C805.025 341.064 805.704 341.722 806.263 342.547C806.824 343.365 807.192 344.365 807.368 345.547C807.544 346.728 807.452 348.113 807.093 349.702L806.843 350.81L793.719 347.845L794.23 345.584L804.693 347.948C804.91 346.987 804.912 346.087 804.698 345.246C804.491 344.407 804.086 343.691 803.483 343.096C802.887 342.503 802.116 342.1 801.17 341.886C800.128 341.651 799.168 341.706 798.29 342.051C797.421 342.39 796.691 342.924 796.099 343.653C795.507 344.381 795.105 345.215 794.893 346.153L794.553 347.661C794.262 348.946 794.238 350.086 794.479 351.081C794.729 352.069 795.201 352.886 795.894 353.532C796.588 354.171 797.464 354.609 798.521 354.848C799.208 355.003 799.85 355.048 800.448 354.981C801.055 354.908 801.606 354.722 802.1 354.422C802.597 354.115 803.023 353.691 803.378 353.15L805.745 354.43C805.285 355.227 804.668 355.88 803.893 356.388C803.12 356.889 802.23 357.216 801.225 357.37C800.221 357.516 799.143 357.458 797.99 357.198ZM824.144 348.848L821.644 348.982C821.584 348.557 821.452 348.127 821.248 347.692C821.052 347.252 820.738 346.855 820.305 346.501C819.873 346.147 819.276 345.884 818.515 345.712C817.473 345.476 816.55 345.52 815.747 345.844C814.953 346.161 814.473 346.686 814.308 347.418C814.161 348.068 814.281 348.635 814.669 349.119C815.057 349.602 815.725 350.083 816.673 350.562L819.06 351.753C820.499 352.467 821.505 353.288 822.08 354.218C822.656 355.14 822.809 356.196 822.541 357.386C822.32 358.362 821.842 359.17 821.107 359.812C820.379 360.455 819.467 360.886 818.369 361.104C817.271 361.322 816.061 361.281 814.738 360.982C813.002 360.59 811.649 359.888 810.682 358.877C809.714 357.867 809.242 356.603 809.267 355.086L811.89 355.026C811.919 355.996 812.211 356.784 812.765 357.391C813.327 357.999 814.143 358.425 815.215 358.667C816.434 358.942 817.46 358.902 818.294 358.547C819.137 358.186 819.641 357.64 819.806 356.908C819.94 356.317 819.845 355.775 819.521 355.283C819.199 354.783 818.632 354.336 817.82 353.943L815.133 352.637C813.657 351.915 812.641 351.083 812.085 350.142C811.537 349.195 811.397 348.134 811.662 346.96C811.879 345.999 812.341 345.21 813.047 344.593C813.761 343.978 814.635 343.565 815.668 343.356C816.709 343.149 817.828 343.18 819.026 343.451C820.71 343.831 821.95 344.5 822.743 345.456C823.544 346.413 824.011 347.544 824.144 348.848ZM836.658 347.668L836.157 349.884L827.334 347.891L827.834 345.674L836.658 347.668ZM831.328 342.176L833.944 342.767L830.277 358.994C830.11 359.733 830.092 360.312 830.223 360.73C830.363 361.142 830.588 361.449 830.9 361.652C831.22 361.848 831.573 361.99 831.957 362.077C832.245 362.142 832.485 362.181 832.677 362.193C832.87 362.198 833.024 362.201 833.14 362.204L833.141 364.674C832.949 364.701 832.686 364.711 832.353 364.706C832.019 364.708 831.608 364.654 831.12 364.544C830.381 364.377 829.693 364.054 829.055 363.576C828.425 363.1 827.951 362.484 827.632 361.729C827.321 360.975 827.277 360.103 827.501 359.113L831.328 342.176ZM844.496 357.268C843.865 360.061 842.918 362.55 841.655 364.734C840.402 366.913 838.876 368.836 837.078 370.504L834.773 369.983C835.47 369.371 836.169 368.582 836.869 367.614C837.575 366.655 838.245 365.579 838.88 364.387C839.516 363.187 840.084 361.929 840.583 360.612C841.091 359.29 841.494 357.972 841.791 356.656C842.189 354.898 842.422 353.075 842.491 351.188C842.56 349.3 842.482 347.516 842.256 345.834C842.03 344.152 841.673 342.743 841.184 341.607L843.49 342.128C844.396 344.407 844.946 346.803 845.139 349.316C845.341 351.824 845.127 354.474 844.496 357.268Z" fill="black"/>
<path d="M557.575 209.387L562.982 232.023L560.241 232.678L554.834 210.042L557.575 209.387ZM568.478 230.71L563.071 208.074L570.719 206.247C572.495 205.823 574.023 205.797 575.304 206.168C576.59 206.531 577.635 207.189 578.439 208.142C579.243 209.095 579.804 210.238 580.123 211.572C580.441 212.905 580.458 214.183 580.174 215.403C579.896 216.622 579.271 217.691 578.299 218.608C577.325 219.519 575.957 220.184 574.196 220.605L568.714 221.914L568.133 219.483L573.527 218.194C574.742 217.904 575.669 217.461 576.305 216.865C576.942 216.269 577.34 215.574 577.501 214.78C577.668 213.977 577.643 213.122 577.426 212.216C577.21 211.309 576.846 210.539 576.337 209.906C575.834 209.27 575.163 208.839 574.322 208.611C573.479 208.376 572.442 208.406 571.212 208.7L566.393 209.851L571.219 230.055L568.478 230.71ZM601.591 198.553L603.832 198.017L604.115 199.2C604.353 200.196 604.381 201.187 604.2 202.174C604.019 203.16 603.667 204.121 603.145 205.058C602.618 205.973 601.957 206.833 601.162 207.637C600.367 208.441 599.48 209.179 598.5 209.852C597.536 210.499 596.505 211.052 595.409 211.512L593.922 209.695C594.888 209.333 595.799 208.874 596.653 208.319C597.523 207.738 598.316 207.11 599.032 206.435C599.748 205.759 600.346 205.046 600.825 204.296C601.324 203.54 601.668 202.778 601.858 202.009C602.042 201.219 602.047 200.461 601.874 199.735L601.591 198.553ZM602.245 198.396L604.486 197.861L604.768 199.044C604.942 199.77 605.289 200.444 605.81 201.065C606.327 201.665 606.968 202.192 607.734 202.645C608.521 203.093 609.387 203.457 610.331 203.736C611.275 204.015 612.256 204.219 613.274 204.349C614.307 204.453 615.337 204.448 616.363 204.335L615.889 206.619C614.703 206.705 613.523 206.68 612.35 206.543C611.172 206.386 610.047 206.129 608.974 205.771C607.902 205.413 606.924 204.945 606.04 204.366C605.151 203.767 604.403 203.068 603.795 202.27C603.188 201.472 602.765 200.575 602.527 199.579L602.245 198.396ZM605.21 213.151L607.762 212.542L610.32 223.248L607.768 223.858L605.21 213.151ZM593.484 214.472L618.913 208.398L619.418 210.514L593.989 216.588L593.484 214.472ZM592.468 199.613L613.072 194.691L613.57 196.777L592.966 201.699L592.468 199.613ZM623.625 213.951L649.147 207.854L649.668 210.033L624.146 216.129L623.625 213.951ZM633.357 204.421L635.91 203.811L637.709 211.343L635.157 211.953L633.357 204.421ZM630 190.779L632.272 190.237L632.793 192.415C633.085 193.64 633.142 194.843 632.964 196.026C632.802 197.184 632.459 198.318 631.935 199.431C631.406 200.522 630.741 201.547 629.939 202.506C629.158 203.461 628.277 204.318 627.296 205.079C626.316 205.84 625.282 206.47 624.195 206.971L622.562 205.091C623.518 204.687 624.434 204.161 625.31 203.513C626.202 202.84 627.012 202.098 627.74 201.288C628.463 200.457 629.077 199.587 629.583 198.676C630.085 197.745 630.418 196.799 630.583 195.838C630.765 194.852 630.744 193.892 630.521 192.958L630 190.779ZM630.467 190.668L632.708 190.133L633.228 192.311C633.456 193.266 633.872 194.132 634.474 194.909C635.076 195.686 635.812 196.377 636.68 196.981C637.543 197.565 638.485 198.063 639.505 198.478C640.546 198.887 641.603 199.183 642.678 199.365C643.773 199.542 644.838 199.594 645.874 199.523L645.266 201.938C644.071 201.982 642.863 201.887 641.645 201.651C640.426 201.416 639.242 201.052 638.094 200.559C636.945 200.065 635.888 199.451 634.923 198.717C633.953 197.962 633.121 197.096 632.428 196.122C631.755 195.142 631.275 194.05 630.987 192.847L630.467 190.668ZM658.944 196.368L684.373 190.293L684.871 192.379L659.442 198.453L658.944 196.368ZM672.698 197.754C675.707 197.035 678.166 196.908 680.076 197.373C681.981 197.818 683.126 198.849 683.513 200.468C683.894 202.065 683.339 203.503 681.845 204.781C680.357 206.08 678.109 207.088 675.1 207.807C672.091 208.526 669.619 208.645 667.684 208.164C665.774 207.699 664.629 206.667 664.247 205.07C663.86 203.451 664.416 202.013 665.914 200.756C667.428 199.473 669.69 198.473 672.698 197.754ZM673.174 199.746C671.701 200.098 670.465 200.525 669.466 201.026C668.483 201.502 667.766 202.036 667.315 202.626C666.859 203.195 666.708 203.802 666.861 204.445C667.01 205.068 667.421 205.551 668.096 205.894C668.765 206.217 669.646 206.368 670.738 206.349C671.85 206.324 673.143 206.136 674.617 205.784C676.09 205.432 677.318 205.018 678.301 204.542C679.305 204.061 680.032 203.525 680.483 202.935C680.929 202.324 681.078 201.707 680.93 201.085C680.776 200.441 680.367 199.969 679.703 199.667C679.033 199.344 678.142 199.195 677.03 199.22C675.933 199.219 674.647 199.394 673.174 199.746ZM668.542 180.355C670.576 179.87 672.381 179.669 673.959 179.752C675.536 179.836 676.823 180.176 677.821 180.771C678.818 181.366 679.451 182.224 679.719 183.344C679.986 184.465 679.812 185.526 679.196 186.529C678.575 187.511 677.58 188.395 676.211 189.183C674.837 189.95 673.133 190.576 671.1 191.062C669.087 191.543 667.284 191.754 665.691 191.696C664.114 191.612 662.826 191.273 661.829 190.678C660.826 190.062 660.191 189.193 659.924 188.073C659.656 186.953 659.833 185.901 660.453 184.92C661.074 183.938 662.069 183.053 663.438 182.265C664.828 181.473 666.53 180.836 668.542 180.355ZM669.033 182.41C667.56 182.761 666.306 183.204 665.27 183.736C664.251 184.243 663.5 184.817 663.017 185.459C662.55 186.075 662.401 186.736 662.569 187.441C662.738 188.147 663.172 188.679 663.872 189.038C664.588 189.372 665.517 189.544 666.661 189.556C667.82 189.543 669.136 189.36 670.609 189.008C672.103 188.651 673.36 188.219 674.379 187.712C675.415 187.18 676.166 186.606 676.633 185.99C677.095 185.353 677.242 184.682 677.073 183.976C676.905 183.271 676.473 182.749 675.778 182.41C675.078 182.051 674.148 181.879 672.989 181.892C671.846 181.88 670.527 182.053 669.033 182.41ZM703.571 171.231L706.154 170.614L709.737 185.616L707.154 186.233L703.571 171.231ZM707.014 177.384L711.87 176.224L712.383 178.371L707.527 179.531L707.014 177.384ZM688.459 187.442L690.638 186.921C692.568 186.46 694.254 186.036 695.696 185.647C697.139 185.259 698.455 184.846 699.645 184.408C700.834 183.97 702.022 183.478 703.207 182.932L704.024 184.974C702.776 185.535 701.537 186.04 700.306 186.487C699.095 186.93 697.761 187.358 696.303 187.773C694.84 188.166 693.122 188.598 691.151 189.069L688.972 189.589L688.459 187.442ZM686.058 177.389L698.414 174.437L698.912 176.522L689.108 178.864L691.361 188.295L688.809 188.905L686.058 177.389ZM692.361 191.379L694.913 190.769L695.738 194.224L708.344 191.213L707.518 187.758L710.102 187.141L712.771 198.315L695.03 202.553L692.361 191.379ZM696.236 196.31L697.077 199.827L709.682 196.816L708.842 193.298L696.236 196.31Z" fill="black"/>
<path d="M575.92 345.33L578.417 345.894L572.034 374.142L569.537 373.578L575.92 345.33ZM561.75 353.446L568.867 355.054L568.38 357.208L561.264 355.6L561.75 353.446ZM570.091 344.702L572.525 345.252L566.622 371.377L564.188 370.827L570.091 344.702ZM551.148 360.007L552.958 360.416C554.415 360.745 555.71 361.016 556.843 361.228C557.997 361.445 559.087 361.604 560.114 361.705C561.162 361.81 562.23 361.877 563.317 361.904L563.08 364.114C561.967 364.103 560.876 364.042 559.808 363.932C558.744 363.801 557.624 363.625 556.45 363.403C555.296 363.186 553.97 362.908 552.472 362.57L550.661 362.161L551.148 360.007ZM554.723 344.182L565.305 346.573L564.825 348.695L556.772 346.876L553.486 361.421L550.957 360.85L554.723 344.182ZM603.666 351.599L606.256 352.184L599.867 380.463L597.276 379.878L603.666 351.599ZM590.874 351.005C592.268 351.32 593.404 352.003 594.282 353.055C595.186 354.09 595.772 355.414 596.042 357.028C596.332 358.647 596.252 360.455 595.8 362.452C595.349 364.45 594.644 366.117 593.686 367.453C592.749 368.794 591.648 369.748 590.382 370.315C589.138 370.887 587.818 371.016 586.424 370.701C585.03 370.386 583.883 369.7 582.985 368.644C582.086 367.588 581.491 366.251 581.201 364.632C580.931 363.018 581.022 361.213 581.474 359.215C581.925 357.217 582.619 355.548 583.556 354.207C584.515 352.871 585.624 351.929 586.885 351.383C588.15 350.816 589.48 350.69 590.874 351.005ZM590.352 353.315C589.416 353.103 588.523 353.23 587.675 353.694C586.852 354.142 586.113 354.894 585.459 355.949C584.81 356.984 584.314 358.26 583.971 359.779C583.627 361.298 583.524 362.675 583.661 363.909C583.802 365.122 584.146 366.118 584.692 366.897C585.258 367.681 586.009 368.179 586.946 368.391C587.861 368.598 588.733 368.467 589.561 367.997C590.409 367.533 591.158 366.784 591.808 365.749C592.461 364.694 592.96 363.407 593.303 361.888C593.647 360.369 593.747 359.003 593.606 357.79C593.469 356.556 593.115 355.558 592.544 354.794C591.998 354.015 591.268 353.522 590.352 353.315ZM632.535 358.122L635.095 358.7L628.705 386.979L626.146 386.401L632.535 358.122ZM624.294 367.447L630.536 368.857L630.057 370.98L623.814 369.569L624.294 367.447ZM608.811 373.102L610.933 373.581C612.723 373.985 614.319 374.324 615.723 374.598C617.127 374.871 618.467 375.086 619.743 375.244C621.041 375.406 622.371 375.52 623.734 375.588L623.535 377.774C622.131 377.697 620.769 377.575 619.451 377.408C618.133 377.242 616.749 377.028 615.299 376.766C613.874 376.487 612.257 376.144 610.447 375.735L608.324 375.255L608.811 373.102ZM612.598 356.34L625.645 359.288L625.165 361.411L614.678 359.041L611.208 374.398L608.649 373.819L612.598 356.34ZM612.711 364.698L622.605 366.934L622.133 369.025L612.238 366.79L612.711 364.698ZM646.262 375.658L671.763 381.42L671.29 383.512L645.789 377.75L646.262 375.658ZM657.995 382.968C661.012 383.65 663.275 384.62 664.784 385.88C666.298 387.119 666.871 388.55 666.505 390.173C666.142 391.775 665.01 392.82 663.106 393.309C661.197 393.818 658.734 393.732 655.717 393.05C652.7 392.368 650.429 391.385 648.904 390.1C647.395 388.84 646.822 387.409 647.184 385.807C647.55 384.184 648.683 383.139 650.582 382.671C652.507 382.187 654.978 382.286 657.995 382.968ZM657.544 384.966C656.066 384.632 654.769 384.47 653.651 384.48C652.559 384.474 651.68 384.636 651.015 384.967C650.354 385.277 649.951 385.754 649.805 386.399C649.664 387.024 649.821 387.639 650.274 388.244C650.733 388.829 651.456 389.353 652.445 389.817C653.455 390.286 654.698 390.687 656.176 391.021C657.653 391.355 658.938 391.525 660.03 391.531C661.143 391.542 662.032 391.382 662.697 391.051C663.367 390.699 663.773 390.212 663.914 389.587C664.06 388.942 663.901 388.338 663.438 387.774C662.979 387.189 662.245 386.662 661.236 386.194C660.252 385.709 659.021 385.3 657.544 384.966ZM661.938 365.52C663.977 365.981 665.686 366.596 667.064 367.367C668.443 368.138 669.449 369.011 670.082 369.985C670.715 370.959 670.904 372.008 670.65 373.131C670.396 374.255 669.772 375.131 668.777 375.759C667.787 376.366 666.504 376.722 664.927 376.825C663.356 376.907 661.551 376.718 659.511 376.257C657.493 375.801 655.782 375.196 654.377 374.441C652.999 373.67 651.993 372.798 651.36 371.824C650.732 370.829 650.545 369.769 650.799 368.646C651.053 367.522 651.675 366.657 652.665 366.049C653.655 365.442 654.938 365.087 656.514 364.983C658.111 364.885 659.919 365.064 661.938 365.52ZM661.472 367.58C659.995 367.246 658.674 367.09 657.51 367.111C656.371 367.116 655.444 367.301 654.728 367.664C654.037 368.011 653.612 368.538 653.452 369.245C653.292 369.953 653.447 370.622 653.917 371.253C654.412 371.868 655.17 372.433 656.191 372.948C657.238 373.447 658.499 373.863 659.977 374.197C661.475 374.536 662.793 374.702 663.932 374.697C665.096 374.676 666.023 374.492 666.714 374.145C667.41 373.777 667.837 373.239 667.997 372.532C668.157 371.824 668 371.165 667.525 370.555C667.055 369.924 666.297 369.359 665.251 368.86C664.23 368.345 662.97 367.918 661.472 367.58ZM697.399 372.778L699.99 373.363L696.591 388.408L694 387.823L697.399 372.778ZM697.777 379.818L702.646 380.918L702.16 383.072L697.29 381.972L697.777 379.818ZM676.688 380.663L678.873 381.157C680.808 381.594 682.509 381.957 683.975 382.244C685.441 382.532 686.804 382.741 688.065 382.873C689.326 383.005 690.608 383.087 691.913 383.119L691.746 385.312C690.379 385.266 689.044 385.172 687.741 385.031C686.46 384.894 685.074 384.69 683.582 384.419C682.095 384.127 680.363 383.757 678.387 383.311L676.202 382.817L676.688 380.663ZM678.966 370.581L691.358 373.381L690.885 375.473L681.053 373.251L678.916 382.709L676.357 382.13L678.966 370.581ZM678.454 385.917L681.013 386.496L680.23 389.96L692.872 392.817L693.654 389.352L696.245 389.937L693.713 401.143L675.922 397.123L678.454 385.917ZM679.758 392.052L678.961 395.579L691.602 398.435L692.399 394.908L679.758 392.052Z" fill="black"/>
<path d="M169.719 300.032H171.895V305.216C171.895 306.816 171.692 308.384 171.287 309.92C170.903 311.456 170.348 312.896 169.623 314.24C168.898 315.584 168.044 316.779 167.063 317.824C166.082 318.869 165.015 319.701 163.863 320.32L162.231 318.176C163.298 317.643 164.279 316.928 165.175 316.032C166.092 315.115 166.892 314.069 167.575 312.896C168.258 311.723 168.78 310.485 169.143 309.184C169.527 307.861 169.719 306.539 169.719 305.216V300.032ZM170.199 300.032H172.343V305.216C172.343 306.496 172.524 307.765 172.887 309.024C173.271 310.283 173.804 311.467 174.487 312.576C175.17 313.685 175.948 314.677 176.823 315.552C177.719 316.427 178.679 317.12 179.703 317.632L178.071 319.744C176.94 319.168 175.895 318.379 174.935 317.376C173.996 316.373 173.164 315.232 172.439 313.952C171.735 312.651 171.18 311.264 170.775 309.792C170.391 308.299 170.199 306.773 170.199 305.216V300.032ZM182.231 297.536H184.887V326.496H182.231V297.536ZM184.279 309.248H189.623V311.52H184.279V309.248ZM198.516 307.36H201.172V312.8H198.516V307.36ZM209.14 307.36H211.764V312.8H209.14V307.36ZM192.084 311.84H218.228V313.984H192.084V311.84ZM205.14 316.192C208.234 316.192 210.655 316.629 212.404 317.504C214.154 318.379 215.028 319.637 215.028 321.28C215.028 322.944 214.154 324.213 212.404 325.088C210.655 325.984 208.234 326.432 205.14 326.432C202.047 326.432 199.615 325.984 197.844 325.088C196.095 324.213 195.22 322.944 195.22 321.28C195.22 319.637 196.095 318.379 197.844 317.504C199.615 316.629 202.047 316.192 205.14 316.192ZM205.14 318.24C203.626 318.24 202.324 318.357 201.236 318.592C200.17 318.827 199.348 319.179 198.772 319.648C198.196 320.096 197.908 320.64 197.908 321.28C197.908 321.963 198.196 322.539 198.772 323.008C199.348 323.456 200.17 323.797 201.236 324.032C202.324 324.267 203.626 324.384 205.14 324.384C206.655 324.384 207.946 324.267 209.012 324.032C210.1 323.797 210.932 323.456 211.508 323.008C212.084 322.539 212.372 321.963 212.372 321.28C212.372 320.64 212.084 320.096 211.508 319.648C210.932 319.179 210.1 318.827 209.012 318.592C207.946 318.357 206.655 318.24 205.14 318.24ZM205.14 298.08C207.231 298.08 209.034 298.293 210.548 298.72C212.084 299.147 213.258 299.765 214.068 300.576C214.9 301.365 215.316 302.325 215.316 303.456C215.316 304.565 214.9 305.525 214.068 306.336C213.258 307.147 212.084 307.765 210.548 308.192C209.034 308.597 207.231 308.8 205.14 308.8C203.05 308.8 201.236 308.597 199.7 308.192C198.186 307.765 197.012 307.147 196.18 306.336C195.37 305.525 194.964 304.565 194.964 303.456C194.964 302.325 195.37 301.365 196.18 300.576C197.012 299.765 198.186 299.147 199.7 298.72C201.236 298.293 203.05 298.08 205.14 298.08ZM205.14 300.16C203.626 300.16 202.303 300.288 201.172 300.544C200.063 300.8 199.199 301.173 198.58 301.664C197.983 302.155 197.684 302.752 197.684 303.456C197.684 304.139 197.983 304.736 198.58 305.248C199.199 305.739 200.063 306.112 201.172 306.368C202.303 306.624 203.626 306.752 205.14 306.752C206.698 306.752 208.031 306.624 209.14 306.368C210.25 306.112 211.103 305.739 211.7 305.248C212.298 304.736 212.596 304.139 212.596 303.456C212.596 302.752 212.298 302.155 211.7 301.664C211.103 301.173 210.25 300.8 209.14 300.544C208.031 300.288 206.698 300.16 205.14 300.16ZM228.658 301.696H230.802V306.368C230.802 307.883 230.589 309.387 230.162 310.88C229.735 312.352 229.138 313.749 228.37 315.072C227.623 316.373 226.759 317.536 225.778 318.56C224.797 319.563 223.741 320.352 222.61 320.928L221.042 318.816C222.087 318.304 223.058 317.611 223.954 316.736C224.871 315.84 225.682 314.827 226.386 313.696C227.09 312.544 227.645 311.349 228.05 310.112C228.455 308.853 228.658 307.605 228.658 306.368V301.696ZM229.17 301.696H231.282V306.368C231.282 307.52 231.463 308.683 231.826 309.856C232.21 311.029 232.743 312.149 233.426 313.216C234.109 314.283 234.898 315.243 235.794 316.096C236.711 316.928 237.682 317.6 238.706 318.112L237.202 320.224C236.071 319.648 235.015 318.88 234.034 317.92C233.053 316.939 232.199 315.829 231.474 314.592C230.749 313.355 230.183 312.032 229.778 310.624C229.373 309.216 229.17 307.797 229.17 306.368V301.696ZM222.066 300.512H237.682V302.72H222.066V300.512ZM241.106 297.536H243.762V326.496H241.106V297.536ZM243.154 309.216H248.498V311.456H243.154V309.216ZM261.178 324V300.727H269.041C270.867 300.727 272.359 301.057 273.518 301.716C274.685 302.367 275.549 303.25 276.109 304.364C276.67 305.477 276.95 306.72 276.95 308.091C276.95 309.462 276.67 310.708 276.109 311.83C275.556 312.951 274.7 313.845 273.541 314.511C272.382 315.17 270.897 315.5 269.087 315.5H263.45V313H268.996C270.246 313 271.25 312.784 272.007 312.352C272.765 311.92 273.314 311.337 273.655 310.602C274.003 309.86 274.178 309.023 274.178 308.091C274.178 307.159 274.003 306.326 273.655 305.591C273.314 304.856 272.761 304.28 271.996 303.864C271.231 303.439 270.215 303.227 268.95 303.227H263.996V324H261.178ZM300.217 308H297.399C297.232 307.189 296.941 306.477 296.524 305.864C296.115 305.25 295.615 304.735 295.024 304.318C294.441 303.894 293.793 303.576 293.081 303.364C292.369 303.152 291.626 303.045 290.854 303.045C289.445 303.045 288.168 303.402 287.024 304.114C285.888 304.826 284.982 305.875 284.308 307.261C283.642 308.648 283.308 310.348 283.308 312.364C283.308 314.379 283.642 316.08 284.308 317.466C284.982 318.852 285.888 319.902 287.024 320.614C288.168 321.326 289.445 321.682 290.854 321.682C291.626 321.682 292.369 321.576 293.081 321.364C293.793 321.152 294.441 320.837 295.024 320.42C295.615 319.996 296.115 319.477 296.524 318.864C296.941 318.242 297.232 317.53 297.399 316.727H300.217C300.005 317.917 299.619 318.981 299.058 319.92C298.498 320.86 297.801 321.659 296.967 322.318C296.134 322.97 295.198 323.466 294.161 323.807C293.13 324.148 292.028 324.318 290.854 324.318C288.869 324.318 287.104 323.833 285.558 322.864C284.013 321.894 282.797 320.515 281.911 318.727C281.024 316.939 280.581 314.818 280.581 312.364C280.581 309.909 281.024 307.788 281.911 306C282.797 304.212 284.013 302.833 285.558 301.864C287.104 300.894 288.869 300.409 290.854 300.409C292.028 300.409 293.13 300.58 294.161 300.92C295.198 301.261 296.134 301.761 296.967 302.42C297.801 303.072 298.498 303.867 299.058 304.807C299.619 305.739 300.005 306.803 300.217 308Z" fill="black"/>
<path d="M230.5 366L233.387 361H227.613L230.5 366ZM230.5 339H230V361.5H230.5H231V339H230.5Z" fill="black"/>
<path d="M103.348 389.424H121.46V391.568H103.348V389.424ZM100.084 401.84H126.228V404.048H100.084V401.84ZM111.764 403.312H114.42V416.528H111.764V403.312ZM120.18 389.424H122.804V391.952C122.804 392.955 122.783 394.011 122.74 395.12C122.719 396.229 122.634 397.456 122.484 398.8C122.335 400.123 122.079 401.595 121.716 403.216L119.06 402.864C119.636 400.539 119.967 398.501 120.052 396.752C120.138 395.003 120.18 393.403 120.18 391.952V389.424ZM132.85 388.784H151.474V390.928H132.85V388.784ZM129.522 398.32H155.762V400.464H129.522V398.32ZM149.746 388.784H152.37V390.64C152.37 391.664 152.338 392.869 152.274 394.256C152.21 395.621 151.986 397.189 151.602 398.96L148.978 398.672C149.362 396.923 149.586 395.397 149.65 394.096C149.714 392.795 149.746 391.643 149.746 390.64V388.784ZM132.626 403.344H152.434V410.672H135.314V414.704H132.69V408.624H149.81V405.456H132.626V403.344ZM132.69 414.032H153.17V416.144H132.69V414.032ZM168.335 389.648C169.85 389.648 171.183 389.936 172.335 390.512C173.509 391.067 174.426 391.856 175.087 392.88C175.749 393.904 176.079 395.099 176.079 396.464C176.079 397.808 175.749 399.003 175.087 400.048C174.426 401.072 173.509 401.872 172.335 402.448C171.183 403.003 169.85 403.28 168.335 403.28C166.842 403.28 165.509 403.003 164.335 402.448C163.162 401.872 162.234 401.072 161.551 400.048C160.89 399.003 160.559 397.808 160.559 396.464C160.559 395.099 160.89 393.904 161.551 392.88C162.234 391.856 163.162 391.067 164.335 390.512C165.509 389.936 166.842 389.648 168.335 389.648ZM168.335 391.952C167.354 391.952 166.469 392.144 165.679 392.528C164.911 392.891 164.303 393.413 163.855 394.096C163.407 394.779 163.183 395.568 163.183 396.464C163.183 397.36 163.407 398.149 163.855 398.832C164.303 399.515 164.911 400.048 165.679 400.432C166.469 400.795 167.354 400.976 168.335 400.976C169.338 400.976 170.223 400.795 170.991 400.432C171.759 400.048 172.367 399.515 172.815 398.832C173.263 398.149 173.487 397.36 173.487 396.464C173.487 395.568 173.263 394.779 172.815 394.096C172.367 393.413 171.759 392.891 170.991 392.528C170.223 392.144 169.338 391.952 168.335 391.952ZM179.887 387.536H182.543V416.528H179.887V387.536ZM159.471 410.192L159.119 407.952C160.89 407.952 162.831 407.941 164.943 407.92C167.055 407.877 169.231 407.792 171.471 407.664C173.733 407.515 175.909 407.28 177.999 406.96L178.223 408.912C176.047 409.317 173.839 409.616 171.599 409.808C169.381 409.979 167.237 410.085 165.167 410.128C163.098 410.171 161.199 410.192 159.471 410.192ZM198.615 414V390.727H201.433V401.091H213.842V390.727H216.661V414H213.842V403.591H201.433V414H198.615ZM221.03 393.227V390.727H238.484V393.227H231.166V414H228.348V393.227H221.03ZM242.834 390.727H246.197L254.107 410.045H254.379L262.288 390.727H265.652V414H263.016V396.318H262.788L255.516 414H252.97L245.697 396.318H245.47V414H242.834V390.727ZM271.303 414V390.727H274.121V411.5H284.939V414H271.303ZM292.939 410.818L292.757 412.045C292.628 412.909 292.431 413.833 292.166 414.818C291.909 415.803 291.64 416.731 291.359 417.602C291.079 418.473 290.848 419.167 290.666 419.682H288.621C288.719 419.197 288.848 418.557 289.007 417.761C289.166 416.966 289.325 416.076 289.484 415.091C289.651 414.114 289.787 413.114 289.893 412.091L290.03 410.818H292.939ZM325.999 398H323.18C323.014 397.189 322.722 396.477 322.305 395.864C321.896 395.25 321.396 394.735 320.805 394.318C320.222 393.894 319.574 393.576 318.862 393.364C318.15 393.152 317.408 393.045 316.635 393.045C315.226 393.045 313.949 393.402 312.805 394.114C311.669 394.826 310.764 395.875 310.089 397.261C309.423 398.648 309.089 400.348 309.089 402.364C309.089 404.379 309.423 406.08 310.089 407.466C310.764 408.852 311.669 409.902 312.805 410.614C313.949 411.326 315.226 411.682 316.635 411.682C317.408 411.682 318.15 411.576 318.862 411.364C319.574 411.152 320.222 410.837 320.805 410.42C321.396 409.996 321.896 409.477 322.305 408.864C322.722 408.242 323.014 407.53 323.18 406.727H325.999C325.786 407.917 325.4 408.981 324.839 409.92C324.279 410.86 323.582 411.659 322.749 412.318C321.915 412.97 320.98 413.466 319.942 413.807C318.911 414.148 317.809 414.318 316.635 414.318C314.65 414.318 312.885 413.833 311.339 412.864C309.794 411.894 308.578 410.515 307.692 408.727C306.805 406.939 306.362 404.818 306.362 402.364C306.362 399.909 306.805 397.788 307.692 396C308.578 394.212 309.794 392.833 311.339 391.864C312.885 390.894 314.65 390.409 316.635 390.409C317.809 390.409 318.911 390.58 319.942 390.92C320.98 391.261 321.915 391.761 322.749 392.42C323.582 393.072 324.279 393.867 324.839 394.807C325.4 395.739 325.786 396.803 325.999 398ZM343.28 396.545C343.143 395.394 342.59 394.5 341.621 393.864C340.651 393.227 339.462 392.909 338.053 392.909C337.022 392.909 336.121 393.076 335.348 393.409C334.583 393.742 333.984 394.201 333.553 394.784C333.128 395.367 332.916 396.03 332.916 396.773C332.916 397.394 333.064 397.928 333.359 398.375C333.662 398.814 334.049 399.182 334.518 399.477C334.988 399.765 335.481 400.004 335.996 400.193C336.511 400.375 336.984 400.523 337.416 400.636L339.78 401.273C340.386 401.432 341.06 401.652 341.803 401.932C342.553 402.212 343.268 402.595 343.95 403.08C344.64 403.557 345.208 404.17 345.655 404.92C346.102 405.67 346.325 406.591 346.325 407.682C346.325 408.939 345.996 410.076 345.337 411.091C344.685 412.106 343.731 412.913 342.473 413.511C341.223 414.11 339.704 414.409 337.916 414.409C336.25 414.409 334.806 414.14 333.587 413.602C332.375 413.064 331.42 412.314 330.723 411.352C330.034 410.39 329.643 409.273 329.553 408H332.462C332.537 408.879 332.833 409.606 333.348 410.182C333.871 410.75 334.53 411.174 335.325 411.455C336.128 411.727 336.992 411.864 337.916 411.864C338.992 411.864 339.958 411.689 340.814 411.341C341.67 410.985 342.348 410.492 342.848 409.864C343.348 409.227 343.598 408.485 343.598 407.636C343.598 406.864 343.382 406.235 342.95 405.75C342.518 405.265 341.95 404.871 341.246 404.568C340.541 404.265 339.78 404 338.962 403.773L336.098 402.955C334.28 402.432 332.84 401.686 331.78 400.716C330.719 399.746 330.189 398.477 330.189 396.909C330.189 395.606 330.541 394.47 331.246 393.5C331.958 392.523 332.912 391.765 334.109 391.227C335.314 390.682 336.659 390.409 338.143 390.409C339.643 390.409 340.977 390.678 342.143 391.216C343.31 391.746 344.234 392.473 344.916 393.398C345.606 394.322 345.969 395.371 346.007 396.545H343.28ZM363.686 396.545C363.55 395.394 362.997 394.5 362.027 393.864C361.057 393.227 359.868 392.909 358.459 392.909C357.429 392.909 356.527 393.076 355.754 393.409C354.989 393.742 354.391 394.201 353.959 394.784C353.535 395.367 353.322 396.03 353.322 396.773C353.322 397.394 353.47 397.928 353.766 398.375C354.069 398.814 354.455 399.182 354.925 399.477C355.394 399.765 355.887 400.004 356.402 400.193C356.917 400.375 357.391 400.523 357.822 400.636L360.186 401.273C360.792 401.432 361.466 401.652 362.209 401.932C362.959 402.212 363.675 402.595 364.357 403.08C365.046 403.557 365.614 404.17 366.061 404.92C366.508 405.67 366.732 406.591 366.732 407.682C366.732 408.939 366.402 410.076 365.743 411.091C365.091 412.106 364.137 412.913 362.879 413.511C361.629 414.11 360.11 414.409 358.322 414.409C356.656 414.409 355.213 414.14 353.993 413.602C352.781 413.064 351.826 412.314 351.129 411.352C350.44 410.39 350.05 409.273 349.959 408H352.868C352.944 408.879 353.239 409.606 353.754 410.182C354.277 410.75 354.936 411.174 355.732 411.455C356.535 411.727 357.398 411.864 358.322 411.864C359.398 411.864 360.364 411.689 361.22 411.341C362.076 410.985 362.754 410.492 363.254 409.864C363.754 409.227 364.004 408.485 364.004 407.636C364.004 406.864 363.788 406.235 363.357 405.75C362.925 405.265 362.357 404.871 361.652 404.568C360.947 404.265 360.186 404 359.368 403.773L356.504 402.955C354.686 402.432 353.247 401.686 352.186 400.716C351.125 399.746 350.595 398.477 350.595 396.909C350.595 395.606 350.947 394.47 351.652 393.5C352.364 392.523 353.319 391.765 354.516 391.227C355.72 390.682 357.065 390.409 358.55 390.409C360.05 390.409 361.383 390.678 362.55 391.216C363.716 391.746 364.641 392.473 365.322 393.398C366.012 394.322 366.375 395.371 366.413 396.545H363.686ZM375.001 410.818L374.82 412.045C374.691 412.909 374.494 413.833 374.229 414.818C373.971 415.803 373.702 416.731 373.422 417.602C373.142 418.473 372.911 419.167 372.729 419.682H370.683C370.782 419.197 370.911 418.557 371.07 417.761C371.229 416.966 371.388 416.076 371.547 415.091C371.714 414.114 371.85 413.114 371.956 412.091L372.092 410.818H375.001ZM115.422 429.032H117.598V434.216C117.598 435.816 117.395 437.384 116.99 438.92C116.606 440.456 116.051 441.896 115.326 443.24C114.601 444.584 113.747 445.779 112.766 446.824C111.785 447.869 110.718 448.701 109.566 449.32L107.934 447.176C109.001 446.643 109.982 445.928 110.878 445.032C111.795 444.115 112.595 443.069 113.278 441.896C113.961 440.723 114.483 439.485 114.846 438.184C115.23 436.861 115.422 435.539 115.422 434.216V429.032ZM115.902 429.032H118.046V434.216C118.046 435.496 118.227 436.765 118.59 438.024C118.974 439.283 119.507 440.467 120.19 441.576C120.873 442.685 121.651 443.677 122.526 444.552C123.422 445.427 124.382 446.12 125.406 446.632L123.774 448.744C122.643 448.168 121.598 447.379 120.638 446.376C119.699 445.373 118.867 444.232 118.142 442.952C117.438 441.651 116.883 440.264 116.478 438.792C116.094 437.299 115.902 435.773 115.902 434.216V429.032ZM127.934 426.536H130.59V455.496H127.934V426.536ZM129.982 438.248H135.326V440.52H129.982V438.248ZM145.5 429.704H147.708V432.68C147.708 434.451 147.366 436.093 146.684 437.608C146.001 439.123 145.041 440.456 143.804 441.608C142.588 442.739 141.169 443.592 139.548 444.168L138.172 442.088C139.622 441.555 140.892 440.819 141.98 439.88C143.089 438.941 143.953 437.853 144.572 436.616C145.19 435.357 145.5 434.045 145.5 432.68V429.704ZM146.012 429.704H148.188V432.68C148.188 433.661 148.358 434.611 148.7 435.528C149.062 436.424 149.574 437.267 150.236 438.056C150.897 438.824 151.665 439.507 152.54 440.104C153.436 440.701 154.417 441.171 155.484 441.512L154.14 443.592C152.54 443.037 151.132 442.227 149.916 441.16C148.7 440.093 147.74 438.835 147.036 437.384C146.353 435.933 146.012 434.365 146.012 432.68V429.704ZM138.876 428.936H154.716V431.112H138.876V428.936ZM158.844 426.568H161.5V447.752H158.844V426.568ZM142.908 452.68H162.396V454.856H142.908V452.68ZM142.908 445.768H145.564V453.64H142.908V445.768ZM176.225 440.296H202.401V442.504H176.225V440.296ZM179.521 435.4H199.329V437.576H179.521V435.4ZM179.521 427.688H199.137V429.864H182.145V436.424H179.521V427.688ZM189.281 445C192.374 445 194.796 445.459 196.545 446.376C198.294 447.293 199.169 448.573 199.169 450.216C199.169 451.88 198.294 453.16 196.545 454.056C194.796 454.973 192.374 455.432 189.281 455.432C186.188 455.432 183.756 454.973 181.985 454.056C180.236 453.16 179.361 451.88 179.361 450.216C179.361 448.573 180.236 447.293 181.985 446.376C183.756 445.459 186.188 445 189.281 445ZM189.249 447.08C187.756 447.08 186.465 447.208 185.377 447.464C184.31 447.699 183.489 448.051 182.913 448.52C182.337 448.989 182.049 449.555 182.049 450.216C182.049 450.899 182.337 451.475 182.913 451.944C183.489 452.392 184.31 452.744 185.377 453C186.465 453.235 187.756 453.352 189.249 453.352C190.785 453.352 192.086 453.235 193.153 453C194.241 452.744 195.073 452.392 195.649 451.944C196.225 451.475 196.513 450.899 196.513 450.216C196.513 449.555 196.225 448.989 195.649 448.52C195.073 448.051 194.241 447.699 193.153 447.464C192.086 447.208 190.785 447.08 189.249 447.08ZM236.679 426.536H239.239V455.496H236.679V426.536ZM224.647 437.576H231.943V439.784H224.647V437.576ZM230.855 427.208H233.351V453.992H230.855V427.208ZM215.751 446.312H217.607C219.1 446.312 220.423 446.291 221.575 446.248C222.748 446.205 223.847 446.12 224.871 445.992C225.916 445.864 226.972 445.693 228.039 445.48L228.295 447.688C227.207 447.923 226.129 448.104 225.063 448.232C223.996 448.339 222.865 448.413 221.671 448.456C220.497 448.499 219.143 448.52 217.607 448.52H215.751V446.312ZM215.751 430.088H226.599V432.264H218.343V447.176H215.751V430.088ZM265.124 426.536H267.78V455.528H265.124V426.536ZM252.516 428.776C253.945 428.776 255.204 429.192 256.292 430.024C257.401 430.835 258.265 431.997 258.884 433.512C259.524 435.027 259.844 436.808 259.844 438.856C259.844 440.904 259.524 442.685 258.884 444.2C258.265 445.715 257.401 446.888 256.292 447.72C255.204 448.552 253.945 448.968 252.516 448.968C251.087 448.968 249.817 448.552 248.708 447.72C247.599 446.888 246.724 445.715 246.084 444.2C245.465 442.685 245.156 440.904 245.156 438.856C245.156 436.808 245.465 435.027 246.084 433.512C246.724 431.997 247.599 430.835 248.708 430.024C249.817 429.192 251.087 428.776 252.516 428.776ZM252.516 431.144C251.556 431.144 250.713 431.464 249.988 432.104C249.284 432.723 248.729 433.619 248.324 434.792C247.919 435.944 247.716 437.299 247.716 438.856C247.716 440.413 247.919 441.779 248.324 442.952C248.729 444.104 249.284 445 249.988 445.64C250.713 446.28 251.556 446.6 252.516 446.6C253.455 446.6 254.276 446.28 254.98 445.64C255.705 445 256.271 444.104 256.676 442.952C257.081 441.779 257.284 440.413 257.284 438.856C257.284 437.299 257.081 435.944 256.676 434.792C256.271 433.619 255.705 432.723 254.98 432.104C254.276 431.464 253.455 431.144 252.516 431.144ZM294.722 426.536H297.346V455.528H294.722V426.536ZM288.738 437.448H295.138V439.624H288.738V437.448ZM274.882 446.376H277.058C278.892 446.376 280.524 446.355 281.954 446.312C283.383 446.269 284.738 446.184 286.018 446.056C287.319 445.928 288.642 445.747 289.986 445.512L290.274 447.688C288.887 447.923 287.532 448.104 286.21 448.232C284.887 448.36 283.49 448.456 282.018 448.52C280.567 448.563 278.914 448.584 277.058 448.584H274.882V446.376ZM274.882 429.192H288.258V431.368H277.506V447.112H274.882V429.192ZM276.834 437.32H286.978V439.464H276.834V437.32ZM319.559 440.136H322.183V443.816H319.559V440.136ZM331.751 426.568H334.407V445.96H331.751V426.568ZM333.287 435.304H338.631V437.512H333.287V435.304ZM312.135 445.128L311.815 442.984C313.543 442.984 315.431 442.973 317.479 442.952C319.548 442.909 321.66 442.824 323.815 442.696C325.97 442.568 328.039 442.365 330.023 442.088L330.215 443.976C328.167 444.339 326.066 444.605 323.911 444.776C321.778 444.925 319.698 445.021 317.671 445.064C315.666 445.107 313.82 445.128 312.135 445.128ZM315.367 447.432H334.407V455.496H331.751V449.544H315.367V447.432ZM312.551 429.16H329.159V431.176H312.551V429.16ZM320.839 432.264C322.887 432.264 324.519 432.648 325.735 433.416C326.972 434.184 327.591 435.229 327.591 436.552C327.591 437.875 326.972 438.92 325.735 439.688C324.519 440.456 322.887 440.84 320.839 440.84C318.812 440.84 317.18 440.456 315.943 439.688C314.706 438.92 314.087 437.875 314.087 436.552C314.087 435.229 314.706 434.184 315.943 433.416C317.18 432.648 318.812 432.264 320.839 432.264ZM320.839 434.12C319.559 434.12 318.535 434.333 317.767 434.76C316.999 435.187 316.615 435.784 316.615 436.552C316.615 437.277 316.999 437.875 317.767 438.344C318.535 438.792 319.559 439.016 320.839 439.016C322.119 439.016 323.143 438.792 323.911 438.344C324.679 437.875 325.063 437.277 325.063 436.552C325.063 435.784 324.679 435.187 323.911 434.76C323.143 434.333 322.119 434.12 320.839 434.12ZM319.559 426.312H322.183V430.152H319.559V426.312ZM341.413 449.608H367.653V451.816H341.413V449.608ZM353.157 442.664H355.781V450.248H353.157V442.664ZM344.485 428.584H347.141V433.736H361.861V428.584H364.485V443.4H344.485V428.584ZM347.141 435.912V441.224H361.861V435.912H347.141Z" fill="black"/>
</svg>
